<svg width="558" height="821" viewBox="0 0 558 821" fill="none" xmlns="http://www.w3.org/2000/svg">
<path d="M59.4765 70.388V17.304C59.4765 14.452 58.1885 12.152 55.6125 11.692H65.4565L81.4645 60.912L97.6565 11.692H107.501C104.925 12.152 103.637 14.452 103.637 17.304V70.388C103.637 73.24 104.925 75.54 107.501 76H93.7005C96.3685 75.54 97.6565 73.24 97.6565 70.388V13.992L78.7965 71.216L78.4285 70.112L60.2125 13.992V70.388C60.2125 73.24 61.5005 75.54 64.1685 76H55.6125C58.1885 75.54 59.4765 73.24 59.4765 70.388ZM149.014 76H143.402C139.906 76 139.17 73.424 139.17 70.48V68.272C136.778 74.252 131.442 76.644 125.922 76.644C107.154 76.644 107.522 58.244 122.426 53C129.142 50.7 138.894 51.344 138.986 43.708C137.422 30.552 121.782 32.668 121.782 43.708C121.782 45.456 118.838 45.548 119.574 42.696C123.162 29.448 145.15 30.276 145.15 46.192V70.388C145.15 73.24 146.438 75.54 149.014 76ZM139.17 65.052V46.376C137.054 51.896 128.682 52.816 123.714 55.576C112.49 61.924 117.458 78.484 130.982 74.804C135.306 73.7 139.078 69.836 139.17 65.052ZM156.405 18.592C156.405 15.74 155.117 13.44 152.541 12.888C155.761 12.888 159.717 13.164 162.385 11.692V70.388C162.385 73.24 163.673 75.54 166.341 76H152.541C155.117 75.54 156.405 73.24 156.405 70.388V18.592ZM207.323 76H201.711C198.215 76 197.479 73.424 197.479 70.48V68.272C195.087 74.252 189.751 76.644 184.231 76.644C165.463 76.644 165.831 58.244 180.735 53C187.451 50.7 197.203 51.344 197.295 43.708C195.731 30.552 180.091 32.668 180.091 43.708C180.091 45.456 177.147 45.548 177.883 42.696C181.471 29.448 203.459 30.276 203.459 46.192V70.388C203.459 73.24 204.747 75.54 207.323 76ZM197.479 65.052V46.376C195.363 51.896 186.991 52.816 182.023 55.576C170.799 61.924 175.767 78.484 189.291 74.804C193.615 73.7 197.387 69.836 197.479 65.052ZM229.421 69.284L244.141 36.348C245.797 32.76 248.557 26.78 252.973 25.952C253.249 25.86 253.525 25.86 253.801 25.86C255.733 25.86 257.205 27.332 257.205 29.264C257.205 31.104 255.733 32.668 253.801 32.668C251.961 32.668 250.489 31.104 250.489 29.264C250.489 28.712 250.581 28.16 250.857 27.608C247.913 29.632 245.981 33.956 244.785 36.624L227.121 76.092H226.385L210.561 39.752C209.365 36.808 207.893 35.152 205.317 34.6C209.917 34.6 214.517 34.6 219.117 34.6C216.449 35.152 215.529 37.268 216.817 40.12L229.421 69.284ZM247.269 76C249.937 75.54 251.225 73.24 251.225 70.388V41.5C251.225 38.648 249.937 36.348 247.269 35.888C250.581 35.888 254.537 36.164 257.205 34.6V70.388C257.205 73.24 258.493 75.54 261.069 76C256.469 76 251.869 76 247.269 76ZM268.53 18.592C268.53 15.74 267.242 13.44 264.666 12.888C267.886 12.888 271.842 13.164 274.51 11.692V59.532L282.054 49.136L289.138 39.476C290.61 37.176 290.426 35.06 287.942 34.6C290.886 34.6 293.738 34.6 296.682 34.6C294.382 35.06 292.266 36.348 290.426 38.74L282.974 48.952C286.838 48.032 287.942 49.136 289.046 51.252L298.43 70.848C300.178 74.896 302.478 75.724 304.042 76H298.522C294.842 76 294.106 74.252 293.002 72.136L282.33 49.78L274.51 60.544V70.388C274.51 73.24 275.798 75.54 278.466 76H264.666C267.242 75.54 268.53 73.24 268.53 70.388V18.592ZM343.526 76H337.914C334.418 76 333.682 73.424 333.682 70.48V68.272C331.29 74.252 325.954 76.644 320.434 76.644C301.666 76.644 302.034 58.244 316.938 53C323.654 50.7 333.406 51.344 333.498 43.708C331.934 30.552 316.294 32.668 316.294 43.708C316.294 45.456 313.35 45.548 314.086 42.696C317.674 29.448 339.662 30.276 339.662 46.192V70.388C339.662 73.24 340.95 75.54 343.526 76ZM333.682 65.052V46.376C331.566 51.896 323.194 52.816 318.226 55.576C307.002 61.924 311.97 78.484 325.494 74.804C329.818 73.7 333.59 69.836 333.682 65.052ZM381.592 76H376.624C379.2 75.54 380.488 73.24 380.488 70.388V17.304C380.488 14.452 379.2 12.152 376.624 11.692H381.868H401.28C430.72 11.692 430.72 51.436 401.28 51.436H386.468V70.388C386.468 73.24 387.756 75.54 390.424 76H381.592ZM401.28 12.428H386.468V50.7H401.28C422.532 50.7 422.532 12.428 401.28 12.428ZM490.36 21.352C490.36 15.648 484.84 11.508 477.388 11.692C463.404 12.336 457.332 35.52 481.712 40.948C515.752 50.7 505.264 75.724 480.976 76.828C470.028 77.288 456.044 71.308 455.584 58.888C455.216 52.816 463.404 53.828 461.564 58.612C456.228 68.824 469.108 76.552 480.976 76C497.076 75.356 508.76 54.932 480.056 46.744C451.076 38.372 457.516 11.508 477.48 10.864C485.024 10.68 492.292 14.268 493.764 19.88C494.96 24.204 490.36 24.112 490.36 21.352Z" fill="#8A5514"/>
<path d="M1.98984 151C2.99784 150.82 3.50184 149.92 3.50184 148.804V128.032C3.50184 126.916 2.99784 126.016 1.98984 125.836C5.12184 125.836 8.25384 125.836 11.3858 125.836C24.7418 125.836 24.6338 151 11.4578 151C8.28984 151 5.12184 151 1.98984 151ZM10.8098 126.124H5.84184V150.712H10.9178C21.6098 150.712 21.8258 126.124 10.8098 126.124ZM30.8531 125.836H33.2291L24.1571 151H21.8171L30.8531 125.836ZM43.3184 134.548C47.8904 134.548 51.6344 138.292 51.6344 142.9C51.6344 147.472 47.8904 151.216 43.3184 151.216C38.7104 151.216 35.0024 147.472 35.0024 142.9C35.0024 138.292 38.7104 134.548 43.3184 134.548ZM43.3184 134.872C38.7464 134.872 37.3424 138.94 37.3424 142.9C37.3424 146.824 38.7464 150.892 43.3184 150.892C47.8544 150.892 49.2944 146.824 49.2944 142.9C49.2944 138.94 47.8544 134.872 43.3184 134.872ZM78.2412 129.616C78.2412 127.384 76.0812 125.764 73.1652 125.836C67.6932 126.088 65.3172 135.16 74.8572 137.284C88.1772 141.1 84.0732 150.892 74.5692 151.324C70.2852 151.504 64.8132 149.164 64.6332 144.304C64.4892 141.928 67.6932 142.324 66.9732 144.196C64.8852 148.192 69.9252 151.216 74.5692 151C80.8692 150.748 85.4412 142.756 74.2092 139.552C62.8692 136.276 65.3892 125.764 73.2012 125.512C76.1532 125.44 78.9972 126.844 79.5732 129.04C80.0412 130.732 78.2412 130.696 78.2412 129.616ZM86.1157 137.5C86.1157 136.384 85.6117 135.484 84.6037 135.304C85.8637 135.304 87.4117 135.412 88.4557 134.8V137.716C89.3917 135.304 91.4077 134.584 93.2437 134.584C95.0797 134.584 96.6997 135.7 96.9877 137.86C97.9237 135.34 99.9757 134.584 101.848 134.584C103.864 134.584 105.664 135.988 105.664 138.652V148.804C105.664 149.92 106.168 150.82 107.176 151H101.776C102.82 150.82 103.324 149.92 103.324 148.804V138.436C103.324 133.864 97.0957 134.836 97.0597 138.904V148.804C97.0597 149.92 97.5637 150.82 98.6077 151H93.1717C94.2157 150.82 94.7197 149.92 94.7197 148.804V138.436C94.7197 133.864 88.5277 134.836 88.4557 138.904V148.804C88.4557 149.92 88.9597 150.82 90.0037 151H84.6037C85.6117 150.82 86.1157 149.92 86.1157 148.804V137.5ZM109.1 132.712V131.02C109.1 129.904 108.596 129.004 107.588 128.824C108.848 128.824 110.396 128.932 111.44 128.32V134.8H115.904V135.124H111.44V145.42C111.44 147.328 111.08 151 114.068 151C115.436 151 116.912 149.776 115.328 147.868C114.536 146.536 116.336 145.96 116.768 147.472C117.344 149.668 116.048 151.252 113.744 151.252C109.748 151.252 109.1 148.732 109.1 145.42V135.124H107.948V134.8H109.1V132.712ZM129.783 151C130.791 150.82 131.295 149.92 131.295 148.804V128.032C131.295 126.916 130.791 126.016 129.783 125.836C132.267 125.836 134.751 125.836 137.271 125.836C145.155 125.836 146.559 132.82 141.375 135.232C152.139 135.88 151.887 151 140.619 151C137.019 151 133.383 151 129.783 151ZM140.691 135.484C139.719 135.844 138.603 136.024 137.271 136.024H133.635V150.712H140.619C148.935 150.712 148.935 135.556 140.691 135.484ZM137.271 126.124H133.635V135.736H137.271C143.571 135.736 143.715 126.124 137.271 126.124ZM152.139 137.5C152.139 136.384 151.635 135.484 150.627 135.304C151.887 135.304 153.435 135.412 154.479 134.8V148.804C154.479 149.92 154.983 150.82 156.027 151H150.627C151.635 150.82 152.139 149.92 152.139 148.804V137.5ZM153.183 131.38C153.903 131.38 154.515 131.956 154.515 132.712C154.515 133.432 153.903 134.044 153.183 134.044C152.427 134.044 151.851 133.432 151.851 132.712C151.851 131.956 152.427 131.38 153.183 131.38ZM159.03 137.5C159.03 136.384 158.526 135.484 157.518 135.304C158.778 135.304 160.326 135.412 161.37 134.8V137.824C162.306 135.484 164.394 134.584 166.878 134.584C169.434 134.584 171.774 135.988 171.774 139.264V148.804C171.774 149.92 172.278 150.82 173.286 151H167.886C168.93 150.82 169.434 149.92 169.434 148.804V139.012C169.434 133.252 161.478 134.44 161.37 139.12V148.804C161.37 149.92 161.874 150.82 162.918 151H157.518C158.526 150.82 159.03 149.92 159.03 148.804V137.5ZM190.481 151V151.036H188.285C186.881 151.036 186.629 149.992 186.593 149.056V147.976C185.657 150.316 183.569 151.252 181.409 151.252C172.481 151.252 172.913 134.584 181.121 134.584C183.569 134.584 185.657 135.484 186.593 137.824V128.536C186.593 127.42 186.089 126.52 185.081 126.304C186.377 126.304 187.889 126.412 188.933 125.836V148.804C188.933 149.92 189.437 150.82 190.481 151ZM186.593 146.716V139.12C186.557 136.852 184.361 135.088 182.201 135.196C176.045 135.592 175.721 150.568 182.273 150.676C184.361 150.712 186.557 148.984 186.593 146.716ZM206.924 151H204.872C203.324 151 203.108 150.1 203.072 149.128V148.012C202.136 150.352 200.048 151.252 197.564 151.252C195.008 151.252 192.668 149.848 192.668 146.572V137.032C192.668 135.916 192.164 135.016 191.156 134.8H196.556C195.512 135.016 195.008 135.916 195.008 137.032V146.824C195.008 152.584 202.964 151.396 203.072 146.716V137.032C203.072 135.916 202.568 135.016 201.524 134.8H206.924C205.916 135.016 205.412 135.916 205.412 137.032V148.804C205.412 149.92 205.916 150.82 206.924 151ZM223.775 141.64L232.307 127.924C232.955 126.844 232.703 126.016 231.695 125.836C232.919 125.836 234.143 125.836 235.367 125.836C234.395 126.016 233.387 126.664 232.667 127.78C231.227 130.12 229.751 132.496 228.311 134.836C229.931 134.512 230.435 135.232 230.795 136.06L236.447 148.984C236.951 150.028 237.959 150.82 238.967 151.036H236.519C235.079 151.036 234.755 150.316 234.323 149.488L228.059 135.196L223.775 142.108V148.804C223.775 149.92 224.279 150.82 225.323 151.036C223.523 151.036 221.723 151.036 219.923 151.036C220.931 150.82 221.435 149.92 221.435 148.804V128.032C221.435 126.916 220.931 126.016 219.923 125.836C221.723 125.836 223.523 125.836 225.323 125.836C224.279 126.016 223.775 126.916 223.775 128.032V141.64ZM251.037 151C252.045 150.82 252.549 149.92 252.549 148.804V128.032C252.549 126.916 252.045 126.016 251.037 125.836C254.169 125.836 257.301 125.836 260.433 125.836C273.789 125.836 273.681 151 260.505 151C257.337 151 254.169 151 251.037 151ZM259.857 126.124H254.889V150.712H259.965C270.657 150.712 270.873 126.124 259.857 126.124ZM286.53 151H284.334C282.966 151 282.678 149.992 282.678 148.84V147.976C281.742 150.316 279.654 151.252 277.494 151.252C270.15 151.252 270.294 144.052 276.126 142C278.754 141.1 282.57 141.352 282.606 138.364C281.994 133.216 275.874 134.044 275.874 138.364C275.874 139.048 274.722 139.084 275.01 137.968C276.414 132.784 285.018 133.108 285.018 139.336V148.804C285.018 149.92 285.522 150.82 286.53 151ZM282.678 146.716V139.408C281.85 141.568 278.574 141.928 276.63 143.008C272.238 145.492 274.182 151.972 279.474 150.532C281.166 150.1 282.642 148.588 282.678 146.716ZM289.495 137.5C289.495 136.384 288.991 135.484 287.983 135.304C289.243 135.304 290.791 135.412 291.835 134.8V137.716C292.771 135.304 294.787 134.584 296.623 134.584C298.459 134.584 300.079 135.7 300.367 137.86C301.303 135.34 303.355 134.584 305.227 134.584C307.243 134.584 309.043 135.988 309.043 138.652V148.804C309.043 149.92 309.547 150.82 310.555 151H305.155C306.199 150.82 306.703 149.92 306.703 148.804V138.436C306.703 133.864 300.475 134.836 300.439 138.904V148.804C300.439 149.92 300.943 150.82 301.987 151H296.551C297.595 150.82 298.099 149.92 298.099 148.804V138.436C298.099 133.864 291.907 134.836 291.835 138.904V148.804C291.835 149.92 292.339 150.82 293.383 151H287.983C288.991 150.82 289.495 149.92 289.495 148.804V137.5ZM320.49 134.548C325.062 134.548 328.806 138.292 328.806 142.9C328.806 147.472 325.062 151.216 320.49 151.216C315.882 151.216 312.174 147.472 312.174 142.9C312.174 138.292 315.882 134.548 320.49 134.548ZM320.49 134.872C315.918 134.872 314.514 138.94 314.514 142.9C314.514 146.824 315.918 150.892 320.49 150.892C325.026 150.892 326.466 146.824 326.466 142.9C326.466 138.94 325.026 134.872 320.49 134.872ZM346.47 151V151.036H344.274C342.87 151.036 342.618 149.992 342.582 149.056V147.976C341.646 150.316 339.558 151.252 337.398 151.252C328.47 151.252 328.902 134.584 337.11 134.584C339.558 134.584 341.646 135.484 342.582 137.824V128.536C342.582 127.42 342.078 126.52 341.07 126.304C342.366 126.304 343.878 126.412 344.922 125.836V148.804C344.922 149.92 345.426 150.82 346.47 151ZM342.582 146.716V139.12C342.546 136.852 340.35 135.088 338.19 135.196C332.034 135.592 331.71 150.568 338.262 150.676C340.35 150.712 342.546 148.984 342.582 146.716ZM362.503 151H360.307C358.939 151 358.651 149.992 358.651 148.84V147.976C357.715 150.316 355.627 151.252 353.467 151.252C346.123 151.252 346.267 144.052 352.099 142C354.727 141.1 358.543 141.352 358.579 138.364C357.967 133.216 351.847 134.044 351.847 138.364C351.847 139.048 350.695 139.084 350.983 137.968C352.387 132.784 360.991 133.108 360.991 139.336V148.804C360.991 149.92 361.495 150.82 362.503 151ZM358.651 146.716V139.408C357.823 141.568 354.547 141.928 352.603 143.008C348.211 145.492 350.155 151.972 355.447 150.532C357.139 150.1 358.615 148.588 358.651 146.716ZM365.467 137.5C365.467 136.384 364.963 135.484 363.955 135.304C365.215 135.304 366.763 135.412 367.807 134.8V137.644C368.599 135.736 370.579 134.584 372.415 134.548C373.639 134.548 374.827 135.088 375.511 136.24C376.195 137.572 374.359 138.004 374.179 136.672C373.963 133.324 367.807 134.908 367.807 139.012V148.804C367.807 149.92 368.311 150.82 369.355 151H363.955C364.963 150.82 365.467 149.92 365.467 148.804V137.5ZM389.257 151H387.061C385.693 151 385.405 149.992 385.405 148.84V147.976C384.469 150.316 382.381 151.252 380.221 151.252C372.877 151.252 373.021 144.052 378.853 142C381.481 141.1 385.297 141.352 385.333 138.364C384.721 133.216 378.601 134.044 378.601 138.364C378.601 139.048 377.449 139.084 377.737 137.968C379.141 132.784 387.745 133.108 387.745 139.336V148.804C387.745 149.92 388.249 150.82 389.257 151ZM385.405 146.716V139.408C384.577 141.568 381.301 141.928 379.357 143.008C374.965 145.492 376.909 151.972 382.201 150.532C383.893 150.1 385.369 148.588 385.405 146.716ZM392.221 137.5C392.221 136.384 391.717 135.484 390.709 135.304C391.969 135.304 393.517 135.412 394.561 134.8V137.824C395.497 135.484 397.585 134.584 400.069 134.584C402.625 134.584 404.965 135.988 404.965 139.264V148.804C404.965 149.92 405.469 150.82 406.477 151H401.077C402.121 150.82 402.625 149.92 402.625 148.804V139.012C402.625 133.252 394.669 134.44 394.561 139.12V148.804C394.561 149.92 395.065 150.82 396.109 151H390.709C391.717 150.82 392.221 149.92 392.221 148.804V137.5ZM427.716 151C418.536 150.856 418.536 142.792 423.252 141.064C421.956 139.192 420.696 136.996 420.84 134.584C421.02 131.56 423.396 129.22 426.528 129.22C429.084 129.22 430.884 130.12 431.352 132.64C431.604 133.936 430.236 133.972 430.272 132.856C430.308 130.66 428.616 129.472 426.672 129.472C424.944 129.472 423.252 130.48 422.784 132.136C421.344 136.996 429.156 146.608 432.288 148.804C433.044 147.94 433.656 146.464 433.296 144.772C433.116 143.836 434.34 143.584 434.556 144.592C434.772 145.312 434.628 147.544 432.756 149.128C433.944 149.884 435.312 150.82 436.644 150.856V151C435.24 150.964 433.728 150.244 432.288 149.524C430.92 150.568 429.552 151.036 427.716 151ZM427.716 150.676C429.444 150.712 430.812 150.172 431.82 149.272C428.688 147.508 425.7 144.412 423.612 141.568C420.912 143.656 421.956 150.568 427.716 150.676ZM462.815 129.616C462.815 127.384 460.655 125.764 457.739 125.836C452.267 126.088 449.891 135.16 459.431 137.284C472.751 141.1 468.647 150.892 459.143 151.324C454.859 151.504 449.387 149.164 449.207 144.304C449.063 141.928 452.267 142.324 451.547 144.196C449.459 148.192 454.499 151.216 459.143 151C465.443 150.748 470.015 142.756 458.783 139.552C447.443 136.276 449.963 125.764 457.775 125.512C460.727 125.44 463.571 126.844 464.147 129.04C464.615 130.732 462.815 130.696 462.815 129.616ZM483.722 151H481.526C480.158 151 479.87 149.992 479.87 148.84V147.976C478.934 150.316 476.846 151.252 474.686 151.252C467.342 151.252 467.486 144.052 473.318 142C475.946 141.1 479.762 141.352 479.798 138.364C479.186 133.216 473.066 134.044 473.066 138.364C473.066 139.048 471.914 139.084 472.202 137.968C473.606 132.784 482.21 133.108 482.21 139.336V148.804C482.21 149.92 482.714 150.82 483.722 151ZM479.87 146.716V139.408C479.042 141.568 475.766 141.928 473.822 143.008C469.43 145.492 471.374 151.972 476.666 150.532C478.358 150.1 479.834 148.588 479.87 146.716ZM488.427 144.484V151.756C488.427 155.644 485.439 157.876 481.947 157.624C479.247 157.408 477.663 155.5 477.663 152.908C477.663 151.216 479.967 151.756 479.103 153.304C477.375 155.32 479.931 157.336 482.091 157.336C485.115 157.552 486.087 155.14 486.087 151.756V137.5C486.087 136.384 485.583 135.484 484.575 135.304C485.871 135.304 487.383 135.412 488.427 134.8V144.484ZM487.131 131.38C487.851 131.38 488.463 131.956 488.463 132.712C488.463 133.432 487.851 134.044 487.131 134.044C486.375 134.044 485.799 133.432 485.799 132.712C485.799 131.956 486.375 131.38 487.131 131.38ZM492.487 137.5C492.487 136.384 491.983 135.484 490.975 135.304C492.235 135.304 493.783 135.412 494.827 134.8V148.804C494.827 149.92 495.331 150.82 496.375 151H490.975C491.983 150.82 492.487 149.92 492.487 148.804V137.5ZM493.531 131.38C494.251 131.38 494.863 131.956 494.863 132.712C494.863 133.432 494.251 134.044 493.531 134.044C492.775 134.044 492.199 133.432 492.199 132.712C492.199 131.956 492.775 131.38 493.531 131.38ZM511.309 151H509.365C510.373 150.82 510.877 149.92 510.877 148.804V128.032C510.877 126.916 510.373 126.016 509.365 125.836H511.417H519.013C530.533 125.836 530.533 141.388 519.013 141.388H513.217V148.804C513.217 149.92 513.721 150.82 514.765 151H511.309ZM519.013 126.124H513.217V141.1H519.013C527.329 141.1 527.329 126.124 519.013 126.124ZM541.99 148.804V128.032C541.99 126.916 541.486 126.016 540.478 125.836H544.33L554.338 146.248V128.032C554.338 126.916 553.87 126.016 552.826 125.836H556.174C555.13 126.016 554.662 126.916 554.662 128.032V151H554.338L542.278 126.412V148.804C542.278 149.92 542.782 150.82 543.826 151H540.478C541.486 150.82 541.99 149.92 541.99 148.804ZM99.9104 195H97.9664C98.9744 194.82 99.4784 193.92 99.4784 192.804V172.032C99.4784 170.916 98.9744 170.016 97.9664 169.836H100.018H107.614C119.134 169.836 119.134 185.388 107.614 185.388H101.818V192.804C101.818 193.92 102.322 194.82 103.366 195H99.9104ZM107.614 170.124H101.818V185.1H107.614C115.93 185.1 115.93 170.124 107.614 170.124ZM129.804 195H127.608C126.24 195 125.952 193.992 125.952 192.84V191.976C125.016 194.316 122.928 195.252 120.768 195.252C113.424 195.252 113.568 188.052 119.4 186C122.028 185.1 125.844 185.352 125.88 182.364C125.268 177.216 119.148 178.044 119.148 182.364C119.148 183.048 117.996 183.084 118.284 181.968C119.688 176.784 128.292 177.108 128.292 183.336V192.804C128.292 193.92 128.796 194.82 129.804 195ZM125.952 190.716V183.408C125.124 185.568 121.848 185.928 119.904 187.008C115.512 189.492 117.456 195.972 122.748 194.532C124.44 194.1 125.916 192.588 125.952 190.716ZM132.768 181.5C132.768 180.384 132.264 179.484 131.256 179.304C132.516 179.304 134.064 179.412 135.108 178.8V181.716C136.044 179.304 138.06 178.584 139.896 178.584C141.732 178.584 143.352 179.7 143.64 181.86C144.576 179.34 146.628 178.584 148.5 178.584C150.516 178.584 152.316 179.988 152.316 182.652V192.804C152.316 193.92 152.82 194.82 153.828 195H148.428C149.472 194.82 149.976 193.92 149.976 192.804V182.436C149.976 177.864 143.748 178.836 143.712 182.904V192.804C143.712 193.92 144.216 194.82 145.26 195H139.824C140.868 194.82 141.372 193.92 141.372 192.804V182.436C141.372 177.864 135.18 178.836 135.108 182.904V192.804C135.108 193.92 135.612 194.82 136.656 195H131.256C132.264 194.82 132.768 193.92 132.768 192.804V181.5ZM155.196 195.036V195C156.204 194.82 156.708 193.92 156.708 192.804V172.536C156.708 171.42 156.204 170.52 155.196 170.304C156.456 170.304 158.004 170.412 159.048 169.836V181.824C159.984 179.484 162.072 178.584 164.556 178.584C172.728 178.584 173.196 195.252 164.232 195.252C162.072 195.252 159.984 194.316 159.048 191.976V193.056C159.012 193.992 158.76 195.036 157.392 195.036H155.196ZM159.048 183.12V190.716C159.084 192.984 161.28 194.712 163.404 194.676C169.92 194.568 169.596 179.592 163.476 179.196C161.28 179.088 159.084 180.852 159.048 183.12ZM187.249 195H185.053C183.685 195 183.397 193.992 183.397 192.84V191.976C182.461 194.316 180.373 195.252 178.213 195.252C170.869 195.252 171.013 188.052 176.845 186C179.473 185.1 183.289 185.352 183.325 182.364C182.713 177.216 176.593 178.044 176.593 182.364C176.593 183.048 175.441 183.084 175.729 181.968C177.133 176.784 185.737 177.108 185.737 183.336V192.804C185.737 193.92 186.241 194.82 187.249 195ZM183.397 190.716V183.408C182.569 185.568 179.293 185.928 177.349 187.008C172.957 189.492 174.901 195.972 180.193 194.532C181.885 194.1 183.361 192.588 183.397 190.716ZM190.213 181.5C190.213 180.384 189.709 179.484 188.701 179.304C189.961 179.304 191.509 179.412 192.553 178.8V181.644C193.345 179.736 195.325 178.584 197.161 178.548C198.385 178.548 199.573 179.088 200.257 180.24C200.941 181.572 199.105 182.004 198.925 180.672C198.709 177.324 192.553 178.908 192.553 183.012V192.804C192.553 193.92 193.057 194.82 194.101 195H188.701C189.709 194.82 190.213 193.92 190.213 192.804V181.5ZM214.003 195H211.807C210.439 195 210.151 193.992 210.151 192.84V191.976C209.215 194.316 207.127 195.252 204.967 195.252C197.623 195.252 197.767 188.052 203.599 186C206.227 185.1 210.043 185.352 210.079 182.364C209.467 177.216 203.347 178.044 203.347 182.364C203.347 183.048 202.195 183.084 202.483 181.968C203.887 176.784 212.491 177.108 212.491 183.336V192.804C212.491 193.92 212.995 194.82 214.003 195ZM210.151 190.716V183.408C209.323 185.568 206.047 185.928 204.103 187.008C199.711 189.492 201.655 195.972 206.947 194.532C208.639 194.1 210.115 192.588 210.151 190.716ZM232.715 169.368C229.619 174.084 229.655 190.176 232.715 195.036C232.823 195.18 232.679 195.36 232.571 195.216C226.127 187.98 226.199 176.352 232.571 169.188C232.679 169.044 232.823 169.224 232.715 169.368ZM250.984 192.804V182.652H239.104V192.804C239.104 193.92 239.608 194.82 240.652 195C238.852 195 237.052 195 235.252 195C236.26 194.82 236.764 193.92 236.764 192.804V172.032C236.764 170.916 236.26 170.016 235.252 169.836C237.052 169.836 238.852 169.836 240.652 169.836C239.608 170.016 239.104 170.916 239.104 172.032V182.328H250.984V172.032C250.984 170.916 250.516 170.016 249.472 169.836C251.272 169.836 253.072 169.836 254.872 169.836C253.828 170.016 253.36 170.916 253.36 172.032V192.804C253.36 193.92 253.828 194.82 254.872 195C253.072 195 251.272 195 249.472 195C250.516 194.82 250.984 193.92 250.984 192.804ZM257.381 195.036C260.405 190.176 260.477 174.084 257.381 169.368C257.273 169.224 257.381 169.044 257.489 169.188C263.897 176.352 263.933 187.98 257.489 195.216C257.381 195.36 257.273 195.18 257.381 195.036ZM266.614 192.156C267.406 192.156 268.054 192.804 268.054 193.596C268.054 194.604 266.938 195.828 265.714 196.044C266.038 195.792 266.074 195.396 265.858 195.072C265.642 194.64 265.21 194.136 265.21 193.596C265.21 192.804 265.822 192.156 266.614 192.156ZM283.391 195H281.447C282.455 194.82 282.959 193.92 282.959 192.804V172.032C282.959 170.916 282.455 170.016 281.447 169.836H283.499H291.095C302.615 169.836 302.615 185.388 291.095 185.388H285.299V192.804C285.299 193.92 285.803 194.82 286.847 195H283.391ZM291.095 170.124H285.299V185.1H291.095C299.411 185.1 299.411 170.124 291.095 170.124ZM316.541 195H314.489C312.941 195 312.725 194.1 312.689 193.128V192.012C311.753 194.352 309.665 195.252 307.181 195.252C304.625 195.252 302.285 193.848 302.285 190.572V181.032C302.285 179.916 301.781 179.016 300.773 178.8H306.173C305.129 179.016 304.625 179.916 304.625 181.032V190.824C304.625 196.584 312.581 195.396 312.689 190.716V181.032C312.689 179.916 312.185 179.016 311.141 178.8H316.541C315.533 179.016 315.029 179.916 315.029 181.032V192.804C315.029 193.92 315.533 194.82 316.541 195ZM319.481 172.536C319.481 171.42 318.977 170.52 317.969 170.304C319.229 170.304 320.777 170.412 321.821 169.836V192.804C321.821 193.92 322.325 194.82 323.369 195H317.969C318.977 194.82 319.481 193.92 319.481 192.804V172.536ZM326.301 181.5C326.301 180.384 325.797 179.484 324.789 179.304C326.049 179.304 327.597 179.412 328.641 178.8V181.86C329.577 179.52 331.665 178.584 333.825 178.584C342.285 178.584 342.321 195.252 334.149 195.252C331.665 195.252 329.577 194.352 328.641 192.012V200.076C328.641 201.192 329.145 202.092 330.189 202.272H324.789C325.797 202.092 326.301 201.192 326.301 200.076V181.5ZM328.641 183.12V190.716C328.677 192.984 330.873 194.748 333.069 194.604C339.189 194.244 339.549 179.268 332.997 179.124C330.873 179.088 328.677 180.852 328.641 183.12ZM356.632 195H354.436C353.068 195 352.78 193.992 352.78 192.84V191.976C351.844 194.316 349.756 195.252 347.596 195.252C340.252 195.252 340.396 188.052 346.228 186C348.856 185.1 352.672 185.352 352.708 182.364C352.096 177.216 345.976 178.044 345.976 182.364C345.976 183.048 344.824 183.084 345.112 181.968C346.516 176.784 355.12 177.108 355.12 183.336V192.804C355.12 193.92 355.624 194.82 356.632 195ZM352.78 190.716V183.408C351.952 185.568 348.676 185.928 346.732 187.008C342.34 189.492 344.284 195.972 349.576 194.532C351.268 194.1 352.744 192.588 352.78 190.716ZM359.524 173.04C359.524 171.924 359.02 171.024 358.012 170.844C359.272 170.844 360.82 170.952 361.864 170.34V192.804C361.864 193.92 362.368 194.82 363.412 195C361.612 195 359.812 195 358.012 195C359.02 194.82 359.524 193.92 359.524 192.804V173.04ZM364.492 195C365.5 194.82 366.004 193.92 366.004 192.804V172.536C366.004 171.42 365.5 170.52 364.492 170.304C365.788 170.304 367.3 170.412 368.344 169.836V192.804C368.344 193.92 368.848 194.82 369.892 195C368.092 195 366.292 195 364.492 195ZM379.693 192.372L384.805 180.996C385.273 179.844 384.913 179.016 383.905 178.8C385.057 178.8 386.245 178.8 387.397 178.8C386.389 178.98 385.741 179.556 385.237 180.636L378.937 194.748C378.145 196.584 377.065 199.32 374.545 199.32C373.321 199.32 372.133 198.816 371.449 197.628C370.765 196.332 372.601 195.864 372.781 197.232C372.853 198.384 373.645 199.032 374.617 199.032C376.705 199.032 377.857 196.764 378.541 195H378.505L372.313 180.816C371.845 179.664 371.269 179.016 370.261 178.8C372.061 178.8 373.861 178.8 375.661 178.8C374.617 179.016 374.257 179.844 374.761 180.96L379.693 192.372ZM401.41 195H399.466C400.474 194.82 400.978 193.92 400.978 192.804V172.032C400.978 170.916 400.474 170.016 399.466 169.836H401.518H409.114C420.634 169.836 420.634 185.388 409.114 185.388H403.318V192.804C403.318 193.92 403.822 194.82 404.866 195H401.41ZM409.114 170.124H403.318V185.1H409.114C417.43 185.1 417.43 170.124 409.114 170.124ZM443.432 169.512C450.56 169.512 456.32 175.308 456.32 182.436C456.32 189.528 450.56 195.324 443.432 195.324C436.304 195.324 430.544 189.528 430.544 182.436C430.544 175.308 436.304 169.512 443.432 169.512ZM443.432 169.836C436.232 169.836 432.884 175.848 432.884 182.436C432.884 188.988 436.232 195 443.432 195C450.596 195 453.98 188.988 453.98 182.436C453.98 175.848 450.596 169.836 443.432 169.836ZM458.356 192.156C459.148 192.156 459.796 192.804 459.796 193.596C459.796 194.604 458.68 195.828 457.456 196.044C457.78 195.792 457.816 195.396 457.6 195.072C457.384 194.64 456.952 194.136 456.952 193.596C456.952 192.804 457.564 192.156 458.356 192.156ZM225.279 239L216.495 215.96C216.135 214.952 215.271 214.016 214.263 213.836C216.135 213.836 218.043 213.836 219.915 213.836C218.943 214.016 218.547 214.88 218.799 215.816L226.467 235.796L232.443 219.488L231.111 215.96C230.751 214.952 229.887 214.016 228.843 213.836C230.751 213.836 232.623 213.836 234.531 213.836C233.523 214.016 233.163 214.88 233.415 215.816L241.047 235.796L248.355 215.924C248.679 214.988 248.283 214.016 247.275 213.836C248.463 213.836 249.687 213.836 250.911 213.836C249.867 214.016 249.039 214.916 248.679 215.888L240.147 239H239.859L232.587 219.884L225.567 239H225.279ZM262.765 239H260.569C259.201 239 258.913 237.992 258.913 236.84V235.976C257.977 238.316 255.889 239.252 253.729 239.252C246.385 239.252 246.529 232.052 252.361 230C254.989 229.1 258.805 229.352 258.841 226.364C258.229 221.216 252.109 222.044 252.109 226.364C252.109 227.048 250.957 227.084 251.245 225.968C252.649 220.784 261.253 221.108 261.253 227.336V236.804C261.253 237.92 261.757 238.82 262.765 239ZM258.913 234.716V227.408C258.085 229.568 254.809 229.928 252.865 231.008C248.473 233.492 250.417 239.972 255.709 238.532C257.401 238.1 258.877 236.588 258.913 234.716ZM271.377 236.372L276.489 224.996C276.957 223.844 276.597 223.016 275.589 222.8C276.741 222.8 277.929 222.8 279.081 222.8C278.073 222.98 277.425 223.556 276.921 224.636L270.621 238.748C269.829 240.584 268.749 243.32 266.229 243.32C265.005 243.32 263.817 242.816 263.133 241.628C262.449 240.332 264.285 239.864 264.465 241.232C264.537 242.384 265.329 243.032 266.301 243.032C268.389 243.032 269.541 240.764 270.225 239H270.189L263.997 224.816C263.529 223.664 262.953 223.016 261.945 222.8C263.745 222.8 265.545 222.8 267.345 222.8C266.301 223.016 265.941 223.844 266.445 224.96L271.377 236.372ZM291.98 239H289.784C288.416 239 288.128 237.992 288.128 236.84V235.976C287.192 238.316 285.104 239.252 282.944 239.252C275.6 239.252 275.744 232.052 281.576 230C284.204 229.1 288.02 229.352 288.056 226.364C287.444 221.216 281.324 222.044 281.324 226.364C281.324 227.048 280.172 227.084 280.46 225.968C281.864 220.784 290.468 221.108 290.468 227.336V236.804C290.468 237.92 290.972 238.82 291.98 239ZM288.128 234.716V227.408C287.3 229.568 284.024 229.928 282.08 231.008C277.688 233.492 279.632 239.972 284.924 238.532C286.616 238.1 288.092 236.588 288.128 234.716ZM294.944 225.5C294.944 224.384 294.44 223.484 293.432 223.304C294.692 223.304 296.24 223.412 297.284 222.8V225.824C298.22 223.484 300.308 222.584 302.792 222.584C305.348 222.584 307.688 223.988 307.688 227.264V236.804C307.688 237.92 308.192 238.82 309.2 239H303.8C304.844 238.82 305.348 237.92 305.348 236.804V227.012C305.348 221.252 297.392 222.44 297.284 227.12V236.804C297.284 237.92 297.788 238.82 298.832 239H293.432C294.44 238.82 294.944 237.92 294.944 236.804V225.5ZM325.167 239H322.971C321.603 239 321.315 237.992 321.315 236.84V235.976C320.379 238.316 318.291 239.252 316.131 239.252C308.787 239.252 308.931 232.052 314.763 230C317.391 229.1 321.207 229.352 321.243 226.364C320.631 221.216 314.511 222.044 314.511 226.364C314.511 227.048 313.359 227.084 313.647 225.968C315.051 220.784 323.655 221.108 323.655 227.336V236.804C323.655 237.92 324.159 238.82 325.167 239ZM321.315 234.716V227.408C320.487 229.568 317.211 229.928 315.267 231.008C310.875 233.492 312.819 239.972 318.111 238.532C319.803 238.1 321.279 236.588 321.315 234.716ZM342.392 239V239.036H340.196C338.792 239.036 338.54 237.992 338.504 237.056V235.976C337.568 238.316 335.48 239.252 333.32 239.252C324.391 239.252 324.823 222.584 333.032 222.584C335.48 222.584 337.568 223.484 338.504 225.824V216.536C338.504 215.42 338 214.52 336.992 214.304C338.288 214.304 339.8 214.412 340.844 213.836V236.804C340.844 237.92 341.348 238.82 342.392 239ZM338.504 234.716V227.12C338.468 224.852 336.271 223.088 334.112 223.196C327.956 223.592 327.632 238.568 334.184 238.676C336.271 238.712 338.468 236.984 338.504 234.716Z" fill="#8A5514"/>
<path d="M24.4906 342.692C21.8226 343.152 20.5346 345.452 20.5346 348.304V401.388C20.5346 404.24 21.8226 406.54 24.4906 407C19.8906 407 15.2906 407 10.6906 407C13.2666 406.54 14.5546 404.24 14.5546 401.388V348.304C14.5546 345.452 13.2666 343.152 10.6906 342.692C15.2906 342.692 19.8906 342.692 24.4906 342.692ZM32.6944 372.5C32.6944 369.648 31.4064 367.348 28.8304 366.888C32.0504 366.888 36.0064 367.164 38.6744 365.6V373.328C41.0664 367.348 46.4024 365.048 52.7504 365.048C59.2824 365.048 65.2624 368.636 65.2624 377.008V401.388C65.2624 404.24 66.5504 406.54 69.1264 407H55.3264C57.9944 406.54 59.2824 404.24 59.2824 401.388V376.364C59.2824 361.644 38.9504 364.68 38.6744 376.64V401.388C38.6744 404.24 39.9624 406.54 42.6304 407H28.8304C31.4064 406.54 32.6944 404.24 32.6944 401.388V372.5ZM113.071 407V407.092H107.459C103.871 407.092 103.227 404.424 103.135 402.032V399.272C100.743 405.252 95.4068 407.644 89.8868 407.644C67.0708 407.644 68.1748 365.048 89.1508 365.048C95.4068 365.048 100.743 367.348 103.135 373.328V349.592C103.135 346.74 101.847 344.44 99.2708 343.888C102.583 343.888 106.447 344.164 109.115 342.692V401.388C109.115 404.24 110.403 406.54 113.071 407ZM103.135 396.052V376.64C103.043 370.844 97.4308 366.336 91.9108 366.612C76.1788 367.624 75.3508 405.896 92.0948 406.172C97.4308 406.264 103.043 401.848 103.135 396.052ZM120.741 372.5C120.741 369.648 119.453 367.348 116.877 366.888C120.097 366.888 124.053 367.164 126.721 365.6V372.868C128.745 367.992 133.805 365.048 138.497 364.956C141.625 364.956 144.661 366.336 146.409 369.28C148.157 372.684 143.465 373.788 143.005 370.384C142.453 361.828 126.721 365.876 126.721 376.364V401.388C126.721 404.24 128.009 406.54 130.677 407H116.877C119.453 406.54 120.741 404.24 120.741 401.388V372.5ZM181.538 407H175.926C172.43 407 171.694 404.424 171.694 401.48V399.272C169.302 405.252 163.966 407.644 158.446 407.644C139.677 407.644 140.045 389.244 154.95 384C161.666 381.7 171.418 382.344 171.51 374.708C169.946 361.552 154.306 363.668 154.306 374.708C154.306 376.456 151.362 376.548 152.098 373.696C155.686 360.448 177.674 361.276 177.674 377.192V401.388C177.674 404.24 178.962 406.54 181.538 407ZM171.694 396.052V377.376C169.578 382.896 161.206 383.816 156.238 386.576C145.014 392.924 149.982 409.484 163.506 405.804C167.83 404.7 171.602 400.836 171.694 396.052ZM193.561 390.348V408.932C193.561 418.868 185.925 424.572 177.001 423.928C170.101 423.376 166.053 418.5 166.053 411.876C166.053 407.552 171.941 408.932 169.733 412.888C165.317 418.04 171.849 423.192 177.369 423.192C185.097 423.744 187.581 417.58 187.581 408.932V372.5C187.581 369.648 186.293 367.348 183.717 366.888C187.029 366.888 190.893 367.164 193.561 365.6V390.348ZM190.249 356.86C192.089 356.86 193.653 358.332 193.653 360.264C193.653 362.104 192.089 363.668 190.249 363.668C188.317 363.668 186.845 362.104 186.845 360.264C186.845 358.332 188.317 356.86 190.249 356.86ZM203.937 372.5C203.937 369.648 202.649 367.348 200.073 366.888C203.293 366.888 207.249 367.164 209.917 365.6V401.388C209.917 404.24 211.205 406.54 213.873 407H200.073C202.649 406.54 203.937 404.24 203.937 401.388V372.5ZM206.605 356.86C208.445 356.86 210.009 358.332 210.009 360.264C210.009 362.104 208.445 363.668 206.605 363.668C204.673 363.668 203.201 362.104 203.201 360.264C203.201 358.332 204.673 356.86 206.605 356.86ZM219.37 360.264V355.94C219.37 353.088 218.082 350.788 215.506 350.328C218.726 350.328 222.682 350.604 225.35 349.04V365.6H236.758V366.428H225.35V392.74C225.35 397.616 224.43 407 232.066 407C235.562 407 239.334 403.872 235.286 398.996C233.262 395.592 237.862 394.12 238.966 397.984C240.438 403.596 237.126 407.644 231.238 407.644C221.026 407.644 219.37 401.204 219.37 392.74V366.428H216.426V365.6H219.37V360.264ZM246.518 349.592C246.518 346.74 245.23 344.44 242.654 343.888C245.874 343.888 249.83 344.164 252.498 342.692V373.328C254.89 367.348 260.226 365.048 266.574 365.048C273.014 365.048 279.086 368.636 279.086 377.008V401.388C279.086 404.24 280.374 406.54 282.95 407C278.35 407 273.75 407 269.15 407C271.818 406.54 273.106 404.24 273.106 401.388V376.364C273.106 361.644 252.774 364.68 252.498 376.64V401.388C252.498 404.24 253.786 406.54 256.454 407H252.498C249.186 407 245.874 407 242.654 407C245.23 406.54 246.518 404.24 246.518 401.388V349.592ZM315.98 407C318.556 406.54 319.844 404.24 319.844 401.388V348.304C319.844 345.452 318.556 343.152 315.98 342.692C323.708 342.692 331.436 342.692 339.164 342.692C366.672 342.692 368.42 366.98 344.5 370.108C345.88 370.66 346.616 371.856 347.168 373.144L362.256 401.848C363.452 404.516 366.028 406.54 368.696 407H362.348C358.668 407 357.84 405.252 356.828 403.136L339.992 370.476C339.716 370.476 339.44 370.476 339.164 370.476H325.824V401.388C325.824 404.24 327.112 406.54 329.78 407C325.18 407 320.58 407 315.98 407ZM339.164 343.428H325.824V369.74H339.164C360.416 369.74 360.324 343.428 339.164 343.428ZM407.764 407H402.152C398.656 407 397.92 404.424 397.92 401.48V399.272C395.528 405.252 390.192 407.644 384.672 407.644C365.904 407.644 366.272 389.244 381.176 384C387.892 381.7 397.644 382.344 397.736 374.708C396.172 361.552 380.532 363.668 380.532 374.708C380.532 376.456 377.588 376.548 378.324 373.696C381.912 360.448 403.9 361.276 403.9 377.192V401.388C403.9 404.24 405.188 406.54 407.764 407ZM397.92 396.052V377.376C395.804 382.896 387.432 383.816 382.464 386.576C371.24 392.924 376.208 409.484 389.732 405.804C394.056 404.7 397.828 400.836 397.92 396.052ZM419.787 390.348V408.932C419.787 418.868 412.151 424.572 403.227 423.928C396.327 423.376 392.279 418.5 392.279 411.876C392.279 407.552 398.167 408.932 395.959 412.888C391.543 418.04 398.075 423.192 403.595 423.192C411.323 423.744 413.807 417.58 413.807 408.932V372.5C413.807 369.648 412.519 367.348 409.943 366.888C413.255 366.888 417.119 367.164 419.787 365.6V390.348ZM416.475 356.86C418.315 356.86 419.879 358.332 419.879 360.264C419.879 362.104 418.315 363.668 416.475 363.668C414.543 363.668 413.071 362.104 413.071 360.264C413.071 358.332 414.543 356.86 416.475 356.86ZM448.103 364.956C455.555 364.956 462.179 368.912 465.951 374.708L461.995 376.64L433.107 390.808C436.143 413.9 462.915 408.104 467.239 393.66L467.791 394.12C459.235 415.648 426.851 409.668 426.851 386.3C426.851 374.524 436.327 364.956 448.103 364.956ZM433.015 390.072L461.811 375.996C459.787 370.2 455.647 365.784 448.103 365.784C436.419 365.784 432.831 376.18 432.831 386.3C432.831 387.588 432.923 388.876 433.015 390.072ZM495.043 371.764C495.043 368.084 491.363 365.784 486.303 365.784C476.919 365.784 473.423 379.86 489.799 383.356C512.707 389.704 505.071 407 488.695 407.644C481.335 407.92 471.951 404.148 471.675 396.052C471.399 392.096 476.919 392.74 475.631 395.868C472.135 402.492 480.783 406.908 488.787 406.908C499.643 406.908 506.911 394.304 487.683 389.06C468.179 383.632 472.963 365.416 486.303 365.048C491.455 364.864 496.331 367.164 497.343 370.844C498.079 373.604 495.043 373.512 495.043 371.764ZM511.467 349.592C511.467 346.74 510.179 344.44 507.603 343.888C510.823 343.888 514.779 344.164 517.447 342.692V373.328C519.839 367.348 525.175 365.048 531.523 365.048C537.963 365.048 544.035 368.636 544.035 377.008V401.388C544.035 404.24 545.323 406.54 547.899 407C543.299 407 538.699 407 534.099 407C536.767 406.54 538.055 404.24 538.055 401.388V376.364C538.055 361.644 517.723 364.68 517.447 376.64V401.388C517.447 404.24 518.735 406.54 521.403 407H517.447C514.135 407 510.823 407 507.603 407C510.179 406.54 511.467 404.24 511.467 401.388V349.592Z" fill="#8A5514"/>
<path d="M51.1358 460.616C51.1358 458.384 48.9758 456.764 46.0598 456.836C40.5878 457.088 38.2118 466.16 47.7518 468.284C61.0718 472.1 56.9678 481.892 47.4638 482.324C43.1798 482.504 37.7078 480.164 37.5278 475.304C37.3838 472.928 40.5878 473.324 39.8678 475.196C37.7798 479.192 42.8198 482.216 47.4638 482C53.7638 481.748 58.3358 473.756 47.1038 470.552C35.7637 467.276 38.2838 456.764 46.0957 456.512C49.0478 456.44 51.8918 457.844 52.4678 460.04C52.9358 461.732 51.1358 461.696 51.1358 460.616ZM66.2555 456.836H68.6315L59.5595 482H57.2195L66.2555 456.836ZM78.7207 465.548C83.2928 465.548 87.0368 469.292 87.0368 473.9C87.0368 478.472 83.2928 482.216 78.7207 482.216C74.1128 482.216 70.4048 478.472 70.4048 473.9C70.4048 469.292 74.1128 465.548 78.7207 465.548ZM78.7207 465.872C74.1488 465.872 72.7448 469.94 72.7448 473.9C72.7448 477.824 74.1488 481.892 78.7207 481.892C83.2568 481.892 84.6968 477.824 84.6968 473.9C84.6968 469.94 83.2568 465.872 78.7207 465.872ZM113.644 460.616C113.644 458.384 111.484 456.764 108.568 456.836C103.096 457.088 100.72 466.16 110.26 468.284C123.58 472.1 119.476 481.892 109.972 482.324C105.688 482.504 100.216 480.164 100.036 475.304C99.8916 472.928 103.096 473.324 102.376 475.196C100.288 479.192 105.328 482.216 109.972 482C116.272 481.748 120.844 473.756 109.612 470.552C98.2716 467.276 100.792 456.764 108.604 456.512C111.556 456.44 114.4 457.844 114.976 460.04C115.444 461.732 113.644 461.696 113.644 460.616ZM121.518 468.5C121.518 467.384 121.014 466.484 120.006 466.304C121.266 466.304 122.814 466.412 123.858 465.8V468.716C124.794 466.304 126.81 465.584 128.646 465.584C130.482 465.584 132.102 466.7 132.39 468.86C133.326 466.34 135.378 465.584 137.25 465.584C139.266 465.584 141.066 466.988 141.066 469.652V479.804C141.066 480.92 141.57 481.82 142.578 482H137.178C138.222 481.82 138.726 480.92 138.726 479.804V469.436C138.726 464.864 132.498 465.836 132.462 469.904V479.804C132.462 480.92 132.966 481.82 134.01 482H128.574C129.618 481.82 130.122 480.92 130.122 479.804V469.436C130.122 464.864 123.93 465.836 123.858 469.904V479.804C123.858 480.92 124.362 481.82 125.406 482H120.006C121.014 481.82 121.518 480.92 121.518 479.804V468.5ZM144.503 463.712V462.02C144.503 460.904 143.999 460.004 142.991 459.824C144.251 459.824 145.799 459.932 146.843 459.32V465.8H151.307V466.124H146.843V476.42C146.843 478.328 146.483 482 149.471 482C150.839 482 152.315 480.776 150.731 478.868C149.939 477.536 151.739 476.96 152.171 478.472C152.747 480.668 151.451 482.252 149.147 482.252C145.151 482.252 144.503 479.732 144.503 476.42V466.124H143.351V465.8H144.503V463.712ZM165.185 482C166.193 481.82 166.697 480.92 166.697 479.804V459.032C166.697 457.916 166.193 457.016 165.185 456.836C168.209 456.836 171.233 456.836 174.257 456.836C185.021 456.836 185.705 466.34 176.345 467.564C176.885 467.78 177.173 468.248 177.389 468.752L183.293 479.984C183.761 481.028 184.769 481.82 185.813 482H183.329C181.889 482 181.565 481.316 181.169 480.488L174.581 467.708C174.473 467.708 174.365 467.708 174.257 467.708H169.037V479.804C169.037 480.92 169.541 481.82 170.585 482C168.785 482 166.985 482 165.185 482ZM174.257 457.124H169.037V467.42H174.257C182.573 467.42 182.537 457.124 174.257 457.124ZM205.383 479.804C205.383 480.92 205.887 481.82 206.895 482C205.095 482 203.295 482 201.495 482C202.539 481.82 203.007 480.92 203.007 479.804V474.008C203.799 472.208 204.483 470.408 205.383 469.004V479.804ZM211.899 482C212.907 481.82 213.411 480.92 213.411 479.804V470.012C213.447 466.16 209.847 465.404 207.435 466.772C202.683 469.436 203.115 481.82 194.079 482.18C189.759 482.36 185.331 479.336 185.331 473.9C185.331 469.328 189.039 465.584 193.647 465.584C196.563 465.584 199.155 467.096 200.631 469.4L199.083 470.156V470.12L187.779 475.664C188.355 480.128 191.199 481.856 194.151 481.748C199.227 481.604 201.243 477.284 203.007 473.216V468.5C203.007 467.384 202.539 466.484 201.495 466.304C202.791 466.304 204.339 466.412 205.383 465.8V468.464C205.923 467.636 206.535 466.952 207.255 466.484C208.227 465.836 209.487 465.584 210.855 465.584C213.411 465.584 215.787 466.988 215.787 470.264V479.804C215.787 480.92 216.255 481.82 217.299 482C215.499 482 213.699 482 211.899 482ZM187.671 473.9C187.671 474.44 187.707 474.908 187.743 475.376L199.011 469.868C198.219 467.6 196.599 465.872 193.647 465.872C189.075 465.872 187.671 469.976 187.671 473.9ZM220.237 468.5C220.237 467.384 219.733 466.484 218.725 466.304C219.985 466.304 221.533 466.412 222.577 465.8V479.804C222.577 480.92 223.081 481.82 224.125 482H218.725C219.733 481.82 220.237 480.92 220.237 479.804V468.5ZM221.281 462.38C222.001 462.38 222.613 462.956 222.613 463.712C222.613 464.432 222.001 465.044 221.281 465.044C220.525 465.044 219.949 464.432 219.949 463.712C219.949 462.956 220.525 462.38 221.281 462.38ZM237.115 482C238.123 481.82 238.627 480.92 238.627 479.804V459.032C238.627 457.916 238.123 457.016 237.115 456.836C240.139 456.836 243.163 456.836 246.187 456.836C256.951 456.836 257.635 466.34 248.275 467.564C248.815 467.78 249.103 468.248 249.319 468.752L255.223 479.984C255.691 481.028 256.699 481.82 257.743 482H255.259C253.819 482 253.495 481.316 253.099 480.488L246.511 467.708C246.403 467.708 246.295 467.708 246.187 467.708H240.967V479.804C240.967 480.92 241.471 481.82 242.515 482C240.715 482 238.915 482 237.115 482ZM246.187 457.124H240.967V467.42H246.187C254.503 467.42 254.467 457.124 246.187 457.124ZM273.03 482H270.834C269.466 482 269.178 480.992 269.178 479.84V478.976C268.242 481.316 266.154 482.252 263.994 482.252C256.65 482.252 256.794 475.052 262.626 473C265.254 472.1 269.07 472.352 269.106 469.364C268.494 464.216 262.374 465.044 262.374 469.364C262.374 470.048 261.222 470.084 261.51 468.968C262.914 463.784 271.518 464.108 271.518 470.336V479.804C271.518 480.92 272.022 481.82 273.03 482ZM269.178 477.716V470.408C268.35 472.568 265.074 472.928 263.13 474.008C258.738 476.492 260.682 482.972 265.974 481.532C267.666 481.1 269.142 479.588 269.178 477.716ZM277.735 475.484V482.756C277.735 486.644 274.747 488.876 271.255 488.624C268.555 488.408 266.971 486.5 266.971 483.908C266.971 482.216 269.275 482.756 268.411 484.304C266.683 486.32 269.239 488.336 271.399 488.336C274.423 488.552 275.395 486.14 275.395 482.756V468.5C275.395 467.384 274.891 466.484 273.883 466.304C275.179 466.304 276.691 466.412 277.735 465.8V475.484ZM276.439 462.38C277.159 462.38 277.771 462.956 277.771 463.712C277.771 464.432 277.159 465.044 276.439 465.044C275.683 465.044 275.107 464.432 275.107 463.712C275.107 462.956 275.683 462.38 276.439 462.38ZM288.815 465.548C291.731 465.548 294.323 467.096 295.799 469.364L294.251 470.12L282.947 475.664C284.135 484.7 294.611 482.432 296.303 476.78L296.519 476.96C293.171 485.384 280.499 483.044 280.499 473.9C280.499 469.292 284.207 465.548 288.815 465.548ZM282.911 475.376L294.179 469.868C293.387 467.6 291.767 465.872 288.815 465.872C284.243 465.872 282.839 469.94 282.839 473.9C282.839 474.404 282.875 474.908 282.911 475.376ZM307.183 468.212C307.183 466.772 305.743 465.872 303.763 465.872C300.091 465.872 298.723 471.38 305.131 472.748C314.095 475.232 311.107 482 304.699 482.252C301.819 482.36 298.147 480.884 298.039 477.716C297.931 476.168 300.091 476.42 299.587 477.644C298.219 480.236 301.603 481.964 304.735 481.964C308.983 481.964 311.827 477.032 304.303 474.98C296.671 472.856 298.543 465.728 303.763 465.584C305.779 465.512 307.687 466.412 308.083 467.852C308.371 468.932 307.183 468.896 307.183 468.212ZM313.61 459.536C313.61 458.42 313.106 457.52 312.098 457.304C313.358 457.304 314.906 457.412 315.95 456.836V468.824C316.886 466.484 318.974 465.584 321.458 465.584C323.978 465.584 326.354 466.988 326.354 470.264V479.804C326.354 480.92 326.858 481.82 327.866 482C326.066 482 324.266 482 322.466 482C323.51 481.82 324.014 480.92 324.014 479.804V470.012C324.014 464.252 316.058 465.44 315.95 470.12V479.804C315.95 480.92 316.454 481.82 317.498 482H315.95C314.654 482 313.358 482 312.098 482C313.106 481.82 313.61 480.92 313.61 479.804V459.536ZM349.107 482C339.927 481.856 339.927 473.792 344.643 472.064C343.347 470.192 342.087 467.996 342.231 465.584C342.411 462.56 344.787 460.22 347.919 460.22C350.475 460.22 352.275 461.12 352.743 463.64C352.995 464.936 351.627 464.972 351.663 463.856C351.699 461.66 350.007 460.472 348.063 460.472C346.335 460.472 344.643 461.48 344.175 463.136C342.735 467.996 350.547 477.608 353.679 479.804C354.435 478.94 355.047 477.464 354.687 475.772C354.507 474.836 355.731 474.584 355.947 475.592C356.163 476.312 356.019 478.544 354.147 480.128C355.335 480.884 356.703 481.82 358.035 481.856V482C356.631 481.964 355.119 481.244 353.679 480.524C352.311 481.568 350.943 482.036 349.107 482ZM349.107 481.676C350.835 481.712 352.203 481.172 353.211 480.272C350.079 478.508 347.091 475.412 345.003 472.568C342.303 474.656 343.347 481.568 349.107 481.676ZM370.814 482C371.822 481.82 372.326 480.92 372.326 479.804V459.032C372.326 457.916 371.822 457.016 370.814 456.836C373.838 456.836 376.862 456.836 379.886 456.836C390.65 456.836 391.334 466.34 381.974 467.564C382.514 467.78 382.802 468.248 383.018 468.752L388.922 479.984C389.39 481.028 390.398 481.82 391.442 482H388.958C387.518 482 387.194 481.316 386.798 480.488L380.21 467.708C380.102 467.708 379.994 467.708 379.886 467.708H374.666V479.804C374.666 480.92 375.17 481.82 376.214 482C374.414 482 372.614 482 370.814 482ZM379.886 457.124H374.666V467.42H379.886C388.202 467.42 388.166 457.124 379.886 457.124ZM406.73 482H404.534C403.166 482 402.878 480.992 402.878 479.84V478.976C401.942 481.316 399.854 482.252 397.694 482.252C390.35 482.252 390.494 475.052 396.326 473C398.954 472.1 402.77 472.352 402.806 469.364C402.194 464.216 396.074 465.044 396.074 469.364C396.074 470.048 394.922 470.084 395.21 468.968C396.614 463.784 405.218 464.108 405.218 470.336V479.804C405.218 480.92 405.722 481.82 406.73 482ZM402.878 477.716V470.408C402.05 472.568 398.774 472.928 396.83 474.008C392.438 476.492 394.382 482.972 399.674 481.532C401.366 481.1 402.842 479.588 402.878 477.716ZM411.434 475.484V482.756C411.434 486.644 408.446 488.876 404.954 488.624C402.254 488.408 400.67 486.5 400.67 483.908C400.67 482.216 402.974 482.756 402.11 484.304C400.382 486.32 402.938 488.336 405.098 488.336C408.122 488.552 409.094 486.14 409.094 482.756V468.5C409.094 467.384 408.59 466.484 407.582 466.304C408.878 466.304 410.39 466.412 411.434 465.8V475.484ZM410.138 462.38C410.858 462.38 411.47 462.956 411.47 463.712C411.47 464.432 410.858 465.044 410.138 465.044C409.382 465.044 408.806 464.432 408.806 463.712C408.806 462.956 409.382 462.38 410.138 462.38ZM422.515 465.548C425.431 465.548 428.023 467.096 429.499 469.364L427.951 470.12L416.647 475.664C417.835 484.7 428.311 482.432 430.003 476.78L430.219 476.96C426.871 485.384 414.199 483.044 414.199 473.9C414.199 469.292 417.907 465.548 422.515 465.548ZM416.611 475.376L427.879 469.868C427.087 467.6 425.467 465.872 422.515 465.872C417.943 465.872 416.539 469.94 416.539 473.9C416.539 474.404 416.575 474.908 416.611 475.376ZM440.882 468.212C440.882 466.772 439.442 465.872 437.462 465.872C433.79 465.872 432.422 471.38 438.83 472.748C447.794 475.232 444.806 482 438.398 482.252C435.518 482.36 431.846 480.884 431.738 477.716C431.63 476.168 433.79 476.42 433.286 477.644C431.918 480.236 435.302 481.964 438.434 481.964C442.682 481.964 445.526 477.032 438.002 474.98C430.37 472.856 432.242 465.728 437.462 465.584C439.478 465.512 441.386 466.412 441.782 467.852C442.07 468.932 440.882 468.896 440.882 468.212ZM447.309 459.536C447.309 458.42 446.805 457.52 445.797 457.304C447.057 457.304 448.605 457.412 449.649 456.836V468.824C450.585 466.484 452.673 465.584 455.157 465.584C457.677 465.584 460.053 466.988 460.053 470.264V479.804C460.053 480.92 460.557 481.82 461.565 482C459.765 482 457.965 482 456.165 482C457.209 481.82 457.713 480.92 457.713 479.804V470.012C457.713 464.252 449.757 465.44 449.649 470.12V479.804C449.649 480.92 450.153 481.82 451.197 482H449.649C448.353 482 447.057 482 445.797 482C446.805 481.82 447.309 480.92 447.309 479.804V459.536ZM488.026 456.836L488.386 459.824C488.386 460.076 488.422 460.22 488.422 460.22C488.17 459.14 486.766 457.124 484.606 457.124H478.342V466.448H481.51C483.13 466.448 483.778 465.512 483.994 464.468C483.994 465.908 483.994 467.312 483.994 468.716C483.778 467.672 483.13 466.736 481.51 466.736H478.342V481.712H484.606C486.766 481.712 488.17 479.732 488.422 478.616C488.422 478.616 488.386 478.76 488.386 479.012L488.026 482C483.49 482 478.99 482 474.49 482C475.498 481.82 476.002 480.92 476.002 479.804V459.032C476.002 457.916 475.498 457.016 474.49 456.836C475.75 456.836 486.73 456.836 488.026 456.836ZM510.713 482L501.929 458.96C501.569 457.952 500.705 457.016 499.697 456.836C501.569 456.836 503.477 456.836 505.349 456.836C504.377 457.016 503.981 457.88 504.233 458.816L511.901 478.796L519.209 458.924C519.533 457.988 519.137 457.016 518.093 456.836C519.317 456.836 520.505 456.836 521.729 456.836C520.721 457.016 519.857 457.916 519.497 458.888L511.001 482H510.713ZM70.1235 500.836L70.4835 503.824C70.4835 504.076 70.5195 504.22 70.5195 504.22C70.2675 503.14 68.8635 501.124 66.7035 501.124H60.4395V510.448H63.6075C65.2275 510.448 65.8755 509.512 66.0915 508.468C66.0915 509.908 66.0915 511.312 66.0915 512.716C65.8755 511.672 65.2275 510.736 63.6075 510.736H60.4395V525.712H66.7035C68.8635 525.712 70.2675 523.732 70.5195 522.616C70.5195 522.616 70.4835 522.76 70.4835 523.012L70.1235 526C65.5875 526 61.0875 526 56.5875 526C57.5955 525.82 58.0995 524.92 58.0995 523.804V503.032C58.0995 501.916 57.5955 501.016 56.5875 500.836C57.8475 500.836 68.8275 500.836 70.1235 500.836ZM87.7548 526V526.036H85.5588C84.1548 526.036 83.9028 524.992 83.8668 524.056V522.976C82.9308 525.316 80.8428 526.252 78.6828 526.252C69.7548 526.252 70.1868 509.584 78.3948 509.584C80.8428 509.584 82.9308 510.484 83.8668 512.824V503.536C83.8668 502.42 83.3628 501.52 82.3548 501.304C83.6508 501.304 85.1628 501.412 86.2068 500.836V523.804C86.2068 524.92 86.7108 525.82 87.7548 526ZM83.8668 521.716V514.12C83.8308 511.852 81.6348 510.088 79.4748 510.196C73.3188 510.592 72.9948 525.568 79.5468 525.676C81.6348 525.712 83.8308 523.984 83.8668 521.716ZM97.7403 509.548C102.312 509.548 106.056 513.292 106.056 517.9C106.056 522.472 102.312 526.216 97.7403 526.216C93.1323 526.216 89.4243 522.472 89.4243 517.9C89.4243 513.292 93.1323 509.548 97.7403 509.548ZM97.7403 509.872C93.1683 509.872 91.7643 513.94 91.7643 517.9C91.7643 521.824 93.1683 525.892 97.7403 525.892C102.276 525.892 103.716 521.824 103.716 517.9C103.716 513.94 102.276 509.872 97.7403 509.872ZM116.268 509.548C120.84 509.548 124.584 513.292 124.584 517.9C124.584 522.472 120.84 526.216 116.268 526.216C111.66 526.216 107.952 522.472 107.952 517.9C107.952 513.292 111.66 509.548 116.268 509.548ZM116.268 509.872C111.696 509.872 110.292 513.94 110.292 517.9C110.292 521.824 111.696 525.892 116.268 525.892C120.804 525.892 122.244 521.824 122.244 517.9C122.244 513.94 120.804 509.872 116.268 509.872ZM127.635 512.5C127.635 511.384 127.131 510.484 126.123 510.304C127.383 510.304 128.931 510.412 129.975 509.8V512.644C130.767 510.736 132.747 509.584 134.583 509.548C135.807 509.548 136.995 510.088 137.679 511.24C138.363 512.572 136.527 513.004 136.347 511.672C136.131 508.324 129.975 509.908 129.975 514.012V523.804C129.975 524.92 130.479 525.82 131.523 526H126.123C127.131 525.82 127.635 524.92 127.635 523.804V512.5ZM140.079 503.536C140.079 502.42 139.575 501.52 138.567 501.304C139.827 501.304 141.375 501.412 142.419 500.836V519.556L145.371 515.488L148.143 511.708C148.719 510.808 148.647 509.98 147.675 509.8C148.827 509.8 149.943 509.8 151.095 509.8C150.195 509.98 149.367 510.484 148.647 511.42L145.731 515.416C147.243 515.056 147.675 515.488 148.107 516.316L151.779 523.984C152.463 525.568 153.363 525.892 153.975 526H151.815C150.375 526 150.087 525.316 149.655 524.488L145.479 515.74L142.419 519.952V523.804C142.419 524.92 142.923 525.82 143.967 526H138.567C139.575 525.82 140.079 524.92 140.079 523.804V503.536ZM169.166 526H167.114C165.566 526 165.35 525.1 165.314 524.128V523.012C164.378 525.352 162.29 526.252 159.806 526.252C157.25 526.252 154.91 524.848 154.91 521.572V512.032C154.91 510.916 154.406 510.016 153.398 509.8H158.798C157.754 510.016 157.25 510.916 157.25 512.032V521.824C157.25 527.584 165.206 526.396 165.314 521.716V512.032C165.314 510.916 164.81 510.016 163.766 509.8H169.166C168.158 510.016 167.654 510.916 167.654 512.032V523.804C167.654 524.92 168.158 525.82 169.166 526ZM172.178 512.5C172.178 511.384 171.674 510.484 170.666 510.304C171.926 510.304 173.474 510.412 174.518 509.8V512.824C175.454 510.484 177.542 509.584 180.026 509.584C182.582 509.584 184.922 510.988 184.922 514.264V523.804C184.922 524.92 185.426 525.82 186.434 526H181.034C182.078 525.82 182.582 524.92 182.582 523.804V514.012C182.582 508.252 174.626 509.44 174.518 514.12V523.804C174.518 524.92 175.022 525.82 176.066 526H170.666C171.674 525.82 172.178 524.92 172.178 523.804V512.5ZM189.37 512.5C189.37 511.384 188.866 510.484 187.858 510.304C189.118 510.304 190.666 510.412 191.71 509.8V512.824C192.646 510.484 194.734 509.584 197.218 509.584C199.774 509.584 202.114 510.988 202.114 514.264V523.804C202.114 524.92 202.618 525.82 203.626 526H198.226C199.27 525.82 199.774 524.92 199.774 523.804V514.012C199.774 508.252 191.818 509.44 191.71 514.12V523.804C191.71 524.92 192.214 525.82 193.258 526H187.858C188.866 525.82 189.37 524.92 189.37 523.804V512.5ZM206.561 512.5C206.561 511.384 206.057 510.484 205.049 510.304C206.309 510.304 207.857 510.412 208.901 509.8V523.804C208.901 524.92 209.405 525.82 210.449 526H205.049C206.057 525.82 206.561 524.92 206.561 523.804V512.5ZM207.605 506.38C208.325 506.38 208.937 506.956 208.937 507.712C208.937 508.432 208.325 509.044 207.605 509.044C206.849 509.044 206.273 508.432 206.273 507.712C206.273 506.956 206.849 506.38 207.605 506.38ZM213.38 503.536C213.38 502.42 212.876 501.52 211.868 501.304C213.128 501.304 214.676 501.412 215.72 500.836V523.804C215.72 524.92 216.224 525.82 217.268 526H211.868C212.876 525.82 213.38 524.92 213.38 523.804V503.536ZM236.019 500.368C232.923 505.084 232.959 521.176 236.019 526.036C236.127 526.18 235.983 526.36 235.875 526.216C229.431 518.98 229.503 507.352 235.875 500.188C235.983 500.044 236.127 500.224 236.019 500.368ZM254.288 523.804V513.652H242.408V523.804C242.408 524.92 242.912 525.82 243.956 526C242.156 526 240.356 526 238.556 526C239.564 525.82 240.068 524.92 240.068 523.804V503.032C240.068 501.916 239.564 501.016 238.556 500.836C240.356 500.836 242.156 500.836 243.956 500.836C242.912 501.016 242.408 501.916 242.408 503.032V513.328H254.288V503.032C254.288 501.916 253.82 501.016 252.776 500.836C254.576 500.836 256.376 500.836 258.176 500.836C257.132 501.016 256.664 501.916 256.664 503.032V523.804C256.664 524.92 257.132 525.82 258.176 526C256.376 526 254.576 526 252.776 526C253.82 525.82 254.288 524.92 254.288 523.804ZM260.686 526.036C263.71 521.176 263.782 505.084 260.686 500.368C260.578 500.224 260.686 500.044 260.794 500.188C267.202 507.352 267.238 518.98 260.794 526.216C260.686 526.36 260.578 526.18 260.686 526.036ZM269.918 523.156C270.71 523.156 271.358 523.804 271.358 524.596C271.358 525.604 270.242 526.828 269.018 527.044C269.342 526.792 269.378 526.396 269.162 526.072C268.946 525.64 268.514 525.136 268.514 524.596C268.514 523.804 269.126 523.156 269.918 523.156ZM286.264 523.804V503.032C286.264 501.916 285.76 501.016 284.752 500.836H288.604L294.868 520.096L301.204 500.836H305.056C304.048 501.016 303.544 501.916 303.544 503.032V523.804C303.544 524.92 304.048 525.82 305.056 526H299.656C300.7 525.82 301.204 524.92 301.204 523.804V501.736L293.824 524.128L293.68 523.696L286.552 501.736V523.804C286.552 524.92 287.056 525.82 288.1 526H284.752C285.76 525.82 286.264 524.92 286.264 523.804ZM321.3 526H319.104C317.736 526 317.448 524.992 317.448 523.84V522.976C316.512 525.316 314.424 526.252 312.264 526.252C304.92 526.252 305.064 519.052 310.896 517C313.524 516.1 317.34 516.352 317.376 513.364C316.764 508.216 310.644 509.044 310.644 513.364C310.644 514.048 309.492 514.084 309.78 512.968C311.184 507.784 319.788 508.108 319.788 514.336V523.804C319.788 524.92 320.292 525.82 321.3 526ZM317.448 521.716V514.408C316.62 516.568 313.344 516.928 311.4 518.008C307.008 520.492 308.952 526.972 314.244 525.532C315.936 525.1 317.412 523.588 317.448 521.716ZM324.264 512.5C324.264 511.384 323.76 510.484 322.752 510.304C324.012 510.304 325.56 510.412 326.604 509.8V512.824C327.54 510.484 329.628 509.584 332.112 509.584C334.668 509.584 337.008 510.988 337.008 514.264V523.804C337.008 524.92 337.512 525.82 338.52 526H333.12C334.164 525.82 334.668 524.92 334.668 523.804V514.012C334.668 508.252 326.712 509.44 326.604 514.12V523.804C326.604 524.92 327.108 525.82 328.152 526H322.752C323.76 525.82 324.264 524.92 324.264 523.804V512.5ZM354.488 526H352.292C350.924 526 350.636 524.992 350.636 523.84V522.976C349.7 525.316 347.612 526.252 345.452 526.252C338.107 526.252 338.251 519.052 344.084 517C346.712 516.1 350.528 516.352 350.564 513.364C349.952 508.216 343.832 509.044 343.832 513.364C343.832 514.048 342.68 514.084 342.968 512.968C344.372 507.784 352.976 508.108 352.976 514.336V523.804C352.976 524.92 353.48 525.82 354.488 526ZM350.636 521.716V514.408C349.808 516.568 346.532 516.928 344.588 518.008C340.196 520.492 342.14 526.972 347.432 525.532C349.124 525.1 350.6 523.588 350.636 521.716ZM357.38 503.536C357.38 502.42 356.876 501.52 355.868 501.304C357.128 501.304 358.676 501.412 359.72 500.836V523.804C359.72 524.92 360.224 525.82 361.268 526H355.868C356.876 525.82 357.38 524.92 357.38 523.804V503.536ZM371.256 523.372L376.368 511.996C376.836 510.844 376.476 510.016 375.468 509.8C376.62 509.8 377.808 509.8 378.96 509.8C377.952 509.98 377.304 510.556 376.8 511.636L370.356 526H370.068L363.876 511.816C363.408 510.664 362.832 510.016 361.824 509.8C363.624 509.8 365.424 509.8 367.224 509.8C366.18 510.016 365.82 510.844 366.324 511.96L371.256 523.372ZM391.859 526H389.663C388.295 526 388.007 524.992 388.007 523.84V522.976C387.071 525.316 384.983 526.252 382.823 526.252C375.479 526.252 375.623 519.052 381.455 517C384.083 516.1 387.899 516.352 387.935 513.364C387.323 508.216 381.203 509.044 381.203 513.364C381.203 514.048 380.051 514.084 380.339 512.968C381.743 507.784 390.347 508.108 390.347 514.336V523.804C390.347 524.92 390.851 525.82 391.859 526ZM388.007 521.716V514.408C387.179 516.568 383.903 516.928 381.959 518.008C377.567 520.492 379.511 526.972 384.803 525.532C386.495 525.1 387.971 523.588 388.007 521.716ZM400.471 523.372L405.583 511.996C406.051 510.844 405.691 510.016 404.683 509.8C405.835 509.8 407.023 509.8 408.175 509.8C407.167 509.98 406.519 510.556 406.015 511.636L399.715 525.748C398.923 527.584 397.843 530.32 395.323 530.32C394.099 530.32 392.911 529.816 392.227 528.628C391.543 527.332 393.379 526.864 393.559 528.232C393.631 529.384 394.423 530.032 395.395 530.032C397.483 530.032 398.635 527.764 399.319 526H399.283L393.091 511.816C392.623 510.664 392.047 510.016 391.039 509.8C392.839 509.8 394.639 509.8 396.439 509.8C395.395 510.016 395.035 510.844 395.539 511.96L400.471 523.372ZM421.073 526H418.877C417.509 526 417.221 524.992 417.221 523.84V522.976C416.285 525.316 414.197 526.252 412.037 526.252C404.693 526.252 404.837 519.052 410.669 517C413.297 516.1 417.113 516.352 417.149 513.364C416.537 508.216 410.417 509.044 410.417 513.364C410.417 514.048 409.265 514.084 409.553 512.968C410.957 507.784 419.561 508.108 419.561 514.336V523.804C419.561 524.92 420.065 525.82 421.073 526ZM417.221 521.716V514.408C416.393 516.568 413.117 516.928 411.173 518.008C406.781 520.492 408.725 526.972 414.017 525.532C415.709 525.1 417.185 523.588 417.221 521.716ZM423.966 503.536C423.966 502.42 423.462 501.52 422.454 501.304C423.714 501.304 425.262 501.412 426.306 500.836V523.804C426.306 524.92 426.81 525.82 427.854 526H422.454C423.462 525.82 423.966 524.92 423.966 523.804V503.536ZM442.789 526H440.845C441.853 525.82 442.357 524.92 442.357 523.804V503.032C442.357 501.916 441.853 501.016 440.845 500.836H442.897H450.493C462.013 500.836 462.013 516.388 450.493 516.388H444.697V523.804C444.697 524.92 445.201 525.82 446.245 526H442.789ZM450.493 501.124H444.697V516.1H450.493C458.809 516.1 458.809 501.124 450.493 501.124ZM484.811 500.512C491.939 500.512 497.699 506.308 497.699 513.436C497.699 520.528 491.939 526.324 484.811 526.324C477.683 526.324 471.923 520.528 471.923 513.436C471.923 506.308 477.683 500.512 484.811 500.512ZM484.811 500.836C477.611 500.836 474.263 506.848 474.263 513.436C474.263 519.988 477.611 526 484.811 526C491.975 526 495.359 519.988 495.359 513.436C495.359 506.848 491.975 500.836 484.811 500.836ZM499.735 523.156C500.527 523.156 501.175 523.804 501.175 524.596C501.175 525.604 500.059 526.828 498.835 527.044C499.159 526.792 499.195 526.396 498.979 526.072C498.763 525.64 498.331 525.136 498.331 524.596C498.331 523.804 498.943 523.156 499.735 523.156ZM225.279 570L216.495 546.96C216.135 545.952 215.271 545.016 214.263 544.836C216.135 544.836 218.043 544.836 219.915 544.836C218.943 545.016 218.547 545.88 218.799 546.816L226.467 566.796L232.443 550.488L231.111 546.96C230.751 545.952 229.887 545.016 228.843 544.836C230.751 544.836 232.623 544.836 234.531 544.836C233.523 545.016 233.163 545.88 233.415 546.816L241.047 566.796L248.355 546.924C248.679 545.988 248.283 545.016 247.275 544.836C248.463 544.836 249.687 544.836 250.911 544.836C249.867 545.016 249.039 545.916 248.679 546.888L240.147 570H239.859L232.587 550.884L225.567 570H225.279ZM262.765 570H260.569C259.201 570 258.913 568.992 258.913 567.84V566.976C257.977 569.316 255.889 570.252 253.729 570.252C246.385 570.252 246.529 563.052 252.361 561C254.989 560.1 258.805 560.352 258.841 557.364C258.229 552.216 252.109 553.044 252.109 557.364C252.109 558.048 250.957 558.084 251.245 556.968C252.649 551.784 261.253 552.108 261.253 558.336V567.804C261.253 568.92 261.757 569.82 262.765 570ZM258.913 565.716V558.408C258.085 560.568 254.809 560.928 252.865 562.008C248.473 564.492 250.417 570.972 255.709 569.532C257.401 569.1 258.877 567.588 258.913 565.716ZM271.377 567.372L276.489 555.996C276.957 554.844 276.597 554.016 275.589 553.8C276.741 553.8 277.929 553.8 279.081 553.8C278.073 553.98 277.425 554.556 276.921 555.636L270.621 569.748C269.829 571.584 268.749 574.32 266.229 574.32C265.005 574.32 263.817 573.816 263.133 572.628C262.449 571.332 264.285 570.864 264.465 572.232C264.537 573.384 265.329 574.032 266.301 574.032C268.389 574.032 269.541 571.764 270.225 570H270.189L263.997 555.816C263.529 554.664 262.953 554.016 261.945 553.8C263.745 553.8 265.545 553.8 267.345 553.8C266.301 554.016 265.941 554.844 266.445 555.96L271.377 567.372ZM291.98 570H289.784C288.416 570 288.128 568.992 288.128 567.84V566.976C287.192 569.316 285.104 570.252 282.944 570.252C275.6 570.252 275.744 563.052 281.576 561C284.204 560.1 288.02 560.352 288.056 557.364C287.444 552.216 281.324 553.044 281.324 557.364C281.324 558.048 280.172 558.084 280.46 556.968C281.864 551.784 290.468 552.108 290.468 558.336V567.804C290.468 568.92 290.972 569.82 291.98 570ZM288.128 565.716V558.408C287.3 560.568 284.024 560.928 282.08 562.008C277.688 564.492 279.632 570.972 284.924 569.532C286.616 569.1 288.092 567.588 288.128 565.716ZM294.944 556.5C294.944 555.384 294.44 554.484 293.432 554.304C294.692 554.304 296.24 554.412 297.284 553.8V556.824C298.22 554.484 300.308 553.584 302.792 553.584C305.348 553.584 307.688 554.988 307.688 558.264V567.804C307.688 568.92 308.192 569.82 309.2 570H303.8C304.844 569.82 305.348 568.92 305.348 567.804V558.012C305.348 552.252 297.392 553.44 297.284 558.12V567.804C297.284 568.92 297.788 569.82 298.832 570H293.432C294.44 569.82 294.944 568.92 294.944 567.804V556.5ZM325.167 570H322.971C321.603 570 321.315 568.992 321.315 567.84V566.976C320.379 569.316 318.291 570.252 316.131 570.252C308.787 570.252 308.931 563.052 314.763 561C317.391 560.1 321.207 560.352 321.243 557.364C320.631 552.216 314.511 553.044 314.511 557.364C314.511 558.048 313.359 558.084 313.647 556.968C315.051 551.784 323.655 552.108 323.655 558.336V567.804C323.655 568.92 324.159 569.82 325.167 570ZM321.315 565.716V558.408C320.487 560.568 317.211 560.928 315.267 562.008C310.875 564.492 312.819 570.972 318.111 569.532C319.803 569.1 321.279 567.588 321.315 565.716ZM342.392 570V570.036H340.196C338.792 570.036 338.54 568.992 338.504 568.056V566.976C337.568 569.316 335.48 570.252 333.32 570.252C324.391 570.252 324.823 553.584 333.032 553.584C335.48 553.584 337.568 554.484 338.504 556.824V547.536C338.504 546.42 338 545.52 336.992 545.304C338.288 545.304 339.8 545.412 340.844 544.836V567.804C340.844 568.92 341.348 569.82 342.392 570ZM338.504 565.716V558.12C338.468 555.852 336.271 554.088 334.112 554.196C327.956 554.592 327.632 569.568 334.184 569.676C336.271 569.712 338.468 567.984 338.504 565.716Z" fill="#8A5514"/>
<path d="M116.451 678C117.459 677.82 117.963 676.92 117.963 675.804V655.032C117.963 653.916 117.459 653.016 116.451 652.836C118.935 652.836 121.419 652.836 123.939 652.836C131.823 652.836 133.227 659.82 128.043 662.232C138.807 662.88 138.555 678 127.287 678C123.687 678 120.051 678 116.451 678ZM127.359 662.484C126.387 662.844 125.271 663.024 123.939 663.024H120.303V677.712H127.287C135.603 677.712 135.603 662.556 127.359 662.484ZM123.939 653.124H120.303V662.736H123.939C130.239 662.736 130.383 653.124 123.939 653.124ZM145.827 661.548C148.743 661.548 151.335 663.096 152.811 665.364L151.263 666.12L139.959 671.664C141.147 680.7 151.623 678.432 153.315 672.78L153.531 672.96C150.183 681.384 137.511 679.044 137.511 669.9C137.511 665.292 141.219 661.548 145.827 661.548ZM139.923 671.376L151.191 665.868C150.399 663.6 148.779 661.872 145.827 661.872C141.255 661.872 139.851 665.94 139.851 669.9C139.851 670.404 139.887 670.908 139.923 671.376ZM164.195 664.212C164.195 662.772 162.755 661.872 160.775 661.872C157.103 661.872 155.735 667.38 162.143 668.748C171.107 671.232 168.119 678 161.711 678.252C158.831 678.36 155.159 676.884 155.051 673.716C154.943 672.168 157.103 672.42 156.599 673.644C155.231 676.236 158.615 677.964 161.747 677.964C165.995 677.964 168.839 673.032 161.315 670.98C153.683 668.856 155.555 661.728 160.775 661.584C162.791 661.512 164.699 662.412 165.095 663.852C165.383 664.932 164.195 664.896 164.195 664.212ZM170.37 659.712V658.02C170.37 656.904 169.866 656.004 168.858 655.824C170.118 655.824 171.666 655.932 172.71 655.32V661.8H177.174V662.124H172.71V672.42C172.71 674.328 172.35 678 175.338 678C176.706 678 178.182 676.776 176.598 674.868C175.806 673.536 177.606 672.96 178.038 674.472C178.614 676.668 177.318 678.252 175.014 678.252C171.018 678.252 170.37 675.732 170.37 672.42V662.124H169.218V661.8H170.37V659.712ZM203.436 652.512C206.316 652.512 211.212 654.168 211.752 657.66C212.004 659.388 210.24 659.136 210.384 658.092C210.42 654.384 206.064 652.836 203.436 652.836C196.236 652.836 193.428 658.848 193.428 665.436C193.428 680.772 210.096 679.908 212.184 672.78L212.364 672.888C210.024 681.672 191.088 680.196 191.088 665.436C191.088 658.308 196.308 652.512 203.436 652.512ZM222.186 661.548C226.758 661.548 230.502 665.292 230.502 669.9C230.502 674.472 226.758 678.216 222.186 678.216C217.578 678.216 213.87 674.472 213.87 669.9C213.87 665.292 217.578 661.548 222.186 661.548ZM222.186 661.872C217.614 661.872 216.21 665.94 216.21 669.9C216.21 673.824 217.614 677.892 222.186 677.892C226.722 677.892 228.162 673.824 228.162 669.9C228.162 665.94 226.722 661.872 222.186 661.872ZM233.553 664.5C233.553 663.384 233.049 662.484 232.041 662.304C233.301 662.304 234.849 662.412 235.893 661.8V664.716C236.829 662.304 238.845 661.584 240.681 661.584C242.517 661.584 244.137 662.7 244.425 664.86C245.361 662.34 247.413 661.584 249.285 661.584C251.301 661.584 253.101 662.988 253.101 665.652V675.804C253.101 676.92 253.605 677.82 254.613 678H249.213C250.257 677.82 250.761 676.92 250.761 675.804V665.436C250.761 660.864 244.533 661.836 244.497 665.904V675.804C244.497 676.92 245.001 677.82 246.045 678H240.609C241.653 677.82 242.157 676.92 242.157 675.804V665.436C242.157 660.864 235.965 661.836 235.893 665.904V675.804C235.893 676.92 236.397 677.82 237.441 678H232.041C233.049 677.82 233.553 676.92 233.553 675.804V664.5ZM257.493 664.5C257.493 663.384 256.989 662.484 255.981 662.304C257.241 662.304 258.789 662.412 259.833 661.8V664.86C260.769 662.52 262.857 661.584 265.017 661.584C273.477 661.584 273.513 678.252 265.341 678.252C262.857 678.252 260.769 677.352 259.833 675.012V683.076C259.833 684.192 260.337 685.092 261.381 685.272H255.981C256.989 685.092 257.493 684.192 257.493 683.076V664.5ZM259.833 666.12V673.716C259.869 675.984 262.065 677.748 264.261 677.604C270.381 677.244 270.741 662.268 264.189 662.124C262.065 662.088 259.869 663.852 259.833 666.12ZM274.544 655.536C274.544 654.42 274.04 653.52 273.032 653.304C274.292 653.304 275.84 653.412 276.884 652.836V675.804C276.884 676.92 277.388 677.82 278.432 678H273.032C274.04 677.82 274.544 676.92 274.544 675.804V655.536ZM281.436 664.5C281.436 663.384 280.932 662.484 279.924 662.304C281.184 662.304 282.732 662.412 283.776 661.8V675.804C283.776 676.92 284.28 677.82 285.324 678H279.924C280.932 677.82 281.436 676.92 281.436 675.804V664.5ZM282.48 658.38C283.2 658.38 283.812 658.956 283.812 659.712C283.812 660.432 283.2 661.044 282.48 661.044C281.724 661.044 281.148 660.432 281.148 659.712C281.148 658.956 281.724 658.38 282.48 658.38ZM288.327 664.5C288.327 663.384 287.823 662.484 286.815 662.304C288.075 662.304 289.623 662.412 290.667 661.8V664.716C291.603 662.304 293.619 661.584 295.455 661.584C297.291 661.584 298.911 662.7 299.199 664.86C300.135 662.34 302.187 661.584 304.059 661.584C306.075 661.584 307.875 662.988 307.875 665.652V675.804C307.875 676.92 308.379 677.82 309.387 678H303.987C305.031 677.82 305.535 676.92 305.535 675.804V665.436C305.535 660.864 299.307 661.836 299.271 665.904V675.804C299.271 676.92 299.775 677.82 300.819 678H295.383C296.427 677.82 296.931 676.92 296.931 675.804V665.436C296.931 660.864 290.739 661.836 290.667 665.904V675.804C290.667 676.92 291.171 677.82 292.215 678H286.815C287.823 677.82 288.327 676.92 288.327 675.804V664.5ZM331.094 675.804C331.094 676.92 331.598 677.82 332.606 678C330.806 678 329.006 678 327.206 678C328.25 677.82 328.718 676.92 328.718 675.804V670.008C329.51 668.208 330.194 666.408 331.094 665.004V675.804ZM337.61 678C338.618 677.82 339.122 676.92 339.122 675.804V666.012C339.158 662.16 335.558 661.404 333.146 662.772C328.394 665.436 328.826 677.82 319.79 678.18C315.47 678.36 311.042 675.336 311.042 669.9C311.042 665.328 314.75 661.584 319.358 661.584C322.274 661.584 324.866 663.096 326.342 665.4L324.794 666.156V666.12L313.49 671.664C314.066 676.128 316.91 677.856 319.862 677.748C324.938 677.604 326.954 673.284 328.718 669.216V664.5C328.718 663.384 328.25 662.484 327.206 662.304C328.502 662.304 330.05 662.412 331.094 661.8V664.464C331.634 663.636 332.246 662.952 332.966 662.484C333.938 661.836 335.198 661.584 336.566 661.584C339.122 661.584 341.498 662.988 341.498 666.264V675.804C341.498 676.92 341.966 677.82 343.01 678C341.21 678 339.41 678 337.61 678ZM313.382 669.9C313.382 670.44 313.418 670.908 313.454 671.376L324.722 665.868C323.93 663.6 322.31 661.872 319.358 661.872C314.786 661.872 313.382 665.976 313.382 669.9ZM344.921 659.712V658.02C344.921 656.904 344.417 656.004 343.409 655.824C344.669 655.824 346.217 655.932 347.261 655.32V661.8H351.725V662.124H347.261V672.42C347.261 674.328 346.901 678 349.889 678C351.257 678 352.733 676.776 351.149 674.868C350.357 673.536 352.157 672.96 352.589 674.472C353.165 676.668 351.869 678.252 349.565 678.252C345.569 678.252 344.921 675.732 344.921 672.42V662.124H343.769V661.8H344.921V659.712ZM363.32 664.212C363.32 662.772 361.88 661.872 359.9 661.872C356.228 661.872 354.86 667.38 361.268 668.748C370.232 671.232 367.244 678 360.836 678.252C357.956 678.36 354.284 676.884 354.176 673.716C354.068 672.168 356.228 672.42 355.724 673.644C354.356 676.236 357.74 677.964 360.872 677.964C365.12 677.964 367.964 673.032 360.44 670.98C352.808 668.856 354.68 661.728 359.9 661.584C361.916 661.512 363.824 662.412 364.22 663.852C364.508 664.932 363.32 664.896 363.32 664.212ZM381.138 675.804V662.124H380.238V661.8H381.138V659.964C381.138 656.292 383.946 654.564 386.538 654.636C388.734 654.708 390.786 656.148 390.786 658.452C390.786 660.144 388.446 659.604 389.346 658.056C390.246 656.508 388.518 654.96 386.682 655.032C385.098 655.068 383.478 656.22 383.478 659.1V661.8H387.006V662.124H383.478V675.804C383.478 676.92 383.982 677.82 385.026 678.036H379.626C380.634 677.82 381.138 676.92 381.138 675.804ZM389.401 664.5C389.401 663.384 388.897 662.484 387.889 662.304C389.149 662.304 390.697 662.412 391.741 661.8V664.644C392.533 662.736 394.513 661.584 396.349 661.548C397.573 661.548 398.761 662.088 399.445 663.24C400.129 664.572 398.293 665.004 398.113 663.672C397.897 660.324 391.741 661.908 391.741 666.012V675.804C391.741 676.92 392.245 677.82 393.289 678H387.889C388.897 677.82 389.401 676.92 389.401 675.804V664.5ZM408.338 661.548C412.91 661.548 416.654 665.292 416.654 669.9C416.654 674.472 412.91 678.216 408.338 678.216C403.73 678.216 400.022 674.472 400.022 669.9C400.022 665.292 403.73 661.548 408.338 661.548ZM408.338 661.872C403.766 661.872 402.362 665.94 402.362 669.9C402.362 673.824 403.766 677.892 408.338 677.892C412.874 677.892 414.314 673.824 414.314 669.9C414.314 665.94 412.874 661.872 408.338 661.872ZM419.706 664.5C419.706 663.384 419.202 662.484 418.194 662.304C419.454 662.304 421.002 662.412 422.046 661.8V664.716C422.982 662.304 424.998 661.584 426.834 661.584C428.67 661.584 430.29 662.7 430.578 664.86C431.514 662.34 433.566 661.584 435.438 661.584C437.454 661.584 439.254 662.988 439.254 665.652V675.804C439.254 676.92 439.758 677.82 440.766 678H435.366C436.41 677.82 436.914 676.92 436.914 675.804V665.436C436.914 660.864 430.686 661.836 430.65 665.904V675.804C430.65 676.92 431.154 677.82 432.198 678H426.762C427.806 677.82 428.31 676.92 428.31 675.804V665.436C428.31 660.864 422.118 661.836 422.046 665.904V675.804C422.046 676.92 422.55 677.82 423.594 678H418.194C419.202 677.82 419.706 676.92 419.706 675.804V664.5Z" fill="#A55F10"/>
<path d="M30.7238 750.072V722.376C30.7238 720.888 30.0518 719.688 28.7078 719.448H33.8438L42.1958 745.128L50.6438 719.448H55.7798C54.4358 719.688 53.7638 720.888 53.7638 722.376V750.072C53.7638 751.56 54.4358 752.76 55.7798 753H48.5798C49.9718 752.76 50.6438 751.56 50.6438 750.072V720.648L40.8038 750.504L40.6118 749.928L31.1078 720.648V750.072C31.1078 751.56 31.7798 752.76 33.1718 753H28.7078C30.0518 752.76 30.7238 751.56 30.7238 750.072ZM77.4391 753H74.5111C72.6871 753 72.3031 751.656 72.3031 750.12V748.968C71.0551 752.088 68.2711 753.336 65.3911 753.336C55.5991 753.336 55.7911 743.736 63.5671 741C67.0711 739.8 72.1591 740.136 72.2071 736.152C71.3911 729.288 63.2311 730.392 63.2311 736.152C63.2311 737.064 61.6951 737.112 62.0791 735.624C63.9511 728.712 75.4231 729.144 75.4231 737.448V750.072C75.4231 751.56 76.0951 752.76 77.4391 753ZM72.3031 747.288V737.544C71.1991 740.424 66.8311 740.904 64.2391 742.344C58.3831 745.656 60.9751 754.296 68.0311 752.376C70.2871 751.8 72.2551 749.784 72.3031 747.288ZM81.3912 735C81.3912 733.512 80.7192 732.312 79.3752 732.072C81.0552 732.072 83.1192 732.216 84.5112 731.4V735.432C85.7592 732.312 88.5432 731.112 91.8552 731.112C95.2632 731.112 98.3832 732.984 98.3832 737.352V750.072C98.3832 751.56 99.0552 752.76 100.399 753H93.1992C94.5912 752.76 95.2632 751.56 95.2632 750.072V737.016C95.2632 729.336 84.6552 730.92 84.5112 737.16V750.072C84.5112 751.56 85.1832 752.76 86.5752 753H79.3752C80.7192 752.76 81.3912 751.56 81.3912 750.072V735ZM121.906 753H119.17C117.106 753 116.818 751.8 116.77 750.504V749.016C115.522 752.136 112.738 753.336 109.426 753.336C106.018 753.336 102.898 751.464 102.898 747.096V734.376C102.898 732.888 102.226 731.688 100.882 731.4H108.082C106.69 731.688 106.018 732.888 106.018 734.376V747.432C106.018 755.112 116.626 753.528 116.77 747.288V734.376C116.77 732.888 116.098 731.688 114.706 731.4H121.906C120.562 731.688 119.89 732.888 119.89 734.376V750.072C119.89 751.56 120.562 752.76 121.906 753ZM157.095 724.488C157.095 721.512 154.215 719.352 150.327 719.448C143.031 719.784 139.863 731.88 152.583 734.712C170.343 739.8 164.871 752.856 152.199 753.432C146.487 753.672 139.191 750.552 138.951 744.072C138.759 740.904 143.031 741.432 142.071 743.928C139.287 749.256 146.007 753.288 152.199 753C160.599 752.664 166.695 742.008 151.719 737.736C136.599 733.368 139.959 719.352 150.375 719.016C154.311 718.92 158.103 720.792 158.871 723.72C159.495 725.976 157.095 725.928 157.095 724.488ZM184.97 753H182.042C180.218 753 179.834 751.656 179.834 750.12V748.968C178.586 752.088 175.802 753.336 172.922 753.336C163.13 753.336 163.322 743.736 171.098 741C174.602 739.8 179.69 740.136 179.738 736.152C178.922 729.288 170.762 730.392 170.762 736.152C170.762 737.064 169.226 737.112 169.61 735.624C171.482 728.712 182.954 729.144 182.954 737.448V750.072C182.954 751.56 183.626 752.76 184.97 753ZM179.834 747.288V737.544C178.73 740.424 174.362 740.904 171.77 742.344C165.914 745.656 168.506 754.296 175.562 752.376C177.818 751.8 179.786 749.784 179.834 747.288ZM191.243 744.312V754.008C191.243 759.192 187.259 762.168 182.603 761.832C179.003 761.544 176.891 759 176.891 755.544C176.891 753.288 179.963 754.008 178.811 756.072C176.507 758.76 179.915 761.448 182.795 761.448C186.827 761.736 188.123 758.52 188.123 754.008V735C188.123 733.512 187.451 732.312 186.107 732.072C187.835 732.072 189.851 732.216 191.243 731.4V744.312ZM189.515 726.84C190.475 726.84 191.291 727.608 191.291 728.616C191.291 729.576 190.475 730.392 189.515 730.392C188.507 730.392 187.739 729.576 187.739 728.616C187.739 727.608 188.507 726.84 189.515 726.84ZM196.657 735C196.657 733.512 195.985 732.312 194.641 732.072C196.321 732.072 198.385 732.216 199.777 731.4V750.072C199.777 751.56 200.449 752.76 201.841 753H194.641C195.985 752.76 196.657 751.56 196.657 750.072V735ZM198.049 726.84C199.009 726.84 199.825 727.608 199.825 728.616C199.825 729.576 199.009 730.392 198.049 730.392C197.041 730.392 196.273 729.576 196.273 728.616C196.273 727.608 197.041 726.84 198.049 726.84ZM206.18 749.208C207.236 749.208 208.1 750.072 208.1 751.128C208.1 752.472 206.612 754.104 204.98 754.392C205.412 754.056 205.46 753.528 205.172 753.096C204.884 752.52 204.308 751.848 204.308 751.128C204.308 750.072 205.124 749.208 206.18 749.208ZM242.422 719.016C246.262 719.016 252.79 721.224 253.51 725.88C253.846 728.184 251.494 727.848 251.686 726.456C251.734 721.512 245.926 719.448 242.422 719.448C232.822 719.448 229.078 727.464 229.078 736.248C229.078 744.984 234.406 753 242.374 753C246.982 753 251.638 750.072 251.734 743.544C251.782 743.4 251.782 742.008 251.782 741.624H247.27V741.192H254.662V741.624C254.662 742.008 254.614 743.448 254.614 743.64C254.614 750.648 248.326 753.432 242.374 753.432C232.918 753.432 225.958 745.752 225.958 736.248C225.958 726.744 232.918 719.016 242.422 719.016ZM276.236 753H273.308C271.484 753 271.1 751.656 271.1 750.12V748.968C269.852 752.088 267.068 753.336 264.188 753.336C254.396 753.336 254.588 743.736 262.364 741C265.868 739.8 270.956 740.136 271.004 736.152C270.188 729.288 262.028 730.392 262.028 736.152C262.028 737.064 260.492 737.112 260.876 735.624C262.748 728.712 274.22 729.144 274.22 737.448V750.072C274.22 751.56 274.892 752.76 276.236 753ZM271.1 747.288V737.544C269.996 740.424 265.628 740.904 263.036 742.344C257.18 745.656 259.772 754.296 266.828 752.376C269.084 751.8 271.052 749.784 271.1 747.288ZM287.719 749.496L294.535 734.328C295.159 732.792 294.679 731.688 293.335 731.4C294.871 731.4 296.455 731.4 297.991 731.4C296.647 731.64 295.783 732.408 295.111 733.848L286.711 752.664C285.655 755.112 284.215 758.76 280.855 758.76C279.223 758.76 277.639 758.088 276.727 756.504C275.815 754.776 278.263 754.152 278.503 755.976C278.599 757.512 279.655 758.376 280.951 758.376C283.735 758.376 285.271 755.352 286.183 753H286.135L277.879 734.088C277.255 732.552 276.487 731.688 275.143 731.4C277.543 731.4 279.943 731.4 282.343 731.4C280.951 731.688 280.471 732.792 281.143 734.28L287.719 749.496ZM315.189 753H312.261C310.437 753 310.053 751.656 310.053 750.12V748.968C308.805 752.088 306.021 753.336 303.141 753.336C293.349 753.336 293.541 743.736 301.317 741C304.821 739.8 309.909 740.136 309.957 736.152C309.141 729.288 300.981 730.392 300.981 736.152C300.981 737.064 299.445 737.112 299.829 735.624C301.701 728.712 313.173 729.144 313.173 737.448V750.072C313.173 751.56 313.845 752.76 315.189 753ZM310.053 747.288V737.544C308.949 740.424 304.581 740.904 301.989 742.344C296.133 745.656 298.725 754.296 305.781 752.376C308.037 751.8 310.005 749.784 310.053 747.288ZM317.772 728.616V726.36C317.772 724.872 317.1 723.672 315.756 723.432C317.436 723.432 319.5 723.576 320.892 722.76V731.4H326.844V731.832H320.892V745.56C320.892 748.104 320.412 753 324.396 753C326.22 753 328.188 751.368 326.076 748.824C325.02 747.048 327.42 746.28 327.996 748.296C328.764 751.224 327.036 753.336 323.964 753.336C318.636 753.336 317.772 749.976 317.772 745.56V731.832H316.236V731.4H317.772V728.616ZM331.936 723.048C331.936 721.56 331.264 720.36 329.92 720.072C331.6 720.072 333.664 720.216 335.056 719.448V735.432C336.304 732.312 339.088 731.112 342.4 731.112C345.76 731.112 348.928 732.984 348.928 737.352V750.072C348.928 751.56 349.6 752.76 350.944 753C348.544 753 346.144 753 343.744 753C345.136 752.76 345.808 751.56 345.808 750.072V737.016C345.808 729.336 335.2 730.92 335.056 737.16V750.072C335.056 751.56 335.728 752.76 337.12 753H335.056C333.328 753 331.6 753 329.92 753C331.264 752.76 331.936 751.56 331.936 750.072V723.048ZM354.86 735C354.86 733.512 354.188 732.312 352.844 732.072C354.524 732.072 356.588 732.216 357.98 731.4V735.192C359.036 732.648 361.676 731.112 364.124 731.064C365.756 731.064 367.34 731.784 368.252 733.32C369.164 735.096 366.716 735.672 366.476 733.896C366.188 729.432 357.98 731.544 357.98 737.016V750.072C357.98 751.56 358.652 752.76 360.044 753H352.844C354.188 752.76 354.86 751.56 354.86 750.072V735ZM381.234 749.496L388.05 734.328C388.674 732.792 388.194 731.688 386.85 731.4C388.386 731.4 389.97 731.4 391.506 731.4C390.162 731.64 389.298 732.408 388.626 733.848L380.226 752.664C379.17 755.112 377.73 758.76 374.37 758.76C372.738 758.76 371.154 758.088 370.242 756.504C369.33 754.776 371.778 754.152 372.018 755.976C372.114 757.512 373.17 758.376 374.466 758.376C377.25 758.376 378.786 755.352 379.698 753H379.65L371.394 734.088C370.77 732.552 370.002 731.688 368.658 731.4C371.058 731.4 373.458 731.4 375.858 731.4C374.466 731.688 373.986 732.792 374.658 734.28L381.234 749.496ZM407.598 753C408.942 752.76 409.614 751.56 409.614 750.072V722.376C409.614 720.888 408.942 719.688 407.598 719.448C411.63 719.448 415.662 719.448 419.694 719.448C434.046 719.448 434.958 732.12 422.478 733.752C423.198 734.04 423.582 734.664 423.87 735.336L431.742 750.312C432.366 751.704 433.71 752.76 435.102 753H431.79C429.87 753 429.438 752.088 428.91 750.984L420.126 733.944C419.982 733.944 419.838 733.944 419.694 733.944H412.734V750.072C412.734 751.56 413.406 752.76 414.798 753C412.398 753 409.998 753 407.598 753ZM419.694 719.832H412.734V733.56H419.694C430.782 733.56 430.734 719.832 419.694 719.832ZM455.486 753H452.558C450.734 753 450.35 751.656 450.35 750.12V748.968C449.102 752.088 446.318 753.336 443.438 753.336C433.646 753.336 433.838 743.736 441.614 741C445.118 739.8 450.206 740.136 450.254 736.152C449.438 729.288 441.278 730.392 441.278 736.152C441.278 737.064 439.742 737.112 440.126 735.624C441.998 728.712 453.47 729.144 453.47 737.448V750.072C453.47 751.56 454.142 752.76 455.486 753ZM450.35 747.288V737.544C449.246 740.424 444.878 740.904 442.286 742.344C436.43 745.656 439.022 754.296 446.078 752.376C448.334 751.8 450.302 749.784 450.35 747.288ZM461.759 744.312V754.008C461.759 759.192 457.775 762.168 453.119 761.832C449.519 761.544 447.407 759 447.407 755.544C447.407 753.288 450.479 754.008 449.327 756.072C447.023 758.76 450.431 761.448 453.311 761.448C457.343 761.736 458.639 758.52 458.639 754.008V735C458.639 733.512 457.967 732.312 456.623 732.072C458.351 732.072 460.367 732.216 461.759 731.4V744.312ZM460.031 726.84C460.991 726.84 461.807 727.608 461.807 728.616C461.807 729.576 460.991 730.392 460.031 730.392C459.023 730.392 458.255 729.576 458.255 728.616C458.255 727.608 459.023 726.84 460.031 726.84ZM476.532 731.064C480.42 731.064 483.876 733.128 485.844 736.152L483.78 737.16L468.708 744.552C470.292 756.6 484.26 753.576 486.516 746.04L486.804 746.28C482.34 757.512 465.444 754.392 465.444 742.2C465.444 736.056 470.388 731.064 476.532 731.064ZM468.66 744.168L483.684 736.824C482.628 733.8 480.468 731.496 476.532 731.496C470.436 731.496 468.564 736.92 468.564 742.2C468.564 742.872 468.612 743.544 468.66 744.168ZM501.023 734.616C501.023 732.696 499.103 731.496 496.463 731.496C491.567 731.496 489.743 738.84 498.287 740.664C510.239 743.976 506.255 753 497.711 753.336C493.871 753.48 488.975 751.512 488.831 747.288C488.687 745.224 491.567 745.56 490.895 747.192C489.071 750.648 493.583 752.952 497.759 752.952C503.423 752.952 507.215 746.376 497.183 743.64C487.007 740.808 489.503 731.304 496.463 731.112C499.151 731.016 501.695 732.216 502.223 734.136C502.607 735.576 501.023 735.528 501.023 734.616ZM509.592 723.048C509.592 721.56 508.92 720.36 507.576 720.072C509.256 720.072 511.32 720.216 512.712 719.448V735.432C513.96 732.312 516.744 731.112 520.056 731.112C523.416 731.112 526.584 732.984 526.584 737.352V750.072C526.584 751.56 527.256 752.76 528.6 753C526.2 753 523.8 753 521.4 753C522.792 752.76 523.464 751.56 523.464 750.072V737.016C523.464 729.336 512.856 730.92 512.712 737.16V750.072C512.712 751.56 513.384 752.76 514.776 753H512.712C510.984 753 509.256 753 507.576 753C508.92 752.76 509.592 751.56 509.592 750.072V723.048ZM159.634 807H156.706C154.882 807 154.498 805.656 154.498 804.12V802.968C153.25 806.088 150.466 807.336 147.586 807.336C137.794 807.336 137.986 797.736 145.762 795C149.266 793.8 154.354 794.136 154.402 790.152C153.586 783.288 145.426 784.392 145.426 790.152C145.426 791.064 143.89 791.112 144.274 789.624C146.146 782.712 157.618 783.144 157.618 791.448V804.072C157.618 805.56 158.29 806.76 159.634 807ZM154.498 801.288V791.544C153.394 794.424 149.026 794.904 146.434 796.344C140.578 799.656 143.17 808.296 150.226 806.376C152.482 805.8 154.45 803.784 154.498 801.288ZM163.587 789C163.587 787.512 162.915 786.312 161.571 786.072C163.251 786.072 165.315 786.216 166.707 785.4V789.432C167.955 786.312 170.739 785.112 174.051 785.112C177.459 785.112 180.579 786.984 180.579 791.352V804.072C180.579 805.56 181.251 806.76 182.595 807H175.395C176.787 806.76 177.459 805.56 177.459 804.072V791.016C177.459 783.336 166.851 784.92 166.707 791.16V804.072C166.707 805.56 167.379 806.76 168.771 807H161.571C162.915 806.76 163.587 805.56 163.587 804.072V789ZM205.522 807V807.048H202.594C200.722 807.048 200.386 805.656 200.338 804.408V802.968C199.09 806.088 196.306 807.336 193.426 807.336C181.522 807.336 182.098 785.112 193.042 785.112C196.306 785.112 199.09 786.312 200.338 789.432V777.048C200.338 775.56 199.666 774.36 198.322 774.072C200.05 774.072 202.066 774.216 203.458 773.448V804.072C203.458 805.56 204.13 806.76 205.522 807ZM200.338 801.288V791.16C200.29 788.136 197.362 785.784 194.482 785.928C186.274 786.456 185.842 806.424 194.578 806.568C197.362 806.616 200.29 804.312 200.338 801.288ZM233.977 785.064C240.073 785.064 245.065 790.056 245.065 796.2C245.065 802.296 240.073 807.288 233.977 807.288C227.833 807.288 222.889 802.296 222.889 796.2C222.889 790.056 227.833 785.064 233.977 785.064ZM233.977 785.496C227.881 785.496 226.009 790.92 226.009 796.2C226.009 801.432 227.881 806.856 233.977 806.856C240.025 806.856 241.945 801.432 241.945 796.2C241.945 790.92 240.025 785.496 233.977 785.496ZM267.992 807H265.256C263.192 807 262.904 805.8 262.856 804.504V803.016C261.608 806.136 258.824 807.336 255.512 807.336C252.104 807.336 248.984 805.464 248.984 801.096V788.376C248.984 786.888 248.312 785.688 246.968 785.4H254.168C252.776 785.688 252.104 786.888 252.104 788.376V801.432C252.104 809.112 262.712 807.528 262.856 801.288V788.376C262.856 786.888 262.184 785.688 260.792 785.4H267.992C266.648 785.688 265.976 786.888 265.976 788.376V804.072C265.976 805.56 266.648 806.76 267.992 807ZM272.008 789C272.008 787.512 271.336 786.312 269.992 786.072C271.672 786.072 273.736 786.216 275.128 785.4V789.192C276.184 786.648 278.824 785.112 281.272 785.064C282.904 785.064 284.488 785.784 285.4 787.32C286.312 789.096 283.864 789.672 283.624 787.896C283.336 783.432 275.128 785.544 275.128 791.016V804.072C275.128 805.56 275.8 806.76 277.192 807H269.992C271.336 806.76 272.008 805.56 272.008 804.072V789ZM304.164 804.072V785.832H302.964V785.4H304.164V782.952C304.164 778.056 307.908 775.752 311.364 775.848C314.292 775.944 317.028 777.864 317.028 780.936C317.028 783.192 313.908 782.472 315.108 780.408C316.308 778.344 314.004 776.28 311.556 776.376C309.444 776.424 307.284 777.96 307.284 781.8V785.4H311.988V785.832H307.284V804.072C307.284 805.56 307.956 806.76 309.348 807.048H302.148C303.492 806.76 304.164 805.56 304.164 804.072ZM315.18 789C315.18 787.512 314.508 786.312 313.164 786.072C314.844 786.072 316.908 786.216 318.3 785.4V789.192C319.836 785.208 324.828 778.872 327.516 781.128C327.948 781.464 328.284 781.992 328.284 782.616C328.284 783.576 327.468 784.392 326.508 784.392C325.5 784.392 324.732 783.576 324.732 782.616C324.732 782.184 324.876 781.8 325.116 781.464C322.86 782.04 318.3 787.944 318.3 791.352V804.072C318.3 805.56 318.972 806.76 320.364 807H313.164C314.508 806.76 315.18 805.56 315.18 804.072V789ZM330.3 807H323.1C324.444 806.76 325.116 805.56 325.116 804.072V789C325.116 787.512 324.444 786.312 323.1 786.072C324.828 786.072 326.844 786.216 328.236 785.4V804.072C328.236 805.56 328.908 806.76 330.3 807ZM359.313 804.072C359.313 805.56 359.985 806.76 361.329 807C358.929 807 356.529 807 354.129 807C355.521 806.76 356.145 805.56 356.145 804.072V796.344C357.201 793.944 358.113 791.544 359.313 789.672V804.072ZM368.001 807C369.345 806.76 370.017 805.56 370.017 804.072V791.016C370.065 785.88 365.265 784.872 362.049 786.696C355.713 790.248 356.289 806.76 344.241 807.24C338.481 807.48 332.577 803.448 332.577 796.2C332.577 790.104 337.521 785.112 343.665 785.112C347.553 785.112 351.009 787.128 352.977 790.2L350.913 791.208V791.16L335.841 798.552C336.609 804.504 340.401 806.808 344.337 806.664C351.105 806.472 353.793 800.712 356.145 795.288V789C356.145 787.512 355.521 786.312 354.129 786.072C355.857 786.072 357.921 786.216 359.313 785.4V788.952C360.033 787.848 360.849 786.936 361.809 786.312C363.105 785.448 364.785 785.112 366.609 785.112C370.017 785.112 373.185 786.984 373.185 791.352V804.072C373.185 805.56 373.809 806.76 375.201 807C372.801 807 370.401 807 368.001 807ZM335.697 796.2C335.697 796.92 335.745 797.544 335.793 798.168L350.817 790.824C349.761 787.8 347.601 785.496 343.665 785.496C337.569 785.496 335.697 790.968 335.697 796.2ZM398.131 807V807.048H395.203C393.331 807.048 392.995 805.656 392.947 804.408V802.968C391.699 806.088 388.915 807.336 386.035 807.336C374.131 807.336 374.707 785.112 385.651 785.112C388.915 785.112 391.699 786.312 392.947 789.432V777.048C392.947 775.56 392.275 774.36 390.931 774.072C392.659 774.072 394.675 774.216 396.067 773.448V804.072C396.067 805.56 396.739 806.76 398.131 807ZM392.947 801.288V791.16C392.899 788.136 389.971 785.784 387.091 785.928C378.883 786.456 378.451 806.424 387.187 806.568C389.971 806.616 392.899 804.312 392.947 801.288ZM412.124 788.616C412.124 786.696 410.204 785.496 407.564 785.496C402.668 785.496 400.844 792.84 409.388 794.664C421.34 797.976 417.356 807 408.812 807.336C404.972 807.48 400.076 805.512 399.932 801.288C399.788 799.224 402.668 799.56 401.996 801.192C400.172 804.648 404.684 806.952 408.86 806.952C414.524 806.952 418.316 800.376 408.284 797.64C398.108 794.808 400.604 785.304 407.564 785.112C410.252 785.016 412.796 786.216 413.324 788.136C413.708 789.576 412.124 789.528 412.124 788.616Z" fill="#A55F10"/>
</svg>
