<svg width="823" height="767" viewBox="0 0 823 767" fill="none" xmlns="http://www.w3.org/2000/svg">
<path d="M130.808 55L113.24 8.92C112.52 6.904 110.792 5.032 108.776 4.672C112.52 4.672 116.336 4.672 120.08 4.672C118.136 5.032 117.344 6.76 117.848 8.632L133.184 48.592L145.136 15.976L142.472 8.92C141.752 6.904 140.024 5.032 137.936 4.672C141.752 4.672 145.496 4.672 149.312 4.672C147.296 5.032 146.576 6.76 147.08 8.632L162.344 48.592L176.96 8.848C177.608 6.976 176.816 5.032 174.8 4.672C177.176 4.672 179.624 4.672 182.072 4.672C179.984 5.032 178.328 6.832 177.608 8.776L160.544 55H159.968L145.424 16.768L131.384 55H130.808ZM194.107 22.096C199.939 22.096 205.123 25.192 208.075 29.728L204.979 31.24L182.371 42.328C184.747 60.4 205.699 55.864 209.083 44.56L209.515 44.92C202.819 61.768 177.475 57.088 177.475 38.8C177.475 29.584 184.891 22.096 194.107 22.096ZM182.299 41.752L204.835 30.736C203.251 26.2 200.011 22.744 194.107 22.744C184.963 22.744 182.155 30.88 182.155 38.8C182.155 39.808 182.227 40.816 182.299 41.752ZM216.082 4.672C217.666 4.672 218.962 5.896 218.962 7.48C218.962 9.568 216.73 12.016 214.282 12.448C214.93 11.944 215.002 11.08 214.57 10.432C214.138 9.568 213.274 8.632 213.274 7.48C213.202 5.896 214.498 4.672 216.082 4.672ZM225.981 28C225.981 25.768 224.973 23.968 222.957 23.608C225.477 23.608 228.573 23.824 230.661 22.6V28.288C232.245 24.472 236.205 22.168 239.877 22.096C242.325 22.096 244.701 23.176 246.069 25.48C247.437 28.144 243.765 29.008 243.405 26.344C242.973 19.648 230.661 22.816 230.661 31.024V50.608C230.661 52.84 231.669 54.64 233.757 55H222.957C224.973 54.64 225.981 52.84 225.981 50.608V28ZM263.927 22.096C269.759 22.096 274.943 25.192 277.895 29.728L274.799 31.24L252.191 42.328C254.567 60.4 275.519 55.864 278.903 44.56L279.335 44.92C272.639 61.768 247.295 57.088 247.295 38.8C247.295 29.584 254.711 22.096 263.927 22.096ZM252.119 41.752L274.655 30.736C273.071 26.2 269.831 22.744 263.927 22.744C254.783 22.744 251.975 30.88 251.975 38.8C251.975 39.808 252.047 40.816 252.119 41.752ZM320.133 22.096C320.997 22.096 321.861 22.168 322.653 22.312V22.384C322.941 22.384 323.157 22.456 323.445 22.528C326.109 22.888 328.557 21.88 328.701 19C329.061 16.264 332.733 17.128 331.365 19.792C330.069 22.024 327.909 23.032 325.533 23.176C330.933 25.336 334.677 30.592 334.677 36.712C334.677 44.776 328.197 51.256 320.133 51.256C318.261 51.256 316.533 50.968 314.949 50.32H314.877C311.493 50.32 308.541 51.688 307.317 53.488C304.581 57.376 308.253 65.944 318.333 55.576C331.653 42.976 339.789 59.104 330.573 67.744C328.053 70.12 324.525 71.632 320.709 71.92C316.029 72.28 310.773 70.696 306.525 66.304C304.653 64.288 307.461 62.2 308.397 64.648C310.701 70.336 316.101 71.848 320.637 71.488C324.309 71.2 327.837 69.472 330.285 67.24C337.629 60.4 330.789 49.888 320.781 59.392C309.333 70.192 302.421 58.744 306.957 53.056C308.253 51.328 310.701 50.104 313.869 49.888C308.973 47.512 305.589 42.544 305.589 36.712C305.589 28.648 312.069 22.096 320.133 22.096ZM320.133 22.672C306.669 22.672 306.381 50.752 320.133 50.752C333.741 50.752 333.741 22.672 320.133 22.672ZM355.404 22.096C361.236 22.096 366.42 25.192 369.372 29.728L366.276 31.24L343.668 42.328C346.044 60.4 366.996 55.864 370.38 44.56L370.812 44.92C364.116 61.768 338.772 57.088 338.772 38.8C338.772 29.584 346.188 22.096 355.404 22.096ZM343.596 41.752L366.132 30.736C364.548 26.2 361.308 22.744 355.404 22.744C346.26 22.744 343.452 30.88 343.452 38.8C343.452 39.808 343.524 40.816 343.596 41.752ZM375.731 18.424V16.336C375.731 14.104 374.723 12.304 372.707 11.944C375.227 11.944 378.323 12.16 380.411 10.936V22.6H387.323V15.04C387.323 12.808 386.387 11.008 384.299 10.648C386.891 10.648 389.987 10.864 392.075 9.64V22.6H401.003V23.248H392.075V43.84C392.075 47.656 391.355 55 397.259 55C400.067 55 402.947 52.552 399.779 48.736C398.267 46.072 401.867 44.92 402.659 47.944C403.883 52.336 401.291 55.504 396.611 55.504C393.587 55.504 391.499 54.784 390.131 53.488C389.051 54.784 387.251 55.504 385.019 55.504C377.027 55.504 375.731 50.464 375.731 43.84V23.248H373.427V22.6H375.731V18.424ZM385.667 55C387.251 55 388.979 54.208 389.411 52.696C387.755 50.608 387.323 47.44 387.323 43.84V23.248H380.411V43.84C380.411 47.656 379.691 55 385.667 55ZM408.723 28C408.723 25.768 407.715 23.968 405.699 23.608C408.219 23.608 411.315 23.824 413.403 22.6V50.608C413.403 52.84 414.411 54.64 416.499 55H405.699C407.715 54.64 408.723 52.84 408.723 50.608V28ZM410.811 15.76C412.251 15.76 413.475 16.912 413.475 18.424C413.475 19.864 412.251 21.088 410.811 21.088C409.299 21.088 408.147 19.864 408.147 18.424C408.147 16.912 409.299 15.76 410.811 15.76ZM422.504 28C422.504 25.768 421.496 23.968 419.48 23.608C422 23.608 425.096 23.824 427.184 22.6V28.648C429.056 23.968 433.232 22.168 438.2 22.168C443.312 22.168 447.992 24.976 447.992 31.528V50.608C447.992 52.84 449 54.64 451.016 55H440.216C442.304 54.64 443.312 52.84 443.312 50.608V31.024C443.312 19.504 427.4 21.88 427.184 31.24V50.608C427.184 52.84 428.192 54.64 430.28 55H419.48C421.496 54.64 422.504 52.84 422.504 50.608V28ZM469.055 22.096C469.919 22.096 470.783 22.168 471.575 22.312V22.384C471.863 22.384 472.079 22.456 472.367 22.528C475.031 22.888 477.479 21.88 477.623 19C477.983 16.264 481.655 17.128 480.287 19.792C478.991 22.024 476.831 23.032 474.455 23.176C479.855 25.336 483.599 30.592 483.599 36.712C483.599 44.776 477.119 51.256 469.055 51.256C467.183 51.256 465.455 50.968 463.871 50.32H463.799C460.415 50.32 457.463 51.688 456.239 53.488C453.503 57.376 457.175 65.944 467.255 55.576C480.575 42.976 488.711 59.104 479.495 67.744C476.975 70.12 473.447 71.632 469.631 71.92C464.951 72.28 459.695 70.696 455.447 66.304C453.575 64.288 456.383 62.2 457.319 64.648C459.623 70.336 465.023 71.848 469.559 71.488C473.231 71.2 476.759 69.472 479.207 67.24C486.551 60.4 479.711 49.888 469.703 59.392C458.255 70.192 451.343 58.744 455.879 53.056C457.175 51.328 459.623 50.104 462.791 49.888C457.895 47.512 454.511 42.544 454.511 36.712C454.511 28.648 460.991 22.096 469.055 22.096ZM469.055 22.672C455.591 22.672 455.303 50.752 469.055 50.752C482.663 50.752 482.663 22.672 469.055 22.672ZM512.996 28C512.996 25.768 511.988 23.968 509.972 23.608C512.492 23.608 515.588 23.824 517.676 22.6V28.432C519.548 23.608 523.58 22.168 527.252 22.168C530.924 22.168 534.164 24.4 534.74 28.72C536.612 23.68 540.716 22.168 544.46 22.168C548.492 22.168 552.092 24.976 552.092 30.304V50.608C552.092 52.84 553.1 54.64 555.116 55H544.316C546.404 54.64 547.412 52.84 547.412 50.608V29.872C547.412 20.728 534.956 22.672 534.884 30.808V50.608C534.884 52.84 535.892 54.64 537.98 55H527.108C529.196 54.64 530.204 52.84 530.204 50.608V29.872C530.204 20.728 517.82 22.672 517.676 30.808V50.608C517.676 52.84 518.684 54.64 520.772 55H509.972C511.988 54.64 512.996 52.84 512.996 50.608V28ZM587.084 55H582.692C579.956 55 579.38 52.984 579.38 50.68V48.952C577.508 53.632 573.332 55.504 569.012 55.504C554.324 55.504 554.612 41.104 566.276 37C571.532 35.2 579.164 35.704 579.236 29.728C578.012 19.432 565.772 21.088 565.772 29.728C565.772 31.096 563.468 31.168 564.044 28.936C566.852 18.568 584.06 19.216 584.06 31.672V50.608C584.06 52.84 585.068 54.64 587.084 55ZM579.38 46.432V31.816C577.724 36.136 571.172 36.856 567.284 39.016C558.5 43.984 562.388 56.944 572.972 54.064C576.356 53.2 579.308 50.176 579.38 46.432ZM593.012 28C593.012 25.768 592.004 23.968 589.988 23.608C592.508 23.608 595.604 23.824 597.692 22.6V28.288C599.276 24.472 603.236 22.168 606.908 22.096C609.356 22.096 611.732 23.176 613.1 25.48C614.468 28.144 610.796 29.008 610.436 26.344C610.004 19.648 597.692 22.816 597.692 31.024V50.608C597.692 52.84 598.7 54.64 600.788 55H589.988C592.004 54.64 593.012 52.84 593.012 50.608V28ZM618.606 28C618.606 25.768 617.598 23.968 615.582 23.608C618.102 23.608 621.198 23.824 623.286 22.6V28.288C625.59 22.312 633.078 12.808 637.11 16.192C637.758 16.696 638.262 17.488 638.262 18.424C638.262 19.864 637.038 21.088 635.598 21.088C634.086 21.088 632.934 19.864 632.934 18.424C632.934 17.776 633.15 17.2 633.51 16.696C630.126 17.56 623.286 26.416 623.286 31.528V50.608C623.286 52.84 624.294 54.64 626.382 55H615.582C617.598 54.64 618.606 52.84 618.606 50.608V28ZM641.286 55H630.486C632.502 54.64 633.51 52.84 633.51 50.608V28C633.51 25.768 632.502 23.968 630.486 23.608C633.078 23.608 636.102 23.824 638.19 22.6V50.608C638.19 52.84 639.198 54.64 641.286 55ZM661.333 22.096C667.165 22.096 672.349 25.192 675.301 29.728L672.205 31.24L649.597 42.328C651.973 60.4 672.925 55.864 676.309 44.56L676.741 44.92C670.045 61.768 644.701 57.088 644.701 38.8C644.701 29.584 652.117 22.096 661.333 22.096ZM649.525 41.752L672.061 30.736C670.477 26.2 667.237 22.744 661.333 22.744C652.189 22.744 649.381 30.88 649.381 38.8C649.381 39.808 649.453 40.816 649.525 41.752ZM711.533 55V55.072H707.141C704.333 55.072 703.829 52.984 703.757 51.112V48.952C701.885 53.632 697.709 55.504 693.389 55.504C675.533 55.504 676.397 22.168 692.813 22.168C697.709 22.168 701.885 23.968 703.757 28.648V10.072C703.757 7.84 702.749 6.04 700.733 5.608C703.325 5.608 706.349 5.824 708.437 4.672V50.608C708.437 52.84 709.445 54.64 711.533 55ZM703.757 46.432V31.24C703.685 26.704 699.293 23.176 694.973 23.392C682.661 24.184 682.013 54.136 695.117 54.352C699.293 54.424 703.685 50.968 703.757 46.432Z" fill="#8A5514"/>
<path d="M393.961 101.096C403.105 101.096 410.593 108.584 410.593 117.8C410.593 126.944 403.105 134.432 393.961 134.432C384.745 134.432 377.329 126.944 377.329 117.8C377.329 108.584 384.745 101.096 393.961 101.096ZM393.961 101.744C384.817 101.744 382.009 109.88 382.009 117.8C382.009 125.648 384.817 133.784 393.961 133.784C403.033 133.784 405.913 125.648 405.913 117.8C405.913 109.88 403.033 101.744 393.961 101.744ZM416.696 107C416.696 104.768 415.688 102.968 413.672 102.608C416.192 102.608 419.288 102.824 421.376 101.6V107.648C423.248 102.968 427.424 101.168 432.392 101.168C437.504 101.168 442.184 103.976 442.184 110.528V129.608C442.184 131.84 443.192 133.64 445.208 134H434.408C436.496 133.64 437.504 131.84 437.504 129.608V110.024C437.504 98.504 421.592 100.88 421.376 110.24V129.608C421.376 131.84 422.384 133.64 424.472 134H413.672C415.688 133.64 416.696 131.84 416.696 129.608V107Z" fill="#8A5514"/>
<path d="M308.259 196.69C278.124 195.936 255.522 212.888 255.522 236.243C255.522 247.544 236.687 247.92 241.207 230.216C247.611 207.237 276.994 192.546 308.259 193.299C406.954 196.69 422.021 319.869 320.314 360.929C268.706 381.647 227.27 385.038 227.27 435.515H366.647C378.325 435.515 387.742 430.241 389.626 419.694V460H222.749V435.515C222.749 373.737 258.912 359.799 316.17 337.197C396.783 305.178 388.872 200.457 308.259 196.69ZM499.279 196.69C442.398 199.327 419.797 293.501 516.984 316.479C587.049 297.644 574.618 194.43 499.279 196.69ZM518.491 316.856C520.374 317.232 521.128 317.986 523.011 318.362C629.993 353.395 611.535 459.247 513.97 463.39C390.038 468.664 380.997 342.471 468.39 321.753C399.832 276.926 429.591 195.56 499.279 193.299C604.377 189.909 595.337 310.452 518.491 316.856ZM513.594 460C579.892 457.363 607.014 367.71 510.203 340.211C494.382 335.69 480.821 329.663 469.897 322.883C427.33 337.574 401.338 464.897 513.594 460Z" fill="#8A5514"/>
<path d="M228.771 561C231.342 560.541 232.627 558.245 232.627 555.399V502.415C232.627 499.568 231.342 497.273 228.771 496.814C236.76 496.814 244.748 496.814 252.737 496.814C286.805 496.814 286.529 561 252.921 561C244.84 561 236.76 561 228.771 561ZM251.268 497.548H238.596V560.265H251.544C278.816 560.265 279.367 497.548 251.268 497.548ZM304.598 519.035C312.036 519.035 318.648 522.984 322.413 528.769L318.464 530.697L289.631 544.839C292.661 567.887 319.382 562.102 323.698 547.685L324.249 548.144C315.709 569.632 283.386 563.663 283.386 540.339C283.386 528.585 292.845 519.035 304.598 519.035ZM289.539 544.104L318.28 530.055C316.26 524.27 312.128 519.862 304.598 519.862C292.936 519.862 289.355 530.238 289.355 540.339C289.355 541.625 289.447 542.91 289.539 544.104ZM349.704 519.035C356.958 519.035 366.233 522.892 367.151 529.412C367.886 534.462 361.642 533.728 362.56 530.146C364.213 523.994 357.326 519.862 349.704 519.862C338.042 519.862 334.461 530.238 334.461 540.339C334.461 566.142 359.438 563.663 367.151 551.358L367.61 551.726C357.05 568.805 328.492 562.194 328.492 540.339C328.492 528.585 337.95 519.035 349.704 519.035ZM467.569 555.399C467.569 558.245 468.854 560.541 471.517 561.092H457.743C460.314 560.541 461.6 558.245 461.6 555.399V528.953C461.6 517.291 445.806 519.77 445.622 530.146V555.399C445.622 558.245 446.908 560.541 449.571 561.092H435.797C438.368 560.541 439.654 558.245 439.654 555.399V528.953C439.654 523.81 436.623 521.423 433.134 521.239C424.41 520.597 421.013 532.809 415.687 543.92C411.463 552.736 405.862 560.816 394.567 561.459C383.548 562.102 372.253 554.205 372.253 540.339C372.253 528.677 381.711 519.127 393.465 519.127C400.903 519.127 407.514 522.984 411.279 528.861L407.331 530.789V530.697L378.497 544.839C379.967 556.225 387.221 560.633 394.751 560.357C405.586 560.082 410.912 552.46 415.044 543.829C415.962 541.9 416.881 539.788 417.707 537.768V526.565C417.707 523.719 416.422 521.423 413.85 520.964C417.156 520.964 421.105 521.239 423.768 519.678V526.106C426.706 521.974 430.379 519.127 435.981 519.127C440.572 519.127 444.704 521.974 445.53 527.483C447.826 521.056 453.06 519.127 457.927 519.127C463.069 519.127 467.569 522.709 467.569 529.504V555.399ZM378.222 540.339C378.222 541.717 378.314 542.91 378.406 544.104L407.147 530.055C405.127 524.27 400.995 519.862 393.465 519.862C381.803 519.862 378.222 530.33 378.222 540.339ZM423.768 555.399C423.768 558.245 424.961 560.541 427.624 561H413.85C416.422 560.541 417.707 558.245 417.707 555.399V539.696C419.727 535.197 421.564 530.789 423.768 527.483V555.399ZM475.002 561.092V561C477.573 560.541 478.859 558.245 478.859 555.399V503.701C478.859 500.854 477.573 498.558 475.002 498.007C478.216 498.007 482.165 498.283 484.828 496.814V527.392C487.215 521.423 492.541 519.127 498.877 519.127C519.722 519.127 520.915 561.643 498.051 561.643C492.541 561.643 487.215 559.255 484.828 553.287V556.041C484.736 558.429 484.093 561.092 480.604 561.092H475.002ZM484.828 530.697V550.073C484.92 555.858 490.521 560.265 495.939 560.174C512.559 559.898 511.733 521.698 496.122 520.688C490.521 520.413 484.92 524.912 484.828 530.697ZM571.638 555.399C571.638 558.245 572.923 560.541 575.495 561C570.903 561 566.312 561 561.721 561C564.384 560.541 565.669 558.245 565.669 555.399V539.696C567.506 535.197 569.342 530.789 571.638 527.208V555.399ZM591.289 523.351C593.033 526.749 588.258 527.851 587.891 524.453C587.707 521.423 585.595 519.678 583.024 519.862C563.098 520.688 569.067 559.806 542.529 561.459C531.51 562.194 520.215 554.205 520.215 540.339C520.215 528.677 529.673 519.127 541.427 519.127C548.865 519.127 555.476 522.984 559.241 528.861L555.293 530.789V530.697L526.459 544.839C527.929 556.225 535.183 560.633 542.713 560.357C555.936 559.99 560.986 548.603 565.577 537.86V526.565C565.577 523.719 564.384 521.423 561.721 520.964C565.026 520.964 568.975 521.239 571.638 519.678V526.014C574.484 521.79 578.066 519.035 583.3 519.035C586.514 519.127 589.452 520.413 591.289 523.351ZM526.184 540.339C526.184 541.717 526.184 542.91 526.368 544.104L555.109 530.055C553.089 524.27 548.957 519.862 541.427 519.862C529.765 519.862 526.184 530.33 526.184 540.339Z" fill="#8A5514"/>
<path d="M262.57 614.839C249.047 614.501 238.904 622.107 238.904 632.588C238.904 637.659 230.452 637.829 232.481 629.883C235.354 619.572 248.54 612.979 262.57 613.317C306.86 614.839 313.622 670.116 267.98 688.542C244.821 697.839 226.226 699.36 226.226 722.012H288.772C294.013 722.012 298.239 719.646 299.084 714.912V733H224.198V722.012C224.198 694.289 240.426 688.034 266.12 677.892C302.296 663.523 298.746 616.529 262.57 614.839ZM370.408 613.317C403.879 613.317 430.926 640.533 430.926 674.004C430.926 707.305 403.879 734.521 370.408 734.521C336.938 734.521 309.891 707.305 309.891 674.004C309.891 640.533 336.938 613.317 370.408 613.317ZM370.408 614.839C336.6 614.839 320.879 643.069 320.879 674.004C320.879 704.77 336.6 733 370.408 733C404.048 733 419.938 704.77 419.938 674.004C419.938 643.069 404.048 614.839 370.408 614.839ZM476.846 614.839C463.323 614.501 453.18 622.107 453.18 632.588C453.18 637.659 444.728 637.829 446.757 629.883C449.63 619.572 462.816 612.979 476.846 613.317C521.136 614.839 527.897 670.116 482.256 688.542C459.097 697.839 440.502 699.36 440.502 722.012H503.048C508.288 722.012 512.514 719.646 513.36 714.912V733H438.473V722.012C438.473 694.289 454.702 688.034 480.396 677.892C516.572 663.523 513.022 616.529 476.846 614.839ZM573.418 629.207L518.986 700.713H573.418V629.207ZM595.224 700.713V702.065H584.406V722.688C584.406 727.929 586.772 732.155 591.674 733.169H566.318C571.051 732.155 573.418 727.929 573.418 722.688V702.065H517.633V700.713L573.418 627.517L582.377 615.684L583.053 614.839H584.406V700.713H584.913C590.153 700.713 594.379 698.346 595.224 693.444V700.713Z" fill="#8A5514"/>
</svg>
