<svg width="1073" height="237" viewBox="0 0 1073 237" fill="none" xmlns="http://www.w3.org/2000/svg">
<path d="M121.38 17.376V40.464C121.38 45.648 116.724 48.672 112.068 48.336C108.468 48.048 106.356 45.504 106.356 42.048C106.356 39.792 109.428 40.512 108.276 42.576C105.972 45.264 109.38 47.952 112.26 47.952C116.292 48.24 118.26 44.976 118.26 40.464V17.376C118.26 15.888 117.588 14.688 116.244 14.448C118.644 14.448 121.044 14.448 123.444 14.448C122.052 14.688 121.38 15.888 121.38 17.376ZM136.641 26.064C142.737 26.064 147.729 31.056 147.729 37.2C147.729 43.296 142.737 48.288 136.641 48.288C130.497 48.288 125.553 43.296 125.553 37.2C125.553 31.056 130.497 26.064 136.641 26.064ZM136.641 26.496C130.545 26.496 128.673 31.92 128.673 37.2C128.673 42.432 130.545 47.856 136.641 47.856C142.689 47.856 144.609 42.432 144.609 37.2C144.609 31.92 142.689 26.496 136.641 26.496ZM151.797 30C151.797 28.512 151.125 27.312 149.781 27.072C151.461 27.072 153.525 27.216 154.917 26.4V45.072C154.917 46.56 155.589 47.76 156.981 48H149.781C151.125 47.76 151.797 46.56 151.797 45.072V30ZM153.189 21.84C154.149 21.84 154.965 22.608 154.965 23.616C154.965 24.576 154.149 25.392 153.189 25.392C152.181 25.392 151.413 24.576 151.413 23.616C151.413 22.608 152.181 21.84 153.189 21.84ZM160.985 30C160.985 28.512 160.313 27.312 158.969 27.072C160.649 27.072 162.713 27.216 164.105 26.4V30.432C165.353 27.312 168.137 26.112 171.449 26.112C174.857 26.112 177.977 27.984 177.977 32.352V45.072C177.977 46.56 178.649 47.76 179.993 48H172.793C174.185 47.76 174.857 46.56 174.857 45.072V32.016C174.857 24.336 164.249 25.92 164.105 32.16V45.072C164.105 46.56 164.777 47.76 166.169 48H158.969C160.313 47.76 160.985 46.56 160.985 45.072V30ZM217.671 48H214.935C212.871 48 212.583 46.8 212.535 45.504V44.016C211.287 47.136 208.503 48.336 205.191 48.336C201.783 48.336 198.663 46.464 198.663 42.096V29.376C198.663 27.888 197.991 26.688 196.647 26.4H203.847C202.455 26.688 201.783 27.888 201.783 29.376V42.432C201.783 50.112 212.391 48.528 212.535 42.288V29.376C212.535 27.888 211.863 26.688 210.471 26.4H217.671C216.327 26.688 215.655 27.888 215.655 29.376V45.072C215.655 46.56 216.327 47.76 217.671 48ZM231.679 29.616C231.679 27.696 229.759 26.496 227.119 26.496C222.223 26.496 220.399 33.84 228.943 35.664C240.895 38.976 236.911 48 228.367 48.336C224.527 48.48 219.631 46.512 219.487 42.288C219.343 40.224 222.223 40.56 221.551 42.192C219.727 45.648 224.239 47.952 228.415 47.952C234.079 47.952 237.871 41.376 227.839 38.64C217.663 35.808 220.159 26.304 227.119 26.112C229.807 26.016 232.351 27.216 232.879 29.136C233.263 30.576 231.679 30.528 231.679 29.616ZM264.797 26.064C270.893 26.064 275.885 31.056 275.885 37.2C275.885 43.296 270.893 48.288 264.797 48.288C258.653 48.288 253.709 43.296 253.709 37.2C253.709 31.056 258.653 26.064 264.797 26.064ZM264.797 26.496C258.701 26.496 256.829 31.92 256.829 37.2C256.829 42.432 258.701 47.856 264.797 47.856C270.845 47.856 272.765 42.432 272.765 37.2C272.765 31.92 270.845 26.496 264.797 26.496ZM279.954 30C279.954 28.512 279.282 27.312 277.938 27.072C279.618 27.072 281.682 27.216 283.074 26.4V30.432C284.322 27.312 287.106 26.112 290.418 26.112C293.826 26.112 296.946 27.984 296.946 32.352V45.072C296.946 46.56 297.618 47.76 298.962 48H291.762C293.154 47.76 293.826 46.56 293.826 45.072V32.016C293.826 24.336 283.218 25.92 283.074 32.16V45.072C283.074 46.56 283.746 47.76 285.138 48H277.938C279.282 47.76 279.954 46.56 279.954 45.072V30ZM334.048 19.488C334.048 16.512 331.168 14.352 327.28 14.448C319.984 14.784 316.816 26.88 329.536 29.712C347.296 34.8 341.824 47.856 329.152 48.432C323.44 48.672 316.144 45.552 315.904 39.072C315.712 35.904 319.984 36.432 319.024 38.928C316.24 44.256 322.96 48.288 329.152 48C337.552 47.664 343.648 37.008 328.672 32.736C313.552 28.368 316.912 14.352 327.328 14.016C331.264 13.92 335.056 15.792 335.824 18.72C336.448 20.976 334.048 20.928 334.048 19.488ZM361.923 48H358.995C357.171 48 356.787 46.656 356.787 45.12V43.968C355.539 47.088 352.755 48.336 349.875 48.336C340.083 48.336 340.275 38.736 348.051 36C351.555 34.8 356.643 35.136 356.691 31.152C355.875 24.288 347.715 25.392 347.715 31.152C347.715 32.064 346.179 32.112 346.563 30.624C348.435 23.712 359.907 24.144 359.907 32.448V45.072C359.907 46.56 360.579 47.76 361.923 48ZM356.787 42.288V32.544C355.683 35.424 351.315 35.904 348.723 37.344C342.867 40.656 345.459 49.296 352.515 47.376C354.771 46.8 356.739 44.784 356.787 42.288ZM364.506 23.616V21.36C364.506 19.872 363.834 18.672 362.49 18.432C364.17 18.432 366.234 18.576 367.626 17.76V26.4H373.578V26.832H367.626V40.56C367.626 43.104 367.146 48 371.13 48C372.954 48 374.922 46.368 372.81 43.824C371.754 42.048 374.154 41.28 374.73 43.296C375.498 46.224 373.77 48.336 370.698 48.336C365.37 48.336 364.506 44.976 364.506 40.56V26.832H362.97V26.4H364.506V23.616ZM397.39 48H394.654C392.59 48 392.302 46.8 392.254 45.504V44.016C391.006 47.136 388.222 48.336 384.91 48.336C381.502 48.336 378.382 46.464 378.382 42.096V29.376C378.382 27.888 377.71 26.688 376.366 26.4H383.566C382.174 26.688 381.502 27.888 381.502 29.376V42.432C381.502 50.112 392.11 48.528 392.254 42.288V29.376C392.254 27.888 391.582 26.688 390.19 26.4H397.39C396.046 26.688 395.374 27.888 395.374 29.376V45.072C395.374 46.56 396.046 47.76 397.39 48ZM401.407 30C401.407 28.512 400.735 27.312 399.391 27.072C401.071 27.072 403.135 27.216 404.527 26.4V30.192C405.583 27.648 408.223 26.112 410.671 26.064C412.303 26.064 413.887 26.784 414.799 28.32C415.711 30.096 413.263 30.672 413.023 28.896C412.735 24.432 404.527 26.544 404.527 32.016V45.072C404.527 46.56 405.199 47.76 406.591 48H399.391C400.735 47.76 401.407 46.56 401.407 45.072V30ZM436.92 48V48.048H433.992C432.12 48.048 431.784 46.656 431.736 45.408V43.968C430.488 47.088 427.704 48.336 424.824 48.336C412.92 48.336 413.496 26.112 424.44 26.112C427.704 26.112 430.488 27.312 431.736 30.432V18.048C431.736 16.56 431.064 15.36 429.72 15.072C431.448 15.072 433.464 15.216 434.856 14.448V45.072C434.856 46.56 435.528 47.76 436.92 48ZM431.736 42.288V32.16C431.688 29.136 428.76 26.784 425.88 26.928C417.672 27.456 417.24 47.424 425.976 47.568C428.76 47.616 431.688 45.312 431.736 42.288ZM458.298 48H455.37C453.546 48 453.162 46.656 453.162 45.12V43.968C451.914 47.088 449.13 48.336 446.25 48.336C436.458 48.336 436.65 38.736 444.426 36C447.93 34.8 453.018 35.136 453.066 31.152C452.25 24.288 444.09 25.392 444.09 31.152C444.09 32.064 442.554 32.112 442.938 30.624C444.81 23.712 456.282 24.144 456.282 32.448V45.072C456.282 46.56 456.954 47.76 458.298 48ZM453.162 42.288V32.544C452.058 35.424 447.69 35.904 445.098 37.344C439.242 40.656 441.834 49.296 448.89 47.376C451.146 46.8 453.114 44.784 453.162 42.288ZM469.781 44.496L476.597 29.328C477.221 27.792 476.741 26.688 475.397 26.4C476.933 26.4 478.517 26.4 480.053 26.4C478.709 26.64 477.845 27.408 477.173 28.848L468.773 47.664C467.717 50.112 466.277 53.76 462.917 53.76C461.285 53.76 459.701 53.088 458.789 51.504C457.877 49.776 460.325 49.152 460.565 50.976C460.661 52.512 461.717 53.376 463.013 53.376C465.797 53.376 467.333 50.352 468.245 48H468.197L459.941 29.088C459.317 27.552 458.549 26.688 457.205 26.4C459.605 26.4 462.005 26.4 464.405 26.4C463.013 26.688 462.533 27.792 463.205 29.28L469.781 44.496ZM497.537 23.616V21.36C497.537 19.872 496.865 18.672 495.521 18.432C497.201 18.432 499.265 18.576 500.657 17.76V26.4H506.609V26.832H500.657V40.56C500.657 43.104 500.177 48 504.161 48C505.985 48 507.953 46.368 505.841 43.824C504.785 42.048 507.185 41.28 507.761 43.296C508.529 46.224 506.801 48.336 503.729 48.336C498.401 48.336 497.537 44.976 497.537 40.56V26.832H496.001V26.4H497.537V23.616ZM511.701 18.048C511.701 16.56 511.029 15.36 509.685 15.072C511.365 15.072 513.429 15.216 514.821 14.448V30.432C516.069 27.312 518.853 26.112 522.165 26.112C525.525 26.112 528.693 27.984 528.693 32.352V45.072C528.693 46.56 529.365 47.76 530.709 48C528.309 48 525.909 48 523.509 48C524.901 47.76 525.573 46.56 525.573 45.072V32.016C525.573 24.336 514.965 25.92 514.821 32.16V45.072C514.821 46.56 515.493 47.76 516.885 48H514.821C513.093 48 511.365 48 509.685 48C511.029 47.76 511.701 46.56 511.701 45.072V18.048ZM543.986 26.064C547.874 26.064 551.33 28.128 553.298 31.152L551.234 32.16L536.162 39.552C537.746 51.6 551.714 48.576 553.97 41.04L554.258 41.28C549.794 52.512 532.898 49.392 532.898 37.2C532.898 31.056 537.842 26.064 543.986 26.064ZM536.114 39.168L551.138 31.824C550.082 28.8 547.922 26.496 543.986 26.496C537.89 26.496 536.018 31.92 536.018 37.2C536.018 37.872 536.066 38.544 536.114 39.168ZM583.184 14.448C579.344 14.352 576.464 16.512 576.464 19.488C576.464 20.928 574.064 20.976 574.64 18.72C575.456 15.792 579.2 13.92 583.184 14.016C595.76 14.448 597.68 30.144 584.72 35.376C578.144 38.016 572.864 38.448 572.864 44.88H590.624C592.112 44.88 593.312 44.208 593.552 42.864V48H572.288V44.88C572.288 37.008 576.896 35.232 584.192 32.352C594.464 28.272 593.456 14.928 583.184 14.448ZM598.813 42.96C598.813 45.936 602.317 48.096 606.205 48C621.421 47.328 616.909 23.328 601.693 27.408L601.117 27.888V27.504L601.693 27.024L612.973 17.568H602.461C600.973 17.568 599.773 18.24 599.485 19.584V14.448H613.405V17.568L602.365 26.88C621.613 22.272 624.733 47.808 606.205 48.432C602.221 48.528 597.805 46.656 597.037 43.728C596.413 41.472 598.813 41.52 598.813 42.96ZM636.958 48C638.302 47.76 638.974 46.56 638.974 45.072V17.376C638.974 15.888 638.302 14.688 636.958 14.448C641.134 14.448 645.31 14.448 649.486 14.448C667.294 14.448 667.15 48 649.582 48C645.358 48 641.134 48 636.958 48ZM648.718 14.832H642.094V47.616H648.862C663.118 47.616 663.406 14.832 648.718 14.832ZM676.595 26.064C680.483 26.064 683.939 28.128 685.907 31.152L683.843 32.16L668.771 39.552C670.355 51.6 684.323 48.576 686.579 41.04L686.867 41.28C682.403 52.512 665.507 49.392 665.507 37.2C665.507 31.056 670.451 26.064 676.595 26.064ZM668.723 39.168L683.747 31.824C682.691 28.8 680.531 26.496 676.595 26.496C670.499 26.496 668.627 31.92 668.627 37.2C668.627 37.872 668.675 38.544 668.723 39.168ZM700.173 26.064C703.965 26.064 708.813 28.08 709.293 31.488C709.677 34.128 706.413 33.744 706.893 31.872C707.757 28.656 704.157 26.496 700.173 26.496C694.077 26.496 692.205 31.92 692.205 37.2C692.205 50.688 705.261 49.392 709.293 42.96L709.533 43.152C704.013 52.08 689.085 48.624 689.085 37.2C689.085 31.056 694.029 26.064 700.173 26.064ZM761.784 45.072C761.784 46.56 762.456 47.76 763.848 48.048H756.648C757.992 47.76 758.664 46.56 758.664 45.072V31.248C758.664 25.152 750.408 26.448 750.312 31.872V45.072C750.312 46.56 750.984 47.76 752.376 48.048H745.176C746.52 47.76 747.192 46.56 747.192 45.072V31.248C747.192 28.56 745.608 27.312 743.784 27.216C739.224 26.88 737.448 33.264 734.664 39.072C732.456 43.68 729.528 47.904 723.624 48.24C717.864 48.576 711.96 44.448 711.96 37.2C711.96 31.104 716.904 26.112 723.048 26.112C726.936 26.112 730.392 28.128 732.36 31.2L730.296 32.208V32.16L715.224 39.552C715.992 45.504 719.784 47.808 723.72 47.664C729.384 47.52 732.168 43.536 734.328 39.024C734.808 38.016 735.288 36.912 735.72 35.856V30C735.72 28.512 735.048 27.312 733.704 27.072C735.432 27.072 737.496 27.216 738.888 26.4V29.76C740.424 27.6 742.344 26.112 745.272 26.112C747.672 26.112 749.832 27.6 750.264 30.48C751.464 27.12 754.2 26.112 756.744 26.112C759.432 26.112 761.784 27.984 761.784 31.536V45.072ZM715.08 37.2C715.08 37.92 715.128 38.544 715.176 39.168L730.2 31.824C729.144 28.8 726.984 26.496 723.048 26.496C716.952 26.496 715.08 31.968 715.08 37.2ZM738.888 45.072C738.888 46.56 739.512 47.76 740.904 48H733.704C735.048 47.76 735.72 46.56 735.72 45.072V36.864C736.776 34.512 737.736 32.208 738.888 30.48V45.072ZM765.67 48.048V48C767.014 47.76 767.686 46.56 767.686 45.072V18.048C767.686 16.56 767.014 15.36 765.67 15.072C767.35 15.072 769.414 15.216 770.806 14.448V30.432C772.054 27.312 774.838 26.112 778.15 26.112C789.046 26.112 789.67 48.336 777.718 48.336C774.838 48.336 772.054 47.088 770.806 43.968V45.408C770.758 46.656 770.422 48.048 768.598 48.048H765.67ZM770.806 32.16V42.288C770.854 45.312 773.782 47.616 776.614 47.568C785.302 47.424 784.87 27.456 776.71 26.928C773.782 26.784 770.854 29.136 770.806 32.16ZM816.184 45.072C816.184 46.56 816.856 47.76 818.2 48C815.8 48 813.4 48 811 48C812.392 47.76 813.064 46.56 813.064 45.072V36.864C814.024 34.512 814.984 32.208 816.184 30.336V45.072ZM826.456 28.32C827.368 30.096 824.872 30.672 824.68 28.896C824.584 27.312 823.48 26.4 822.136 26.496C811.72 26.928 814.84 47.376 800.968 48.24C795.208 48.624 789.304 44.448 789.304 37.2C789.304 31.104 794.248 26.112 800.392 26.112C804.28 26.112 807.736 28.128 809.704 31.2L807.64 32.208V32.16L792.568 39.552C793.336 45.504 797.128 47.808 801.064 47.664C807.976 47.472 810.616 41.52 813.016 35.904V30C813.016 28.512 812.392 27.312 811 27.072C812.728 27.072 814.792 27.216 816.184 26.4V29.712C817.672 27.504 819.544 26.064 822.28 26.064C823.96 26.112 825.496 26.784 826.456 28.32ZM792.424 37.2C792.424 37.92 792.424 38.544 792.52 39.168L807.544 31.824C806.488 28.8 804.328 26.496 800.392 26.496C794.296 26.496 792.424 31.968 792.424 37.2ZM855.106 14.448C851.266 14.352 848.386 16.512 848.386 19.488C848.386 20.928 845.986 20.976 846.562 18.72C847.378 15.792 851.122 13.92 855.106 14.016C867.682 14.448 869.602 30.144 856.642 35.376C850.066 38.016 844.786 38.448 844.786 44.88H862.546C864.034 44.88 865.234 44.208 865.474 42.864V48H844.21V44.88C844.21 37.008 848.818 35.232 856.114 32.352C866.386 28.272 865.378 14.928 855.106 14.448ZM885.727 14.016C895.231 14.016 902.911 21.744 902.911 31.248C902.911 40.704 895.231 48.432 885.727 48.432C876.223 48.432 868.543 40.704 868.543 31.248C868.543 21.744 876.223 14.016 885.727 14.016ZM885.727 14.448C876.127 14.448 871.663 22.464 871.663 31.248C871.663 39.984 876.127 48 885.727 48C895.279 48 899.791 39.984 899.791 31.248C899.791 22.464 895.279 14.448 885.727 14.448ZM915.95 14.448C912.11 14.352 909.23 16.512 909.23 19.488C909.23 20.928 906.83 20.976 907.406 18.72C908.222 15.792 911.966 13.92 915.95 14.016C928.526 14.448 930.446 30.144 917.486 35.376C910.91 38.016 905.63 38.448 905.63 44.88H923.39C924.878 44.88 926.078 44.208 926.318 42.864V48H905.054V44.88C905.054 37.008 909.662 35.232 916.958 32.352C927.23 28.272 926.222 14.928 915.95 14.448ZM943.371 18.528L927.915 38.832H943.371V18.528ZM949.563 38.832V39.216H946.491V45.072C946.491 46.56 947.163 47.76 948.555 48.048H941.355C942.699 47.76 943.371 46.56 943.371 45.072V39.216H927.531V38.832L943.371 18.048L945.915 14.688L946.107 14.448H946.491V38.832H946.635C948.123 38.832 949.323 38.16 949.563 36.768V38.832ZM46.7941 83.824C42.6661 90.112 42.7141 111.568 46.7941 118.048C46.9381 118.24 46.7461 118.48 46.6021 118.288C38.0101 108.64 38.1061 93.136 46.6021 83.584C46.7461 83.392 46.9381 83.632 46.7941 83.824ZM53.1526 88.048C53.1526 86.56 52.4806 85.36 51.1366 85.072C52.8166 85.072 54.8806 85.216 56.2726 84.448V115.072C56.2726 116.56 56.9446 117.76 58.3366 118H51.1366C52.4806 117.76 53.1526 116.56 53.1526 115.072V88.048ZM64.2507 112.96C64.2507 115.936 67.7547 118.096 71.6427 118C86.8587 117.328 82.3467 93.328 67.1307 97.408L66.5547 97.888V97.504L67.1307 97.024L78.4107 87.568H67.8987C66.4107 87.568 65.2107 88.24 64.9227 89.584V84.448H78.8427V87.568L67.8027 96.88C87.0507 92.272 90.1707 117.808 71.6427 118.432C67.6587 118.528 63.2427 116.656 62.4747 113.728C61.8507 111.472 64.2507 111.52 64.2507 112.96ZM102.395 118C103.739 117.76 104.411 116.56 104.411 115.072V87.376C104.411 85.888 103.739 84.688 102.395 84.448C106.571 84.448 110.747 84.448 114.923 84.448C132.731 84.448 132.587 118 115.019 118C110.795 118 106.571 118 102.395 118ZM114.155 84.832H107.531V117.616H114.299C128.555 117.616 128.843 84.832 114.155 84.832ZM132.576 88.048C132.576 86.56 131.904 85.36 130.56 85.072C132.24 85.072 134.304 85.216 135.696 84.448V100.432C136.944 97.312 139.728 96.112 143.04 96.112C146.4 96.112 149.568 97.984 149.568 102.352V115.072C149.568 116.56 150.24 117.76 151.584 118C149.184 118 146.784 118 144.384 118C145.776 117.76 146.448 116.56 146.448 115.072V102.016C146.448 94.336 135.84 95.92 135.696 102.16V115.072C135.696 116.56 136.368 117.76 137.76 118H135.696C133.968 118 132.24 118 130.56 118C131.904 117.76 132.576 116.56 132.576 115.072V88.048ZM172.877 118H169.949C168.125 118 167.741 116.656 167.741 115.12V113.968C166.493 117.088 163.709 118.336 160.829 118.336C151.037 118.336 151.229 108.736 159.005 106C162.509 104.8 167.597 105.136 167.645 101.152C166.829 94.288 158.669 95.392 158.669 101.152C158.669 102.064 157.133 102.112 157.517 100.624C159.389 93.712 170.861 94.144 170.861 102.448V115.072C170.861 116.56 171.533 117.76 172.877 118ZM167.741 112.288V102.544C166.637 105.424 162.269 105.904 159.677 107.344C153.821 110.656 156.413 119.296 163.469 117.376C165.725 116.8 167.693 114.784 167.741 112.288ZM176.829 100C176.829 98.512 176.157 97.312 174.813 97.072C176.493 97.072 178.557 97.216 179.949 96.4V100.432C181.197 97.312 183.981 96.112 187.293 96.112C190.701 96.112 193.821 97.984 193.821 102.352V115.072C193.821 116.56 194.493 117.76 195.837 118H188.637C190.029 117.76 190.701 116.56 190.701 115.072V102.016C190.701 94.336 180.093 95.92 179.949 102.16V115.072C179.949 116.56 180.621 117.76 182.013 118H174.813C176.157 117.76 176.829 116.56 176.829 115.072V100ZM217.343 118H214.607C212.543 118 212.255 116.8 212.207 115.504V114.016C210.959 117.136 208.175 118.336 204.863 118.336C201.455 118.336 198.335 116.464 198.335 112.096V99.376C198.335 97.888 197.663 96.688 196.319 96.4H203.519C202.127 96.688 201.455 97.888 201.455 99.376V112.432C201.455 120.112 212.063 118.528 212.207 112.288V99.376C212.207 97.888 211.535 96.688 210.143 96.4H217.343C215.999 96.688 215.327 97.888 215.327 99.376V115.072C215.327 116.56 215.999 117.76 217.343 118ZM237.653 88.048C237.653 86.56 236.981 85.36 235.637 85.072C237.317 85.072 239.381 85.216 240.773 84.448V115.072C240.773 116.56 241.445 117.76 242.837 118H235.637C236.981 117.76 237.653 116.56 237.653 115.072V88.048ZM257.919 84.448C254.079 84.352 251.199 86.512 251.199 89.488C251.199 90.928 248.799 90.976 249.375 88.72C250.191 85.792 253.935 83.92 257.919 84.016C270.495 84.448 272.415 100.144 259.455 105.376C252.879 108.016 247.599 108.448 247.599 114.88H265.359C266.847 114.88 268.047 114.208 268.287 112.864V118H247.023V114.88C247.023 107.008 251.631 105.232 258.927 102.352C269.199 98.272 268.191 84.928 257.919 84.448ZM288.539 84.016C298.043 84.016 305.723 91.744 305.723 101.248C305.723 110.704 298.043 118.432 288.539 118.432C279.035 118.432 271.355 110.704 271.355 101.248C271.355 91.744 279.035 84.016 288.539 84.016ZM288.539 84.448C278.939 84.448 274.475 92.464 274.475 101.248C274.475 109.984 278.939 118 288.539 118C298.091 118 302.603 109.984 302.603 101.248C302.603 92.464 298.091 84.448 288.539 84.448ZM327.258 84.016C336.762 84.016 344.442 91.744 344.442 101.248C344.442 110.704 336.762 118.432 327.258 118.432C317.754 118.432 310.074 110.704 310.074 101.248C310.074 91.744 317.754 84.016 327.258 84.016ZM327.258 84.448C317.658 84.448 313.194 92.464 313.194 101.248C313.194 109.984 317.658 118 327.258 118C336.81 118 341.322 109.984 341.322 101.248C341.322 92.464 336.81 84.448 327.258 84.448ZM348.745 118.048C352.777 111.568 352.873 90.112 348.745 83.824C348.601 83.632 348.745 83.392 348.889 83.584C357.433 93.136 357.481 108.64 348.889 118.288C348.745 118.48 348.601 118.24 348.745 118.048ZM373.748 118.048V118C375.092 117.76 375.764 116.56 375.764 115.072V88.048C375.764 86.56 375.092 85.36 373.748 85.072C375.428 85.072 377.492 85.216 378.884 84.448V100.432C380.132 97.312 382.916 96.112 386.228 96.112C397.124 96.112 397.748 118.336 385.796 118.336C382.916 118.336 380.132 117.088 378.884 113.968V115.408C378.836 116.656 378.5 118.048 376.676 118.048H373.748ZM378.884 102.16V112.288C378.932 115.312 381.86 117.616 384.692 117.568C393.38 117.424 392.948 97.456 384.788 96.928C381.86 96.784 378.932 99.136 378.884 102.16ZM408.47 96.064C412.358 96.064 415.814 98.128 417.782 101.152L415.718 102.16L400.646 109.552C402.23 121.6 416.198 118.576 418.454 111.04L418.742 111.28C414.278 122.512 397.382 119.392 397.382 107.2C397.382 101.056 402.326 96.064 408.47 96.064ZM400.598 109.168L415.622 101.824C414.566 98.8 412.406 96.496 408.47 96.496C402.374 96.496 400.502 101.92 400.502 107.2C400.502 107.872 400.55 108.544 400.598 109.168ZM422.256 93.616V91.36C422.256 89.872 421.584 88.672 420.24 88.432C421.92 88.432 423.984 88.576 425.376 87.76V96.4H431.328V96.832H425.376V110.56C425.376 113.104 424.896 118 428.88 118C430.704 118 432.672 116.368 430.56 113.824C429.504 112.048 431.904 111.28 432.48 113.296C433.248 116.224 431.52 118.336 428.448 118.336C423.12 118.336 422.256 114.976 422.256 110.56V96.832H420.72V96.4H422.256V93.616ZM445.828 114.496L450.436 104.224L448.18 99.088C447.508 97.552 446.788 96.688 445.396 96.4C447.796 96.4 450.196 96.4 452.644 96.4C451.252 96.688 450.772 97.792 451.444 99.28L458.02 114.496L464.788 99.328C465.46 97.792 464.98 96.688 463.636 96.4C465.172 96.4 466.756 96.4 468.292 96.4C466.948 96.64 466.084 97.408 465.412 98.848L456.82 118H456.436L450.628 104.656L444.628 118H444.244L435.988 99.088C435.364 97.552 434.596 96.688 433.252 96.4C435.652 96.4 438.052 96.4 440.452 96.4C439.06 96.688 438.58 97.792 439.252 99.28L445.828 114.496ZM478.454 96.064C482.342 96.064 485.798 98.128 487.766 101.152L485.702 102.16L470.63 109.552C472.214 121.6 486.182 118.576 488.438 111.04L488.726 111.28C484.262 122.512 467.366 119.392 467.366 107.2C467.366 101.056 472.31 96.064 478.454 96.064ZM470.582 109.168L485.606 101.824C484.55 98.8 482.39 96.496 478.454 96.496C472.358 96.496 470.486 101.92 470.486 107.2C470.486 107.872 470.534 108.544 470.582 109.168ZM517.68 115.072C517.68 116.56 518.352 117.76 519.696 118C517.296 118 514.896 118 512.496 118C513.888 117.76 514.512 116.56 514.512 115.072V107.344C515.568 104.944 516.48 102.544 517.68 100.672V115.072ZM526.368 118C527.712 117.76 528.384 116.56 528.384 115.072V102.016C528.432 96.88 523.632 95.872 520.416 97.696C514.08 101.248 514.656 117.76 502.608 118.24C496.848 118.48 490.944 114.448 490.944 107.2C490.944 101.104 495.888 96.112 502.032 96.112C505.92 96.112 509.376 98.128 511.344 101.2L509.28 102.208V102.16L494.208 109.552C494.976 115.504 498.768 117.808 502.704 117.664C509.472 117.472 512.16 111.712 514.512 106.288V100C514.512 98.512 513.888 97.312 512.496 97.072C514.224 97.072 516.288 97.216 517.68 96.4V99.952C518.4 98.848 519.216 97.936 520.176 97.312C521.472 96.448 523.152 96.112 524.976 96.112C528.384 96.112 531.552 97.984 531.552 102.352V115.072C531.552 116.56 532.176 117.76 533.568 118C531.168 118 528.768 118 526.368 118ZM494.064 107.2C494.064 107.92 494.112 108.544 494.16 109.168L509.184 101.824C508.128 98.8 505.968 96.496 502.032 96.496C495.936 96.496 494.064 101.968 494.064 107.2ZM553.778 88.048C553.778 86.56 553.106 85.36 551.762 85.072C553.442 85.072 555.506 85.216 556.898 84.448V115.072C556.898 116.56 557.57 117.76 558.962 118H551.762C553.106 117.76 553.778 116.56 553.778 115.072V88.048ZM565.356 88.048C565.356 86.56 564.684 85.36 563.34 85.072C565.02 85.072 567.084 85.216 568.476 84.448V115.072C568.476 116.56 569.148 117.76 570.54 118H563.34C564.684 117.76 565.356 116.56 565.356 115.072V88.048ZM576.406 107.392C577.462 107.392 578.326 108.256 578.326 109.312C578.326 110.368 577.462 111.184 576.406 111.184C575.35 111.184 574.534 110.368 574.534 109.312C574.534 108.256 575.35 107.392 576.406 107.392ZM576.406 100.816C577.462 100.816 578.326 101.632 578.326 102.688C578.326 103.744 577.462 104.608 576.406 104.608C575.35 104.608 574.534 103.744 574.534 102.688C574.534 101.632 575.35 100.816 576.406 100.816ZM583.86 112.96C583.86 115.936 587.364 118.096 591.252 118C606.468 117.328 601.956 93.328 586.74 97.408L586.164 97.888V97.504L586.74 97.024L598.02 87.568H587.508C586.02 87.568 584.82 88.24 584.532 89.584V84.448H598.452V87.568L587.412 96.88C606.66 92.272 609.78 117.808 591.252 118.432C587.268 118.528 582.852 116.656 582.084 113.728C581.46 111.472 583.86 111.52 583.86 112.96ZM623.977 84.016C633.481 84.016 641.161 91.744 641.161 101.248C641.161 110.704 633.481 118.432 623.977 118.432C614.473 118.432 606.793 110.704 606.793 101.248C606.793 91.744 614.473 84.016 623.977 84.016ZM623.977 84.448C614.377 84.448 609.913 92.464 609.913 101.248C609.913 109.984 614.377 118 623.977 118C633.529 118 638.041 109.984 638.041 101.248C638.041 92.464 633.529 84.448 623.977 84.448ZM678.892 118H675.964C674.14 118 673.756 116.656 673.756 115.12V113.968C672.508 117.088 669.724 118.336 666.844 118.336C657.052 118.336 657.244 108.736 665.02 106C668.524 104.8 673.612 105.136 673.66 101.152C672.844 94.288 664.684 95.392 664.684 101.152C664.684 102.064 663.148 102.112 663.532 100.624C665.404 93.712 676.876 94.144 676.876 102.448V115.072C676.876 116.56 677.548 117.76 678.892 118ZM673.756 112.288V102.544C672.652 105.424 668.284 105.904 665.692 107.344C659.836 110.656 662.428 119.296 669.484 117.376C671.74 116.8 673.708 114.784 673.756 112.288ZM682.844 100C682.844 98.512 682.172 97.312 680.828 97.072C682.508 97.072 684.572 97.216 685.964 96.4V100.288C687.212 97.072 689.9 96.112 692.348 96.112C694.796 96.112 696.956 97.6 697.34 100.48C698.588 97.12 701.324 96.112 703.82 96.112C706.508 96.112 708.908 97.984 708.908 101.536V115.072C708.908 116.56 709.58 117.76 710.924 118H703.724C705.116 117.76 705.788 116.56 705.788 115.072V101.248C705.788 95.152 697.484 96.448 697.436 101.872V115.072C697.436 116.56 698.108 117.76 699.5 118H692.252C693.644 117.76 694.316 116.56 694.316 115.072V101.248C694.316 95.152 686.06 96.448 685.964 101.872V115.072C685.964 116.56 686.636 117.76 688.028 118H680.828C682.172 117.76 682.844 116.56 682.844 115.072V100ZM747.377 118H744.449C742.625 118 742.241 116.656 742.241 115.12V113.968C740.993 117.088 738.209 118.336 735.329 118.336C725.537 118.336 725.729 108.736 733.505 106C737.009 104.8 742.097 105.136 742.145 101.152C741.329 94.288 733.169 95.392 733.169 101.152C733.169 102.064 731.633 102.112 732.017 100.624C733.889 93.712 745.361 94.144 745.361 102.448V115.072C745.361 116.56 746.033 117.76 747.377 118ZM742.241 112.288V102.544C741.137 105.424 736.769 105.904 734.177 107.344C728.321 110.656 730.913 119.296 737.969 117.376C740.225 116.8 742.193 114.784 742.241 112.288ZM751.329 100C751.329 98.512 750.657 97.312 749.313 97.072C750.993 97.072 753.057 97.216 754.449 96.4V100.432C755.697 97.312 758.481 96.112 761.793 96.112C765.201 96.112 768.321 97.984 768.321 102.352V115.072C768.321 116.56 768.993 117.76 770.337 118H763.137C764.529 117.76 765.201 116.56 765.201 115.072V102.016C765.201 94.336 754.593 95.92 754.449 102.16V115.072C754.449 116.56 755.121 117.76 756.513 118H749.313C750.657 117.76 751.329 116.56 751.329 115.072V100ZM793.264 118V118.048H790.336C788.464 118.048 788.128 116.656 788.08 115.408V113.968C786.832 117.088 784.048 118.336 781.168 118.336C769.264 118.336 769.84 96.112 780.784 96.112C784.048 96.112 786.832 97.312 788.08 100.432V88.048C788.08 86.56 787.408 85.36 786.064 85.072C787.792 85.072 789.808 85.216 791.2 84.448V115.072C791.2 116.56 791.872 117.76 793.264 118ZM788.08 112.288V102.16C788.032 99.136 785.104 96.784 782.224 96.928C774.016 97.456 773.584 117.424 782.32 117.568C785.104 117.616 788.032 115.312 788.08 112.288ZM813.559 88.048C813.559 86.56 812.887 85.36 811.543 85.072C813.223 85.072 815.287 85.216 816.679 84.448V115.072C816.679 116.56 817.351 117.76 818.743 118H811.543C812.887 117.76 813.559 116.56 813.559 115.072V88.048ZM833.825 84.448C829.985 84.352 827.105 86.512 827.105 89.488C827.105 90.928 824.705 90.976 825.281 88.72C826.097 85.792 829.841 83.92 833.825 84.016C846.401 84.448 848.321 100.144 835.361 105.376C828.785 108.016 823.505 108.448 823.505 114.88H841.265C842.753 114.88 843.953 114.208 844.193 112.864V118H822.929V114.88C822.929 107.008 827.537 105.232 834.833 102.352C845.105 98.272 844.097 84.928 833.825 84.448ZM850.203 107.392C851.259 107.392 852.123 108.256 852.123 109.312C852.123 110.368 851.259 111.184 850.203 111.184C849.147 111.184 848.331 110.368 848.331 109.312C848.331 108.256 849.147 107.392 850.203 107.392ZM850.203 100.816C851.259 100.816 852.123 101.632 852.123 102.688C852.123 103.744 851.259 104.608 850.203 104.608C849.147 104.608 848.331 103.744 848.331 102.688C848.331 101.632 849.147 100.816 850.203 100.816ZM873.305 84.016C882.809 84.016 890.489 91.744 890.489 101.248C890.489 110.704 882.809 118.432 873.305 118.432C863.801 118.432 856.121 110.704 856.121 101.248C856.121 91.744 863.801 84.016 873.305 84.016ZM873.305 84.448C863.705 84.448 859.241 92.464 859.241 101.248C859.241 109.984 863.705 118 873.305 118C882.857 118 887.369 109.984 887.369 101.248C887.369 92.464 882.857 84.448 873.305 84.448ZM894.551 112.96C894.551 115.936 898.055 118.096 901.943 118C917.159 117.328 912.167 92.32 895.511 98.32H895.127L895.847 84.448H909.143V89.584C908.903 88.24 907.703 87.568 906.215 87.568H896.087L895.511 98.32V97.936C916.199 90.592 920.663 117.808 901.943 118.432C897.959 118.528 893.543 116.656 892.775 113.728C892.151 111.472 894.551 111.52 894.551 112.96ZM933.951 100C933.951 98.512 933.279 97.312 931.935 97.072C933.615 97.072 935.679 97.216 937.071 96.4V100.48C938.319 97.36 941.103 96.112 943.983 96.112C955.263 96.112 955.311 118.336 944.415 118.336C941.103 118.336 938.319 117.136 937.071 114.016V124.768C937.071 126.256 937.743 127.456 939.135 127.696H931.935C933.279 127.456 933.951 126.256 933.951 124.768V100ZM937.071 102.16V112.288C937.119 115.312 940.047 117.664 942.975 117.472C951.135 116.992 951.615 97.024 942.879 96.832C940.047 96.784 937.119 99.136 937.071 102.16ZM956.735 100C956.735 98.512 956.063 97.312 954.719 97.072C956.399 97.072 958.463 97.216 959.855 96.4V100.288C961.103 97.072 963.791 96.112 966.239 96.112C968.687 96.112 970.847 97.6 971.231 100.48C972.479 97.12 975.215 96.112 977.711 96.112C980.399 96.112 982.799 97.984 982.799 101.536V115.072C982.799 116.56 983.471 117.76 984.815 118H977.615C979.007 117.76 979.679 116.56 979.679 115.072V101.248C979.679 95.152 971.375 96.448 971.327 101.872V115.072C971.327 116.56 971.999 117.76 973.391 118H966.143C967.535 117.76 968.207 116.56 968.207 115.072V101.248C968.207 95.152 959.951 96.448 959.855 101.872V115.072C959.855 116.56 960.527 117.76 961.919 118H954.719C956.063 117.76 956.735 116.56 956.735 115.072V100ZM1021.27 118H1018.34C1016.52 118 1016.13 116.656 1016.13 115.12V113.968C1014.88 117.088 1012.1 118.336 1009.22 118.336C999.427 118.336 999.619 108.736 1007.4 106C1010.9 104.8 1015.99 105.136 1016.04 101.152C1015.22 94.288 1007.06 95.392 1007.06 101.152C1007.06 102.064 1005.52 102.112 1005.91 100.624C1007.78 93.712 1019.25 94.144 1019.25 102.448V115.072C1019.25 116.56 1019.92 117.76 1021.27 118ZM1016.13 112.288V102.544C1015.03 105.424 1010.66 105.904 1008.07 107.344C1002.21 110.656 1004.8 119.296 1011.86 117.376C1014.12 116.8 1016.08 114.784 1016.13 112.288ZM1023.85 93.616V91.36C1023.85 89.872 1023.18 88.672 1021.83 88.432C1023.51 88.432 1025.58 88.576 1026.97 87.76V96.4H1032.92V96.832H1026.97V110.56C1026.97 113.104 1026.49 118 1030.47 118C1032.3 118 1034.27 116.368 1032.15 113.824C1031.1 112.048 1033.5 111.28 1034.07 113.296C1034.84 116.224 1033.11 118.336 1030.04 118.336C1024.71 118.336 1023.85 114.976 1023.85 110.56V96.832H1022.31V96.4H1023.85V93.616Z" fill="#8A7E14"/>
<path d="M230.186 181.636C233.452 178.37 237.881 176.535 242.5 176.535C247.119 176.535 251.548 178.37 254.814 181.636C258.08 184.902 259.915 189.331 259.915 193.95C259.915 198.568 258.08 202.998 254.814 206.264L252.44 208.612C250.69 210.328 248.42 212.536 245.628 215.236C244.789 216.047 243.667 216.501 242.5 216.501C241.333 216.501 240.211 216.047 239.372 215.236L232.39 208.444C231.512 207.582 230.778 206.856 230.186 206.264C228.569 204.647 227.286 202.727 226.411 200.614C225.536 198.501 225.085 196.237 225.085 193.95C225.085 191.663 225.536 189.398 226.411 187.285C227.286 185.173 228.569 183.253 230.186 181.636ZM252.692 183.756C249.988 181.053 246.322 179.534 242.499 179.535C238.676 179.535 235.009 181.054 232.306 183.758C229.603 186.461 228.085 190.128 228.085 193.951C228.085 197.774 229.604 201.441 232.308 204.144L235.28 207.08C237.333 209.086 239.392 211.086 241.456 213.08C241.736 213.35 242.11 213.502 242.499 213.502C242.888 213.502 243.262 213.35 243.542 213.08L250.33 206.48C251.27 205.558 252.056 204.78 252.69 204.144C255.393 201.441 256.912 197.774 256.912 193.952C256.912 190.129 255.393 186.463 252.69 183.76L252.692 183.756ZM242.5 188.498C243.289 188.498 244.069 188.653 244.798 188.955C245.526 189.257 246.188 189.699 246.746 190.256C247.303 190.814 247.745 191.476 248.047 192.204C248.349 192.933 248.504 193.713 248.504 194.502C248.504 195.29 248.349 196.071 248.047 196.799C247.745 197.528 247.303 198.19 246.746 198.747C246.188 199.305 245.526 199.747 244.798 200.049C244.069 200.35 243.289 200.506 242.5 200.506C240.927 200.477 239.428 199.832 238.326 198.709C237.223 197.587 236.606 196.076 236.606 194.503C236.606 192.929 237.223 191.419 238.326 190.296C239.428 189.174 240.927 188.528 242.5 188.5V188.498ZM242.5 191.498C242.106 191.498 241.715 191.575 241.351 191.726C240.986 191.877 240.655 192.099 240.376 192.378C240.097 192.657 239.876 192.988 239.725 193.352C239.574 193.717 239.496 194.107 239.496 194.502C239.496 194.896 239.574 195.287 239.725 195.651C239.876 196.016 240.097 196.347 240.376 196.626C240.655 196.905 240.986 197.126 241.351 197.277C241.715 197.428 242.106 197.506 242.5 197.506C243.297 197.506 244.06 197.189 244.624 196.626C245.187 196.063 245.503 195.299 245.503 194.503C245.503 193.706 245.187 192.943 244.624 192.379C244.06 191.816 243.297 191.5 242.5 191.5V191.498Z" fill="#665E0F"/>
<path d="M290.095 197.44L303.367 176.104C304.375 174.424 303.983 173.136 302.415 172.856C304.319 172.856 306.223 172.856 308.127 172.856C306.615 173.136 305.047 174.144 303.927 175.88C301.687 179.52 299.391 183.216 297.151 186.856C299.671 186.352 300.455 187.472 301.015 188.76L309.807 208.864C310.591 210.488 312.159 211.72 313.727 212.056H309.919C307.679 212.056 307.175 210.936 306.503 209.648L296.759 187.416L290.095 198.168V208.584C290.095 210.32 290.879 211.72 292.503 212.056C289.703 212.056 286.903 212.056 284.103 212.056C285.671 211.72 286.455 210.32 286.455 208.584V176.272C286.455 174.536 285.671 173.136 284.103 172.856C286.903 172.856 289.703 172.856 292.503 172.856C290.879 173.136 290.095 174.536 290.095 176.272V197.44ZM337.238 212H333.822C331.694 212 331.246 210.432 331.246 208.64V207.296C329.79 210.936 326.542 212.392 323.182 212.392C311.757 212.392 311.981 201.192 321.054 198C325.142 196.6 331.078 196.992 331.134 192.344C330.182 184.336 320.662 185.624 320.662 192.344C320.662 193.408 318.87 193.464 319.318 191.728C321.502 183.664 334.886 184.168 334.886 193.856V208.584C334.886 210.32 335.67 211.72 337.238 212ZM331.246 205.336V193.968C329.958 197.328 324.862 197.888 321.838 199.568C315.006 203.432 318.03 213.512 326.262 211.272C328.894 210.6 331.19 208.248 331.246 205.336ZM339.384 212.056V212C340.952 211.72 341.736 210.32 341.736 208.584V177.056C341.736 175.32 340.952 173.92 339.384 173.584C341.344 173.584 343.752 173.752 345.376 172.856V191.504C346.832 187.864 350.08 186.464 353.944 186.464C366.656 186.464 367.384 212.392 353.44 212.392C350.08 212.392 346.832 210.936 345.376 207.296V208.976C345.32 210.432 344.928 212.056 342.8 212.056H339.384ZM345.376 193.52V205.336C345.432 208.864 348.848 211.552 352.152 211.496C362.288 211.328 361.784 188.032 352.264 187.416C348.848 187.248 345.432 189.992 345.376 193.52ZM389.245 212H385.829C383.701 212 383.253 210.432 383.253 208.64V207.296C381.797 210.936 378.549 212.392 375.189 212.392C363.765 212.392 363.989 201.192 373.061 198C377.149 196.6 383.085 196.992 383.141 192.344C382.189 184.336 372.669 185.624 372.669 192.344C372.669 193.408 370.877 193.464 371.325 191.728C373.509 183.664 386.893 184.168 386.893 193.856V208.584C386.893 210.32 387.677 211.72 389.245 212ZM383.253 205.336V193.968C381.965 197.328 376.869 197.888 373.845 199.568C367.013 203.432 370.037 213.512 378.269 211.272C380.901 210.6 383.197 208.248 383.253 205.336ZM393.856 191C393.856 189.264 393.072 187.864 391.504 187.584C393.464 187.584 395.872 187.752 397.496 186.8V191.504C398.952 187.864 402.2 186.464 406.064 186.464C410.04 186.464 413.68 188.648 413.68 193.744V208.584C413.68 210.32 414.464 211.72 416.032 212H407.632C409.256 211.72 410.04 210.32 410.04 208.584V193.352C410.04 184.392 397.664 186.24 397.496 193.52V208.584C397.496 210.32 398.28 211.72 399.904 212H391.504C393.072 211.72 393.856 210.32 393.856 208.584V191ZM420.598 191C420.598 189.264 419.814 187.864 418.246 187.584C420.206 187.584 422.614 187.752 424.238 186.8V208.584C424.238 210.32 425.022 211.72 426.646 212H418.246C419.814 211.72 420.598 210.32 420.598 208.584V191ZM422.222 181.48C423.342 181.48 424.294 182.376 424.294 183.552C424.294 184.672 423.342 185.624 422.222 185.624C421.046 185.624 420.15 184.672 420.15 183.552C420.15 182.376 421.046 181.48 422.222 181.48ZM462.253 172.856L475.861 208.752C476.421 210.264 477.765 211.72 479.389 212C476.477 212 473.509 212 470.541 212C472.109 211.776 472.669 210.376 472.277 208.976L465.557 191.392H455.421L449.037 208.752C448.533 210.208 449.149 211.72 450.717 212C448.869 212 446.965 212 445.117 212C446.685 211.72 447.973 210.32 448.589 208.808L461.805 172.856H462.253ZM455.589 190.944H465.389L460.405 177.84L455.589 190.944ZM503.248 212H500.056C497.648 212 497.312 210.6 497.256 209.088V207.352C495.8 210.992 492.552 212.392 488.688 212.392C484.712 212.392 481.072 210.208 481.072 205.112V190.272C481.072 188.536 480.288 187.136 478.72 186.8H487.12C485.496 187.136 484.712 188.536 484.712 190.272V205.504C484.712 214.464 497.088 212.616 497.256 205.336V190.272C497.256 188.536 496.472 187.136 494.848 186.8H503.248C501.68 187.136 500.896 188.536 500.896 190.272V208.584C500.896 210.32 501.68 211.72 503.248 212ZM530.062 212V212.056H526.646C524.462 212.056 524.07 210.432 524.014 208.976V207.296C522.558 210.936 519.31 212.392 515.95 212.392C502.062 212.392 502.734 186.464 515.502 186.464C519.31 186.464 522.558 187.864 524.014 191.504V177.056C524.014 175.32 523.23 173.92 521.662 173.584C523.678 173.584 526.03 173.752 527.654 172.856V208.584C527.654 210.32 528.438 211.72 530.062 212ZM524.014 205.336V193.52C523.958 189.992 520.542 187.248 517.182 187.416C507.606 188.032 507.102 211.328 517.294 211.496C520.542 211.552 523.958 208.864 524.014 205.336ZM534.731 191C534.731 189.264 533.947 187.864 532.379 187.584C534.339 187.584 536.747 187.752 538.371 186.8V208.584C538.371 210.32 539.155 211.72 540.779 212H532.379C533.947 211.72 534.731 210.32 534.731 208.584V191ZM536.355 181.48C537.475 181.48 538.427 182.376 538.427 183.552C538.427 184.672 537.475 185.624 536.355 185.624C535.179 185.624 534.283 184.672 534.283 183.552C534.283 182.376 535.179 181.48 536.355 181.48ZM544.126 183.552V180.92C544.126 179.184 543.342 177.784 541.774 177.504C543.734 177.504 546.142 177.672 547.766 176.72V186.8H554.71V187.304H547.766V203.32C547.766 206.288 547.206 212 551.854 212C553.982 212 556.278 210.096 553.814 207.128C552.582 205.056 555.382 204.16 556.054 206.512C556.95 209.928 554.934 212.392 551.35 212.392C545.134 212.392 544.126 208.472 544.126 203.32V187.304H542.334V186.8H544.126V183.552ZM571.298 186.408C578.41 186.408 584.234 192.232 584.234 199.4C584.234 206.512 578.41 212.336 571.298 212.336C564.13 212.336 558.362 206.512 558.362 199.4C558.362 192.232 564.13 186.408 571.298 186.408ZM571.298 186.912C564.186 186.912 562.002 193.24 562.002 199.4C562.002 205.504 564.186 211.832 571.298 211.832C578.354 211.832 580.594 205.504 580.594 199.4C580.594 193.24 578.354 186.912 571.298 186.912ZM588.981 191C588.981 189.264 588.197 187.864 586.629 187.584C588.589 187.584 590.997 187.752 592.621 186.8V191.224C594.413 186.576 600.237 179.184 603.373 181.816C603.877 182.208 604.269 182.824 604.269 183.552C604.269 184.672 603.317 185.624 602.197 185.624C601.021 185.624 600.125 184.672 600.125 183.552C600.125 183.048 600.293 182.6 600.573 182.208C597.941 182.88 592.621 189.768 592.621 193.744V208.584C592.621 210.32 593.405 211.72 595.029 212H586.629C588.197 211.72 588.981 210.32 588.981 208.584V191ZM606.621 212H598.221C599.789 211.72 600.573 210.32 600.573 208.584V191C600.573 189.264 599.789 187.864 598.221 187.584C600.237 187.584 602.589 187.752 604.213 186.8V208.584C604.213 210.32 604.997 211.72 606.621 212ZM632.201 212H629.009C626.601 212 626.265 210.6 626.209 209.088V207.352C624.753 210.992 621.505 212.392 617.641 212.392C613.665 212.392 610.025 210.208 610.025 205.112V190.272C610.025 188.536 609.241 187.136 607.673 186.8H616.073C614.449 187.136 613.665 188.536 613.665 190.272V205.504C613.665 214.464 626.041 212.616 626.209 205.336V190.272C626.209 188.536 625.425 187.136 623.801 186.8H632.201C630.633 187.136 629.849 188.536 629.849 190.272V208.584C629.849 210.32 630.633 211.72 632.201 212ZM636.887 191C636.887 189.264 636.103 187.864 634.535 187.584C636.495 187.584 638.903 187.752 640.527 186.8V191.336C641.983 187.584 645.119 186.464 647.975 186.464C650.831 186.464 653.351 188.2 653.799 191.56C655.255 187.64 658.447 186.464 661.359 186.464C664.495 186.464 667.295 188.648 667.295 192.792V208.584C667.295 210.32 668.079 211.72 669.647 212H661.247C662.871 211.72 663.655 210.32 663.655 208.584V192.456C663.655 185.344 653.967 186.856 653.911 193.184V208.584C653.911 210.32 654.695 211.72 656.319 212H647.863C649.487 211.72 650.271 210.32 650.271 208.584V192.456C650.271 185.344 640.639 186.856 640.527 193.184V208.584C640.527 210.32 641.311 211.72 642.935 212H634.535C636.103 211.72 636.887 210.32 636.887 208.584V191ZM692.799 212H689.775C691.343 211.72 692.127 210.32 692.127 208.584V176.272C692.127 174.536 691.343 173.136 689.775 172.856H692.967H704.783C722.703 172.856 722.703 197.048 704.783 197.048H695.767V208.584C695.767 210.32 696.551 211.72 698.175 212H692.799ZM704.783 173.304H695.767V196.6H704.783C717.719 196.6 717.719 173.304 704.783 173.304ZM744.365 212H741.173C738.765 212 738.429 210.6 738.373 209.088V207.352C736.917 210.992 733.669 212.392 729.805 212.392C725.829 212.392 722.189 210.208 722.189 205.112V190.272C722.189 188.536 721.405 187.136 719.837 186.8H728.237C726.613 187.136 725.829 188.536 725.829 190.272V205.504C725.829 214.464 738.205 212.616 738.373 205.336V190.272C738.373 188.536 737.589 187.136 735.965 186.8H744.365C742.797 187.136 742.013 188.536 742.013 190.272V208.584C742.013 210.32 742.797 211.72 744.365 212ZM748.939 177.056C748.939 175.32 748.155 173.92 746.587 173.584C748.547 173.584 750.955 173.752 752.579 172.856V208.584C752.579 210.32 753.363 211.72 754.987 212H746.587C748.155 211.72 748.939 210.32 748.939 208.584V177.056ZM759.549 191C759.549 189.264 758.765 187.864 757.197 187.584C759.157 187.584 761.565 187.752 763.189 186.8V191.56C764.645 187.92 767.893 186.464 771.253 186.464C784.413 186.464 784.469 212.392 771.757 212.392C767.893 212.392 764.645 210.992 763.189 207.352V219.896C763.189 221.632 763.973 223.032 765.597 223.312H757.197C758.765 223.032 759.549 221.632 759.549 219.896V191ZM763.189 193.52V205.336C763.245 208.864 766.661 211.608 770.077 211.384C779.597 210.824 780.157 187.528 769.965 187.304C766.661 187.248 763.245 189.992 763.189 193.52ZM806.73 212H803.314C801.186 212 800.738 210.432 800.738 208.64V207.296C799.282 210.936 796.034 212.392 792.674 212.392C781.25 212.392 781.474 201.192 790.546 198C794.634 196.6 800.57 196.992 800.626 192.344C799.674 184.336 790.154 185.624 790.154 192.344C790.154 193.408 788.362 193.464 788.81 191.728C790.994 183.664 804.378 184.168 804.378 193.856V208.584C804.378 210.32 805.162 211.72 806.73 212ZM800.738 205.336V193.968C799.45 197.328 794.354 197.888 791.33 199.568C784.498 203.432 787.522 213.512 795.754 211.272C798.386 210.6 800.682 208.248 800.738 205.336ZM811.229 177.84C811.229 176.104 810.445 174.704 808.877 174.424C810.837 174.424 813.245 174.592 814.869 173.64V208.584C814.869 210.32 815.653 211.72 817.277 212C814.477 212 811.677 212 808.877 212C810.445 211.72 811.229 210.32 811.229 208.584V177.84ZM818.957 212C820.525 211.72 821.309 210.32 821.309 208.584V177.056C821.309 175.32 820.525 173.92 818.957 173.584C820.973 173.584 823.325 173.752 824.949 172.856V208.584C824.949 210.32 825.733 211.72 827.357 212C824.557 212 821.757 212 818.957 212ZM842.603 207.912L850.555 190.216C851.283 188.424 850.723 187.136 849.155 186.8C850.947 186.8 852.795 186.8 854.587 186.8C853.019 187.08 852.011 187.976 851.227 189.656L841.427 211.608C840.195 214.464 838.515 218.72 834.595 218.72C832.691 218.72 830.843 217.936 829.779 216.088C828.715 214.072 831.571 213.344 831.851 215.472C831.963 217.264 833.195 218.272 834.707 218.272C837.955 218.272 839.747 214.744 840.811 212H840.755L831.123 189.936C830.395 188.144 829.499 187.136 827.931 186.8C830.731 186.8 833.531 186.8 836.331 186.8C834.707 187.136 834.147 188.424 834.931 190.16L842.603 207.912Z" fill="#665E0F"/>
<path d="M282.703 214.744H756.803V217.488H282.703V214.744ZM765.931 214.744H826.795V217.488H765.931V214.744ZM842.713 214.744H854.307V217.488H842.713V214.744Z" fill="#665E0F"/>
</svg>
