<svg width="785" height="396" viewBox="0 0 785 396" fill="none" xmlns="http://www.w3.org/2000/svg">
<path d="M137.257 116.751V19.8094C137.257 14.6011 134.905 10.4008 130.2 9.56074H148.177L177.411 99.4463L206.981 9.56074H224.958C220.254 10.4008 217.902 14.6011 217.902 19.8094V116.751C217.902 121.96 220.254 126.16 224.958 127H199.757C204.629 126.16 206.981 121.96 206.981 116.751V13.761L172.539 118.263L171.867 116.247L138.601 13.761V116.751C138.601 121.96 140.953 126.16 145.825 127H130.2C134.905 126.16 137.257 121.96 137.257 116.751ZM300.77 127H290.522C284.137 127 282.793 122.296 282.793 116.919V112.887C278.425 123.808 268.68 128.176 258.6 128.176C224.325 128.176 224.997 94.574 252.215 84.9974C264.48 80.7971 282.289 81.9732 282.457 68.0284C279.601 44.0029 251.039 47.8671 251.039 68.0284C251.039 71.2206 245.663 71.3886 247.007 66.1802C253.559 41.9867 293.714 43.4988 293.714 72.5646V116.751C293.714 121.96 296.066 126.16 300.77 127ZM282.793 107.007V72.9007C278.929 82.9813 263.64 84.6614 254.567 89.7017C234.07 101.294 243.143 131.536 267.84 124.816C275.737 122.8 282.625 115.743 282.793 107.007ZM314.267 22.1615C314.267 16.9532 311.915 12.7529 307.211 11.7449C313.091 11.7449 320.316 12.2489 325.188 9.56074V116.751C325.188 121.96 327.54 126.16 332.413 127H307.211C311.915 126.16 314.267 121.96 314.267 116.751V22.1615ZM407.253 127H397.005C390.62 127 389.276 122.296 389.276 116.919V112.887C384.908 123.808 375.163 128.176 365.083 128.176C330.809 128.176 331.481 94.574 358.698 84.9974C370.963 80.7971 388.772 81.9732 388.94 68.0284C386.084 44.0029 357.522 47.8671 357.522 68.0284C357.522 71.2206 352.146 71.3886 353.49 66.1802C360.042 41.9867 400.197 43.4988 400.197 72.5646V116.751C400.197 121.96 402.549 126.16 407.253 127ZM389.276 107.007V72.9007C385.412 82.9813 370.123 84.6614 361.05 89.7017C340.553 101.294 349.626 131.536 374.323 124.816C382.22 122.8 389.108 115.743 389.276 107.007ZM447.61 114.735L474.492 54.5875C477.516 48.0351 482.556 37.1144 490.621 35.6024C491.125 35.4343 491.629 35.4343 492.133 35.4343C495.661 35.4343 498.349 38.1225 498.349 41.6507C498.349 45.0109 495.661 47.8671 492.133 47.8671C488.772 47.8671 486.084 45.0109 486.084 41.6507C486.084 40.6427 486.252 39.6346 486.756 38.6265C481.38 42.3228 477.852 50.2193 475.668 55.0916L443.41 127.168H442.066L413.168 60.8039C410.984 55.4276 408.295 52.4034 403.591 51.3953C411.992 51.3953 420.392 51.3953 428.793 51.3953C423.92 52.4034 422.24 56.2676 424.592 61.476L447.61 114.735ZM480.204 127C485.076 126.16 487.428 121.96 487.428 116.751V63.9961C487.428 58.7878 485.076 54.5875 480.204 53.7475C486.252 53.7475 493.477 54.2515 498.349 51.3953V116.751C498.349 121.96 500.701 126.16 505.405 127C497.005 127 488.604 127 480.204 127ZM519.03 22.1615C519.03 16.9532 516.678 12.7529 511.974 11.7449C517.854 11.7449 525.078 12.2489 529.951 9.56074V96.9261L543.728 77.941L556.664 60.2999C559.353 56.0996 559.017 52.2354 554.48 51.3953C559.857 51.3953 565.065 51.3953 570.441 51.3953C566.241 52.2354 562.377 54.5875 559.017 58.9558L545.408 77.6049C552.464 75.9248 554.48 77.941 556.496 81.8052L573.633 117.591C576.826 124.984 581.026 126.496 583.882 127H573.801C567.081 127 565.737 123.808 563.721 119.944L544.232 79.117L529.951 98.7743V116.751C529.951 121.96 532.303 126.16 537.175 127H511.974C516.678 126.16 519.03 121.96 519.03 116.751V22.1615ZM655.987 127H645.739C639.354 127 638.01 122.296 638.01 116.919V112.887C633.642 123.808 623.897 128.176 613.817 128.176C579.543 128.176 580.215 94.574 607.432 84.9974C619.697 80.7971 637.506 81.9732 637.674 68.0284C634.818 44.0029 606.256 47.8671 606.256 68.0284C606.256 71.2206 600.88 71.3886 602.224 66.1802C608.777 41.9867 648.931 43.4988 648.931 72.5646V116.751C648.931 121.96 651.283 126.16 655.987 127ZM638.01 107.007V72.9007C634.146 82.9813 618.857 84.6614 609.785 89.7017C589.287 101.294 598.36 131.536 623.057 124.816C630.954 122.8 637.842 115.743 638.01 107.007Z" fill="#A35E4F"/>
<path opacity="0.2" d="M391.858 260C325.261 258.955 325.261 200.454 359.474 187.919C350.072 174.338 340.931 158.407 341.976 140.909C343.282 118.971 360.518 101.995 383.24 101.995C401.782 101.995 414.841 108.524 418.236 126.806C420.064 136.208 410.14 136.469 410.401 128.373C410.662 112.442 398.387 103.824 384.284 103.824C371.748 103.824 359.474 111.136 356.079 123.15C345.632 158.407 402.305 228.138 425.026 244.069C430.511 237.801 434.95 227.093 432.339 214.819C431.033 208.028 439.912 206.2 441.479 213.513C443.046 218.736 442.002 234.928 428.421 246.419C437.04 251.904 446.964 258.694 456.627 258.955V260C446.442 259.739 435.473 254.516 425.026 249.292C415.102 256.866 405.178 260.261 391.858 260ZM391.858 257.65C404.394 257.911 414.318 253.993 421.631 247.464C398.91 234.667 377.233 212.207 362.085 191.575C342.498 206.722 350.072 256.866 391.858 257.65Z" fill="#A35E4F"/>
<path d="M45.7038 161.446C38.13 162.752 34.4737 169.281 34.4737 177.377V328.069C34.4737 336.165 38.13 342.694 45.7038 344C32.6456 344 19.5873 344 6.52912 344C13.8417 342.694 17.498 336.165 17.498 328.069V177.377C17.498 169.281 13.8417 162.752 6.52912 161.446C19.5873 161.446 32.6456 161.446 45.7038 161.446ZM68.9924 246.063C68.9924 237.967 65.3361 231.438 58.0234 230.132C67.1642 230.132 78.3943 230.916 85.9681 226.476V248.414C92.7583 231.438 107.906 224.909 125.926 224.909C144.469 224.909 161.445 235.094 161.445 258.86V328.069C161.445 336.165 165.101 342.694 172.414 344H133.239C140.813 342.694 144.469 336.165 144.469 328.069V257.032C144.469 215.246 86.7516 223.864 85.9681 257.816V328.069C85.9681 336.165 89.6244 342.694 97.1981 344H58.0234C65.3361 342.694 68.9924 336.165 68.9924 328.069V246.063ZM297.16 344V344.261H281.229C271.044 344.261 269.216 336.687 268.955 329.897V322.062C262.164 339.038 247.017 345.828 231.347 345.828C166.578 345.828 169.712 224.909 229.258 224.909C247.017 224.909 262.164 231.438 268.955 248.414V181.033C268.955 172.937 265.298 166.408 257.986 164.841C267.388 164.841 278.357 165.625 285.93 161.446V328.069C285.93 336.165 289.587 342.694 297.16 344ZM268.955 312.921V257.816C268.694 241.362 252.762 228.565 237.093 229.349C192.433 232.222 190.083 340.866 237.615 341.65C252.762 341.911 268.694 329.375 268.955 312.921ZM318.935 246.063C318.935 237.967 315.279 231.438 307.966 230.132C317.107 230.132 328.337 230.916 335.911 226.476V247.108C341.656 233.266 356.02 224.909 369.34 224.648C378.219 224.648 386.838 228.565 391.8 236.922C396.762 246.586 383.443 249.72 382.137 240.056C380.57 215.768 335.911 227.259 335.911 257.032V328.069C335.911 336.165 339.567 342.694 347.141 344H307.966C315.279 342.694 318.935 336.165 318.935 328.069V246.063ZM491.52 344H475.589C465.665 344 463.575 336.687 463.575 328.33V322.062C456.785 339.038 441.638 345.828 425.968 345.828C372.69 345.828 373.735 293.595 416.043 278.709C435.108 272.18 462.792 274.008 463.053 252.331C458.613 214.985 414.215 220.991 414.215 252.331C414.215 257.293 405.858 257.554 407.947 249.458C418.133 211.851 480.551 214.201 480.551 259.383V328.069C480.551 336.165 484.207 342.694 491.52 344ZM463.575 312.921V259.905C457.569 275.575 433.803 278.187 419.7 286.021C387.838 304.042 401.941 351.051 440.332 340.605C452.607 337.471 463.314 326.502 463.575 312.921ZM525.651 296.729V349.484C525.651 377.69 503.974 393.882 478.641 392.054C459.054 390.487 447.563 376.646 447.563 357.842C447.563 345.567 464.277 349.484 458.009 360.715C445.473 375.34 464.016 389.965 479.686 389.965C501.624 391.532 508.675 374.034 508.675 349.484V246.063C508.675 237.967 505.019 231.438 497.706 230.132C507.108 230.132 518.077 230.916 525.651 226.476V296.729ZM516.249 201.665C521.472 201.665 525.912 205.844 525.912 211.328C525.912 216.552 521.472 220.991 516.249 220.991C510.765 220.991 506.586 216.552 506.586 211.328C506.586 205.844 510.765 201.665 516.249 201.665ZM555.105 246.063C555.105 237.967 551.449 231.438 544.137 230.132C553.277 230.132 564.507 230.916 572.081 226.476V328.069C572.081 336.165 575.737 342.694 583.311 344H544.137C551.449 342.694 555.105 336.165 555.105 328.069V246.063ZM562.679 201.665C567.903 201.665 572.342 205.844 572.342 211.328C572.342 216.552 567.903 220.991 562.679 220.991C557.195 220.991 553.016 216.552 553.016 211.328C553.016 205.844 557.195 201.665 562.679 201.665ZM598.918 211.328V199.054C598.918 190.958 595.262 184.428 587.949 183.123C597.09 183.123 608.32 183.906 615.894 179.466V226.476H648.278V228.826H615.894V303.519C615.894 317.361 613.282 344 634.959 344C644.883 344 655.591 335.12 644.099 321.279C638.354 311.616 651.412 307.437 654.546 318.406C658.725 334.337 649.323 345.828 632.608 345.828C603.619 345.828 598.918 327.547 598.918 303.519V228.826H590.561V226.476H598.918V211.328ZM675.984 181.033C675.984 172.937 672.328 166.408 665.015 164.841C674.156 164.841 685.386 165.625 692.96 161.446V248.414C699.75 231.438 714.897 224.909 732.918 224.909C751.199 224.909 768.436 235.094 768.436 258.86V328.069C768.436 336.165 772.092 342.694 779.405 344C766.347 344 753.289 344 740.23 344C747.804 342.694 751.46 336.165 751.46 328.069V257.032C751.46 215.246 693.743 223.864 692.96 257.816V328.069C692.96 336.165 696.616 342.694 704.19 344H692.96C683.558 344 674.156 344 665.015 344C672.328 342.694 675.984 336.165 675.984 328.069V181.033Z" fill="#A35E4F"/>
</svg>
